<svg xmlns="http://www.w3.org/2000/svg" viewBox="0 0 73.41 66.32"><defs><style>.a{fill:#924fef;}</style></defs><title>logo_asests</title><path class="a" d="M36.15,7.9c-1.22.39-3.38,1.17-3.38,1.22,0.43,0,.87-0.06,1.3-0.1A5.63,5.63,0,0,0,38.8,5.59c0.52-1.09,1-2.19,1.54-3.27C41.49,0,43.48-.63,45.76.67a14.47,14.47,0,0,1,3.9,3.72c1.24,1.52,2.49,3,3.73,4.56L53.9,9.61,54,9.48s-1.7-2.4-2.59-3.56l0.14-.16a1.58,1.58,0,0,1,.4.13,10.81,10.81,0,0,1,4.22,4.54c0.72,1.59.32,2.72-1.31,3.35A17.84,17.84,0,0,0,50,16.57a0.7,0.7,0,0,1-1.07,0,12.64,12.64,0,0,0-6.29-2.68,37,37,0,0,0-5.38-.59A23.78,23.78,0,0,0,26.81,15a13.19,13.19,0,0,0-2.43,1.58,0.85,0.85,0,0,1-1,.15,11.33,11.33,0,0,1-4-3.11c-1.13-1.44-2.16-3-3.28-4.51,0.31-.09.57-0.18,0.84-0.23a7.68,7.68,0,0,0,5-3.21,35.76,35.76,0,0,1,2.61-3.43A4.39,4.39,0,0,1,31.48,3a26.51,26.51,0,0,0,2.42,3.27A13.44,13.44,0,0,0,36.15,7.9Z"/><path class="a" d="M48.64,17.21a19,19,0,0,0-3.32-1.88,28,28,0,0,0-12.81-1.1,15,15,0,0,0-6.41,2c-2.23,1.41-2.18,1.64-1.36,3.8a53.88,53.88,0,0,0,2.6,5.36,13.69,13.69,0,0,1,1.72,5.59,0.17,0.17,0,0,0,.1.07c0-.2.09-0.39,0.12-0.58H29.5a7.78,7.78,0,0,0,0,1.17,1.28,1.28,0,0,0,.34.81,19.13,19.13,0,0,0,9.69,2.84,3.26,3.26,0,0,0,1-.16,2,2,0,0,1,1.88-1.57,1.94,1.94,0,0,1,1.73,1.16,4.58,4.58,0,0,0,1.08-.49c-0.35-.59-0.71-1.16-1-1.76A2.27,2.27,0,0,1,44,30.29L44.23,31a15.78,15.78,0,0,1,2.37-6.7,20.25,20.25,0,0,0,2.49-5.84A1.09,1.09,0,0,0,48.64,17.21ZM66.71,40.36a10.66,10.66,0,0,0-9.55,1.25c-2.24,1.4-4.52,2.75-6.81,4.09a3,3,0,0,1-2.87.24,36.65,36.65,0,0,1-3.88-2.22,2,2,0,0,1-.82-2.62c0.42-1,1-1.9,1.48-2.84a16.34,16.34,0,0,0,1.21-2.36,3.19,3.19,0,0,0-.05-1.13l-1.1.4a2.08,2.08,0,0,1,.07.5,0.07,0.07,0,0,1,0,.05,0.18,0.18,0,0,1,0,.06,2.13,2.13,0,0,1-2,2.26,2.1,2.1,0,0,1-2-2.09,2.71,2.71,0,0,0-1.18-.19,14.18,14.18,0,0,1-5.62-1c-1.56-.59-3.07-1.31-4.66-2-1,1.33-1.67,2.74-.67,4.39,0.3,0.49.7,0.93,1,1.43a15.54,15.54,0,0,1,1.27,2.59,2.2,2.2,0,0,1-1,2.68c-0.88.56-1.76,1.15-2.66,1.67a3.94,3.94,0,0,1-4.12.09c-0.49-.27-1-0.53-1.44-0.81-1.86-1.13-3.72-2.26-5.57-3.41a10.34,10.34,0,0,0-9.42-.92A9.57,9.57,0,0,0,.07,50.59C0.83,56.51,7,60.23,12.64,58.74c3.69-1,6.63-3.32,9.75-5.34a0.57,0.57,0,0,0,.09-0.22l-2-1.34a3.1,3.1,0,0,0-3.8.07,28.64,28.64,0,0,1-4,2.28,5.67,5.67,0,0,1-6.83-1.32,5.14,5.14,0,0,1-.68-6A5.89,5.89,0,0,1,10.65,44a11.66,11.66,0,0,1,4.4,2c5,3.3,9.86,6.68,14.86,9.9A74.55,74.55,0,0,0,47,64.54a32.36,32.36,0,0,0,12.29,1.71A14.14,14.14,0,0,0,60.79,66c-7.71-.28-13.77-4.46-20.2-8.16,0.38-.27.56-0.41,0.75-0.54,2.79-1.78,5.59-3.53,8.35-5.34,3.58-2.33,7.12-4.73,10.7-7.06a5.29,5.29,0,0,1,6,.07,5.18,5.18,0,0,1,1,8,5.65,5.65,0,0,1-6.72,1.21,47.93,47.93,0,0,1-4.37-2.49A2.48,2.48,0,0,0,54,51.34c-1.08.5-2.08,1.18-3.11,1.78l0,0.26a3.5,3.5,0,0,1,.35.17c2.43,1.46,4.79,3,7.29,4.34a10.12,10.12,0,0,0,8.16.62,9.74,9.74,0,0,0,6.79-8.94A9.54,9.54,0,0,0,66.71,40.36ZM30.19,37.53c-0.56.13-1.35-1-1.3-1.92a1,1,0,0,1,.45-0.76c0.44-.11,1.07.82,1.22,1.76a1,1,0,0,1-.21.8A0.36,0.36,0,0,1,30.19,37.53ZM43.89,50.24l-6.78,4.91a0.76,0.76,0,0,1-.87,0l-6.77-4.9a0.74,0.74,0,0,1,0-1.23l6.79-4.14a0.73,0.73,0,0,1,.77,0L43.85,49A0.74,0.74,0,0,1,43.89,50.24Z"/><path class="a" d="M8,17C7.19,18.16,6.9,19.53,5.7,20.36A3.62,3.62,0,0,0,4.23,24c0.24,2.07,1.57,3.49,3.08,4.77a82.44,82.44,0,0,0,13,8.49c2.51,1.42,5,2.8,7.57,4.2,0.8,0.45.86,0.69,0.16,1.24a18.47,18.47,0,0,1-2.42,1.6,2.41,2.41,0,0,1-2.53-.3c-3-1.82-6.06-3.57-9-5.48C10.9,36.46,7.72,34.32,4.65,32A10,10,0,0,1,1.31,20.76,6.32,6.32,0,0,1,8,17Z"/><path class="a" d="M72.78,58a6.63,6.63,0,0,1-2.28,3.24,11.44,11.44,0,0,1-7.38,2.69c-4.85.14-9.23-1.45-13.44-3.61-1.7-.87-3.31-1.89-5-2.84l0-.3a35,35,0,0,1,3.49-2c0.81-.36,1.62.2,2.35,0.63,1.58,0.93,3.15,1.88,4.76,2.76A18.53,18.53,0,0,0,63.56,61a13.64,13.64,0,0,0,7.15-1.83C71.4,58.79,72.09,58.38,72.78,58Z"/><path class="a" d="M13.57,13.17a0.34,0.34,0,0,0-.43.07l-1.71,1.95,0,0.63L11,15.66a1.84,1.84,0,0,0-2,.55c-1.46,2.39-2.8,4.86-4.17,7.3a0.84,0.84,0,0,0,.35,1.26c0.72,0.44,1.4.93,2.12,1.36a4.74,4.74,0,0,0,5.11-.34,5,5,0,0,0,1.55-5c-0.87,1.07-1.7,2-2.45,3a2.6,2.6,0,0,1-1.55,1c-0.94.21-1.87,0.44-2.79,0.66a2.13,2.13,0,0,1,1.91-1.08A2.87,2.87,0,0,0,11,23.33c0.88-1.11,1.92-2.08,2.86-3.14a1.91,1.91,0,0,0,.06-2.56l-0.16-.23,0.57-.27c0.19-.38.87-1.82,1.16-2.44a0.34,0.34,0,0,0-.13-0.44Z"/><path class="a" d="M65.38,17c0.81,1.19,1.11,2.57,2.31,3.39A3.62,3.62,0,0,1,69.16,24c-0.24,2.07-1.57,3.49-3.08,4.77a82.44,82.44,0,0,1-13,8.49c-2.51,1.42-5,2.8-7.57,4.2-0.8.45-.86,0.69-0.16,1.24a18.47,18.47,0,0,0,2.42,1.6,2.41,2.41,0,0,0,2.53-.3c3-1.82,6.06-3.57,9-5.48,3.21-2.08,6.39-4.22,9.46-6.5a10,10,0,0,0,3.34-11.28A6.32,6.32,0,0,0,65.38,17Z"/><path class="a" d="M59.81,13.17a0.34,0.34,0,0,1,.43.07L62,15.18l0,0.63,0.4-.15a1.84,1.84,0,0,1,2,.55c1.46,2.39,2.8,4.86,4.17,7.3a0.84,0.84,0,0,1-.35,1.26c-0.72.44-1.4,0.93-2.12,1.36A4.74,4.74,0,0,1,61,25.8a5,5,0,0,1-1.55-5c0.87,1.07,1.7,2,2.45,3a2.6,2.6,0,0,0,1.55,1c0.94,0.21,1.87.44,2.79,0.66a2.13,2.13,0,0,0-1.91-1.08,2.87,2.87,0,0,1-1.94-1.11c-0.88-1.11-1.92-2.08-2.86-3.14a1.91,1.91,0,0,1-.06-2.56l0.16-.23L59,17.12c-0.19-.38-0.87-1.82-1.16-2.44A0.34,0.34,0,0,1,58,14.25Z"/><path class="a" d="M34.93,60.94c-7.19,3.53-14.32,6.17-22.27,5.13l0-.24c0.7,0,1.41-.05,2.11-0.12a28.92,28.92,0,0,0,10.49-3.55c1.51-.79,3-1.64,4.46-2.48a2.76,2.76,0,0,1,2.84-.12C33.27,60,34,60.41,34.93,60.94Z"/><path class="a" d="M32.45,3.3a12.73,12.73,0,0,1,5.84,0,0.49,0.49,0,0,1,.4.74,5.76,5.76,0,0,1-2,2.94,0.25,0.25,0,0,1-.29,0C35.73,6.62,33.24,4.89,32.45,3.3Z"/><polygon class="a" points="39.65 48.65 37.31 51.36 37.31 56.78 36.1 56.78 36.1 51.36 33.77 48.65 39.65 48.65"/><path class="a" d="M0.6,58a6.63,6.63,0,0,0,2.28,3.24,11.44,11.44,0,0,0,7.38,2.69c4.85,0.14,9.23-1.45,13.44-3.61,1.7-.87,3.31-1.89,5-2.84l0-.3a35,35,0,0,0-3.49-2c-0.81-.36-1.62.2-2.35,0.63-1.58.93-3.15,1.88-4.76,2.76A18.53,18.53,0,0,1,9.82,61a13.64,13.64,0,0,1-7.15-1.83C2,58.79,1.29,58.38.6,58Z"/></svg>