<?xml version="1.0" encoding="utf-8"?>
<!-- Generator: Adobe Illustrator 17.0.0, SVG Export Plug-In . SVG Version: 6.00 Build 0)  -->
<!DOCTYPE svg PUBLIC "-//W3C//DTD SVG 1.1//EN" "http://www.w3.org/Graphics/SVG/1.1/DTD/svg11.dtd">
<svg version="1.1" id="Слой_1" xmlns="http://www.w3.org/2000/svg" xmlns:xlink="http://www.w3.org/1999/xlink" x="0px" y="0px"
	 width="40px" height="36.437px" viewBox="0 0 40 36.437" enable-background="new 0 0 40 36.437" xml:space="preserve">
<g>
	<path fill="#5A5A5A" d="M30.604,8.589c0,1.212-0.881,1.949-1.527,2.49c-0.243,0.204-0.698,0.579-0.698,0.718
		c0.004,0.547-0.436,0.985-0.984,0.985c-0.002,0-0.006,0-0.007,0c-0.544,0-0.987-0.423-0.991-0.969
		c-0.009-1.074,0.776-1.717,1.405-2.245c0.494-0.416,0.818-0.707,0.818-0.974c0-0.542-0.44-0.982-0.982-0.982
		s-0.982,0.44-0.982,0.982c0,0.547-0.444,0.991-0.991,0.991s-0.991-0.444-0.991-0.991c0-1.635,1.331-2.965,2.965-2.965
		C29.273,5.627,30.604,6.954,30.604,8.589z M27.416,13.698c-0.547,0-0.971,0.444-0.971,0.991v0.007c0,0.547,0.421,0.987,0.971,0.987
		s0.991-0.447,0.991-0.997C28.409,14.141,27.963,13.698,27.416,13.698z M7.426,20.605c-0.547,0-0.991,0.444-0.991,0.991
		c0,0.547,0.444,0.991,0.991,0.991H7.51c0.547,0,0.991-0.444,0.991-0.991c0-0.547-0.444-0.991-0.991-0.991H7.426z M10.872,20.605
		c-0.547,0-0.991,0.444-0.991,0.991c0,0.547,0.444,0.991,0.991,0.991h0.082c0.547,0,0.991-0.444,0.991-0.991
		c0-0.547-0.444-0.991-0.991-0.991H10.872z M40,4.764v11.163c0,2.643-2.119,4.788-4.762,4.788H22.376
		c-0.252,0-0.458-0.002-0.631-0.006c-0.182-0.004-0.386-0.006-0.466,0.004c-0.084,0.056-0.286,0.241-0.482,0.421
		c-0.078,0.072-0.165,0.15-0.26,0.238l-3.639,3.316c-0.289,0.265-0.72,0.334-1.08,0.174c-0.36-0.158-0.612-0.514-0.612-0.907V13.444
		H4.817c-1.55,0-2.834,1.269-2.834,2.819v11.162c0,1.55,1.284,2.767,2.834,2.767h14.367c0.247,0,0.479,0.113,0.661,0.28l2.965,2.733
		V23.78c0-0.547,0.444-0.991,0.991-0.991s0.991,0.444,0.991,0.991v11.674c0,0.393-0.225,0.744-0.585,0.902
		c-0.128,0.058-0.258,0.08-0.393,0.08c-0.243,0-0.482-0.1-0.668-0.269l-4.348-3.99H4.817C2.174,32.175,0,30.067,0,27.425V16.263
		c0-2.643,2.175-4.803,4.817-4.803h10.388V4.765C15.207,2.122,17.397,0,20.041,0h15.196C37.88-0.001,40,2.122,40,4.764z
		 M38.018,4.764c0-1.55-1.23-2.782-2.778-2.782H20.041c-1.55,0-2.85,1.232-2.85,2.782v7.696v9.249l1.995-1.802
		c0.093-0.084,0.197-0.161,0.271-0.232c0.911-0.839,1.143-0.972,2.331-0.948c0.161,0.004,0.354,0.004,0.59,0.004H35.24
		c1.55,0,2.778-1.254,2.778-2.804L38.018,4.764L38.018,4.764z"/>
</g>
</svg>
