<?xml version="1.0" encoding="utf-8"?>
<!-- Generator: Adobe Illustrator 17.0.0, SVG Export Plug-In . SVG Version: 6.00 Build 0)  -->
<!DOCTYPE svg PUBLIC "-//W3C//DTD SVG 1.1//EN" "http://www.w3.org/Graphics/SVG/1.1/DTD/svg11.dtd">
<svg version="1.1" id="Слой_1" xmlns="http://www.w3.org/2000/svg" xmlns:xlink="http://www.w3.org/1999/xlink" x="0px" y="0px"
	 width="40px" height="40.055px" viewBox="0 0 40 40.055" enable-background="new 0 0 40 40.055" xml:space="preserve">
<g>
	<path fill="#5A5A5A" d="M20.093,11.739h-4.45v13.797h2.67v-4.895h1.78c2.454,0,4.45-1.997,4.45-4.45S22.547,11.739,20.093,11.739z
		 M20.093,17.969h-1.78V14.41h1.78c0.982,0,1.78,0.799,1.78,1.78S21.075,17.969,20.093,17.969z"/>
	<path fill="#5A5A5A" d="M21.252,3.113V0h-2.501v3.113H0v4.569h2.592v24.221h6.991v8.152h2.5v-3.749h15.002v3.749h2.5v-8.152h7.812
		V7.682H40V3.113C40,3.113,21.252,3.113,21.252,3.113z M27.084,33.805h-15v-1.901h15.002v1.901
		C27.086,33.805,27.084,33.805,27.084,33.805z M5.091,29.403V7.682h29.805v21.721C34.896,29.403,5.091,29.403,5.091,29.403z"/>
</g>
</svg>
