<?xml version="1.0" encoding="utf-8"?>
<!-- Generator: Adobe Illustrator 17.0.0, SVG Export Plug-In . SVG Version: 6.00 Build 0)  -->
<!DOCTYPE svg PUBLIC "-//W3C//DTD SVG 1.1//EN" "http://www.w3.org/Graphics/SVG/1.1/DTD/svg11.dtd">
<svg version="1.1" id="Слой_1" xmlns="http://www.w3.org/2000/svg" xmlns:xlink="http://www.w3.org/1999/xlink" x="0px" y="0px"
	 width="40px" height="35.377px" viewBox="0 0 40 35.377" enable-background="new 0 0 40 35.377" xml:space="preserve">
<g>
	<g>
		<circle fill="#5A5A5A" cx="20.088" cy="5.356" r="1.074"/>
		<circle fill="#5A5A5A" cx="16.422" cy="5.356" r="1.074"/>
		<circle fill="#5A5A5A" cx="12.755" cy="5.356" r="1.074"/>
		<path fill="#5A5A5A" d="M38.342,30.119c-1.438-0.796-2.989-1.389-4.486-1.965l-0.238-0.091c-0.082-0.03-0.144-0.08-0.158-0.101
			c-0.108-0.239-0.186-0.492-0.27-0.76l-0.032-0.103c-0.061-0.205-0.146-0.486-0.467-0.629c-0.004-0.002-0.006-0.004-0.008-0.004
			c-0.011-0.082-0.148-1.142,0.372-1.826c0.106-0.139,0.175-0.314,0.224-0.498c-0.021-0.093-0.032-0.19-0.032-0.291
			c0-0.407,0.184-0.775,0.473-1.03c-0.002-0.002-0.004-0.002-0.004-0.004c0.304-0.426,0.357-1.309,0.334-1.676
			c-0.023-0.378-0.116-0.34-0.296-0.422c-0.011-0.006-0.023-0.01-0.036-0.013l0,0v-1.733c-0.002-0.882-0.279-1.404-0.654-1.813
			c-1.038-1.133-2.123-1.285-2.125-1.283c-0.239-0.034-0.473-0.042-0.619-0.042c-0.53,0-1.912,0.093-3.293,0.952
			c-0.758,0.471-1.112,1.144-1.15,2.176c0,0.004,0,0.006,0,0.01h0.002l-0.002,1.733l0,0c-0.011,0.004-0.025,0.008-0.036,0.013
			c-0.181,0.082-0.274,0.044-0.296,0.422c-0.025,0.429,0.049,1.566,0.513,1.849c0.07,0.07,0.116,0.266,0.143,0.483
			c0.051,0.405,0.11,0.865,0.338,1.165c0.521,0.684,0.384,1.744,0.372,1.826c-0.002,0.002-0.004,0.002-0.008,0.004
			c-0.321,0.144-0.405,0.426-0.467,0.629L26.404,27.2c-0.084,0.268-0.162,0.521-0.27,0.76c-0.015,0.021-0.078,0.07-0.158,0.101
			l-0.238,0.091c-1.499,0.574-3.048,1.169-4.486,1.965c-0.61,0.338-1.003,1.343-1.254,2.362c-0.251-1.018-0.642-2.026-1.254-2.362
			c-1.438-0.796-2.989-1.389-4.486-1.965l-0.234-0.086c-0.082-0.03-0.144-0.08-0.158-0.101c-0.108-0.239-0.186-0.492-0.27-0.76
			l-0.032-0.103c-0.061-0.205-0.146-0.486-0.467-0.629c-0.004-0.002-0.006-0.004-0.008-0.004c-0.011-0.082-0.148-1.142,0.372-1.826
			c0.106-0.139,0.175-0.314,0.224-0.498c-0.021-0.093-0.032-0.19-0.032-0.291c0-0.407,0.184-0.775,0.473-1.03
			c-0.002-0.002-0.004-0.002-0.004-0.004c0.304-0.426,0.357-1.309,0.334-1.676c-0.023-0.378-0.116-0.34-0.296-0.422
			c-0.011-0.006-0.023-0.01-0.036-0.013l0,0v-1.733c-0.001-0.883-0.28-1.406-0.655-1.814c-1.039-1.135-2.124-1.287-2.126-1.285
			c-0.239-0.034-0.473-0.042-0.619-0.042c-0.53,0-1.912,0.093-3.293,0.952c-0.756,0.473-1.112,1.144-1.148,2.178
			c0,0.004,0,0.006,0,0.01h0.002l-0.002,1.733l0,0c-0.011,0.004-0.025,0.008-0.036,0.013c-0.181,0.082-0.274,0.044-0.296,0.422
			C5.926,21.572,6,22.709,6.464,22.992c0.07,0.07,0.116,0.266,0.143,0.483c0.051,0.405,0.11,0.865,0.338,1.165
			c0.521,0.684,0.384,1.744,0.372,1.826c-0.002,0.002-0.004,0.002-0.008,0.004c-0.321,0.144-0.405,0.426-0.467,0.629L6.81,27.202
			c-0.084,0.268-0.162,0.521-0.27,0.76c-0.015,0.021-0.078,0.07-0.158,0.101l-0.238,0.091c-1.499,0.574-3.048,1.169-4.486,1.965
			c-1.36,0.752-1.646,4.824-1.657,4.954c-0.008,0.078,0.019,0.154,0.072,0.213c0.053,0.057,0.127,0.091,0.205,0.091h19.594h0.255
			h19.594c0.078,0,0.152-0.032,0.205-0.091c0.053-0.057,0.078-0.135,0.072-0.213C39.988,34.943,39.703,30.871,38.342,30.119z"/>
	</g>
	<path fill="#5A5A5A" d="M31.851,11.718V6.242c0-0.73-0.599-1.324-1.322-1.324h-6.096V1.735c0-0.954-0.783-1.737-1.741-1.737H10.218
		c-0.956,0-1.739,0.783-1.739,1.737v7.182c0,0.956,0.783,1.735,1.737,1.735h0.853l-2.421,3.667l6.888-3.667h4.154v1.062
		c0,0.73,0.597,1.324,1.326,1.324h5.455l5.25,2.795l-1.845-2.795h0.652C31.253,13.044,31.851,12.447,31.851,11.718z M23.061,8.883
		c0,0.3-0.255,0.543-0.568,0.543h-7.511l-3.152,2.062c0,0,0.908-1.22,1.482-2.064h-2.898c-0.314,0-0.568-0.243-0.568-0.543V1.866
		c0-0.3,0.255-0.543,0.568-0.543h12.081c0.314,0,0.568,0.243,0.568,0.543v7.017C23.063,8.883,23.061,8.883,23.061,8.883z"/>
</g>
</svg>
