<?xml version="1.0" standalone="no"?>
<!DOCTYPE svg PUBLIC "-//W3C//DTD SVG 1.1//EN" "http://www.w3.org/Graphics/SVG/1.1/DTD/svg11.dtd" >
<svg xmlns="http://www.w3.org/2000/svg" xmlns:xlink="http://www.w3.org/1999/xlink" version="1.1">
<metadata>
Created by FontForge 20150318 at Mon Jun  8 12:02:00 2015
 By uniteet7
(c) 2010 Klim Type Foundry. All rights reserved.
</metadata>
<defs>
<font id="FoundersGroteskXCond-Bold" horiz-adv-x="400" >
  <font-face 
    font-family="Founders Grotesk X-Condensed"
    font-weight="700"
    font-stretch="condensed"
    units-per-em="1000"
    panose-1="2 11 8 3 3 2 2 6 2 3"
    ascent="630"
    descent="-370"
    x-height="446"
    cap-height="630"
    bbox="-46 -201 846 944"
    underline-thickness="40"
    underline-position="-30"
    stemh="108"
    stemv="147"
    unicode-range="U+0020-FB04"
  />
<missing-glyph horiz-adv-x="608" 
 />
    <glyph glyph-name="fi" unicode="fi" horiz-adv-x="416" 
d="M232 626v-101c-10 5 -17 7 -26 7c-22 0 -26 -15 -26 -37v-49h52v-97h-52v-349h-139v349h-41v97h41v48c0 88 46 144 129 144c26 0 44 -5 62 -12zM255 446h140v-446h-140v446zM255 490v140h140v-140h-140z" />
    <glyph glyph-name="fl" unicode="fl" horiz-adv-x="416" 
d="M232 626v-101c-10 5 -17 7 -26 7c-22 0 -26 -15 -26 -37v-49h52v-97h-52v-349h-139v349h-41v97h41v48c0 88 46 144 129 144c26 0 44 -5 62 -12zM255 630h140v-630h-140v630z" />
    <glyph glyph-name="ff" unicode="ff" horiz-adv-x="456" 
d="M469 626l-8 -101c-13 5 -21 7 -35 7c-26 0 -31 -15 -31 -37v-49h57v-97h-57v-349h-139v349h-76v-349h-139v349h-41v97h41v40c0 88 46 144 137 144c29 0 48 -5 66 -12l-8 -99c-8 4 -17 5 -25 5c-26 0 -31 -15 -31 -37v-41h76v48c0 88 46 144 140 144c34 0 55 -5 73 -12z
" />
    <glyph glyph-name="ffi" unicode="ffi" horiz-adv-x="630" 
d="M255 446v48c0 88 46 144 129 144c26 0 44 -5 62 -12v-101c-10 5 -17 7 -26 7c-22 0 -26 -15 -26 -37v-49h52v-97h-52v-349h-139v349h-75v-349h-139v349h-41v97h41v40c0 88 46 144 137 144c29 0 48 -5 66 -12l-8 -99c-8 4 -17 5 -25 5c-26 0 -31 -15 -31 -37v-41h75z
M469 446h140v-446h-140v446zM469 490v140h140v-140h-140z" />
    <glyph glyph-name="ffl" unicode="ffl" horiz-adv-x="630" 
d="M255 446v48c0 88 46 144 129 144c26 0 44 -5 62 -12v-101c-10 5 -17 7 -26 7c-22 0 -26 -15 -26 -37v-49h52v-97h-52v-349h-139v349h-75v-349h-139v349h-41v97h41v40c0 88 46 144 137 144c29 0 48 -5 66 -12l-8 -99c-8 4 -17 5 -25 5c-26 0 -31 -15 -31 -37v-41h75z
M469 630h140v-630h-140v630z" />
    <glyph glyph-name="f_b" unicode="fb" horiz-adv-x="627" 
d="M232 626v-101c-10 5 -17 7 -26 7c-22 0 -26 -15 -26 -37v-49h52v-97h-52v-349h-139v349h-41v97h41v48c0 88 46 144 129 144c26 0 44 -5 62 -12zM395 275v-104c0 -38 9 -60 38 -60c24 0 36 20 36 60v104c0 40 -12 60 -36 60c-29 0 -38 -22 -38 -60zM395 630v-234
c14 32 48 58 94 58c93 0 123 -81 123 -198v-66c0 -117 -30 -198 -123 -198c-46 0 -80 26 -94 58l-10 -50h-130v630h140z" />
    <glyph glyph-name="f_f_b" unicode="ffb" horiz-adv-x="841" 
d="M255 446v48c0 88 46 144 129 144c26 0 44 -5 62 -12v-101c-10 5 -17 7 -26 7c-22 0 -26 -15 -26 -37v-49h52v-97h-52v-349h-139v349h-75v-349h-139v349h-41v97h41v40c0 88 46 144 137 144c29 0 48 -5 66 -12l-8 -99c-8 4 -17 5 -25 5c-26 0 -31 -15 -31 -37v-41h75z
M609 275v-104c0 -38 9 -60 38 -60c24 0 36 20 36 60v104c0 40 -12 60 -36 60c-29 0 -38 -22 -38 -60zM609 630v-234c14 32 48 58 94 58c93 0 123 -81 123 -198v-66c0 -117 -30 -198 -123 -198c-46 0 -80 26 -94 58l-10 -50h-130v630h140z" />
    <glyph glyph-name="f_h" unicode="fh" horiz-adv-x="624" 
d="M232 626v-101c-10 5 -17 7 -26 7c-22 0 -26 -15 -26 -37v-49h52v-97h-52v-349h-139v349h-41v97h41v48c0 88 46 144 129 144c26 0 44 -5 62 -12zM395 273v-273h-140v630h140v-234c14 33 51 58 100 58c82 0 108 -62 108 -119v-335h-140v294c0 27 -9 41 -30 41
c-28 0 -38 -27 -38 -62z" />
    <glyph glyph-name="f_f_h" unicode="ffh" horiz-adv-x="838" 
d="M255 446v48c0 88 46 144 129 144c26 0 44 -5 62 -12v-101c-10 5 -17 7 -26 7c-22 0 -26 -15 -26 -37v-49h52v-97h-52v-349h-139v349h-75v-349h-139v349h-41v97h41v40c0 88 46 144 137 144c29 0 48 -5 66 -12l-8 -99c-8 4 -17 5 -25 5c-26 0 -31 -15 -31 -37v-41h75z
M609 273v-273h-140v630h140v-234c14 33 51 58 100 58c82 0 108 -62 108 -119v-335h-140v294c0 27 -9 41 -30 41c-28 0 -38 -27 -38 -62z" />
    <glyph glyph-name="f_j" unicode="fj" horiz-adv-x="416" 
d="M232 626v-101c-10 5 -17 7 -26 7c-22 0 -26 -15 -26 -37v-49h52v-97h-52v-349h-139v349h-41v97h41v48c0 88 46 144 129 144c26 0 44 -5 62 -12zM395 446v-485c0 -83 -41 -129 -122 -129c-33 0 -61 6 -85 20l11 89c10 -5 19 -7 28 -7c22 0 28 10 28 30v482h140zM255 490
v140h140v-140h-140z" />
    <glyph glyph-name="f_f_j" unicode="ffj" horiz-adv-x="630" 
d="M255 446v48c0 88 46 144 129 144c26 0 44 -5 62 -12v-101c-10 5 -17 7 -26 7c-22 0 -26 -15 -26 -37v-49h52v-97h-52v-349h-139v349h-75v-349h-139v349h-41v97h41v40c0 88 46 144 137 144c29 0 48 -5 66 -12l-8 -99c-8 4 -17 5 -25 5c-26 0 -31 -15 -31 -37v-41h75z
M609 446v-485c0 -83 -41 -129 -122 -129c-33 0 -61 6 -85 20l11 89c10 -5 19 -7 28 -7c22 0 28 10 28 30v482h140zM469 490v140h140v-140h-140z" />
    <glyph glyph-name="f_k" unicode="fk" horiz-adv-x="623" 
d="M232 626v-101c-10 5 -17 7 -26 7c-22 0 -26 -15 -26 -37v-49h52v-97h-52v-349h-139v349h-41v97h41v48c0 88 46 144 129 144c26 0 44 -5 62 -12zM395 103v-103h-140v630h140v-365l97 181h129l-95 -184l97 -262h-146l-57 155z" />
    <glyph glyph-name="f_f_k" unicode="ffk" horiz-adv-x="837" 
d="M255 446v48c0 88 46 144 129 144c26 0 44 -5 62 -12v-101c-10 5 -17 7 -26 7c-22 0 -26 -15 -26 -37v-49h52v-97h-52v-349h-139v349h-75v-349h-139v349h-41v97h41v40c0 88 46 144 137 144c29 0 48 -5 66 -12l-8 -99c-8 4 -17 5 -25 5c-26 0 -31 -15 -31 -37v-41h75z
M609 103v-103h-140v630h140v-365l97 181h129l-95 -184l97 -262h-146l-57 155z" />
    <glyph glyph-name=".notdef" horiz-adv-x="608" 
 />
    <glyph glyph-name="space" unicode=" " horiz-adv-x="120" 
 />
    <glyph glyph-name="exclam" unicode="!" horiz-adv-x="188" 
d="M23 143h142v-143h-142v143zM137 198h-86l-33 266v166h152v-166z" />
    <glyph glyph-name="quotedbl" unicode="&#x22;" horiz-adv-x="306" 
d="M25 394v236h114v-236h-114zM167 394v236h114v-236h-114z" />
    <glyph glyph-name="numbersign" unicode="#" horiz-adv-x="492" 
d="M446 266l-18 -95h-78l-33 -171h-97l33 171h-69l-33 -171h-97l33 171h-72l18 95h72l20 104h-79l18 95h79l32 165h97l-32 -165h69l32 165h97l-32 -165h71l-18 -95h-71l-20 -104h78zM222 370l-20 -104h69l20 104h-69z" />
    <glyph glyph-name="dollar" unicode="$" horiz-adv-x="397" 
d="M172 -58v55c-98 9 -163 74 -163 192v24h118v-25c0 -43 13 -74 45 -84v149l-39 18c-58 26 -125 75 -125 183c0 104 67 170 164 179v51h50v-52c97 -10 153 -77 153 -189v-25h-118v26c0 39 -9 68 -35 80v-151l32 -15c85 -40 133 -87 133 -181c0 -113 -67 -172 -165 -180v-55
h-50zM131 464c0 -35 15 -54 41 -68v130c-27 -7 -41 -29 -41 -62zM263 164c0 31 -15 50 -41 66v-126c25 7 41 27 41 60z" />
    <glyph glyph-name="percent" unicode="%" horiz-adv-x="592" 
d="M112 492c0 -48 11 -68 39 -68c29 0 39 20 39 68c0 47 -10 68 -39 68c-28 0 -39 -21 -39 -68zM282 492c0 -93 -57 -149 -131 -149s-131 56 -131 149s57 149 131 149s131 -56 131 -149zM72 0l355 630h93l-355 -630h-93zM402 138c0 -48 11 -68 39 -68c29 0 39 20 39 68
c0 47 -10 68 -39 68c-28 0 -39 -21 -39 -68zM572 138c0 -93 -57 -149 -131 -149s-131 56 -131 149s57 149 131 149s131 -56 131 -149z" />
    <glyph glyph-name="ampersand" unicode="&#x26;" horiz-adv-x="489" 
d="M361 328l114 -6c-13 -64 -35 -128 -67 -183c11 -14 22 -26 42 -26c7 0 17 1 34 6v-100c-14 -14 -43 -23 -69 -23c-33 0 -62 8 -95 39c-38 -27 -82 -43 -133 -43c-103 0 -182 59 -182 172c0 74 28 124 92 169c-29 40 -48 76 -48 136c0 108 76 169 165 169
c102 0 156 -67 156 -155c0 -77 -33 -122 -96 -167l60 -78c10 27 19 57 27 90zM209 115c15 0 28 3 41 9l-84 116c-15 -17 -24 -37 -24 -60c0 -39 25 -65 67 -65zM181 477c0 -27 14 -56 30 -77c32 24 42 48 42 79c0 24 -13 44 -36 44c-26 0 -36 -20 -36 -46z" />
    <glyph glyph-name="quoteright" unicode="&#x2019;" horiz-adv-x="179" 
d="M18 502v128h143v-121c0 -86 -45 -124 -143 -127v67c43 1 64 14 65 53h-65z" />
    <glyph glyph-name="parenleft" unicode="(" horiz-adv-x="231" 
d="M20 288c0 130 35 275 96 372h115c-65 -121 -85 -250 -85 -372s20 -251 85 -372h-115c-61 97 -96 242 -96 372z" />
    <glyph glyph-name="parenright" unicode=")" horiz-adv-x="231" 
d="M211 288c0 -130 -35 -275 -96 -372h-115c65 121 85 250 85 372s-20 251 -85 372h115c61 -97 96 -242 96 -372z" />
    <glyph glyph-name="asterisk" unicode="*" horiz-adv-x="293" 
d="M5 499l24 74l79 -26v83h77v-83l78 26l25 -73l-78 -26l48 -67l-62 -46l-49 67l-49 -67l-63 45l48 68z" />
    <glyph glyph-name="plus" unicode="+" horiz-adv-x="435" 
d="M170 494h95v-141h140v-95h-140v-140h-95v140h-140v95h140v141z" />
    <glyph glyph-name="comma" unicode="," horiz-adv-x="179" 
d="M18 0v143h143v-135c0 -86 -46 -129 -143 -131v66c41 1 63 18 63 57h-63z" />
    <glyph glyph-name="hyphen" unicode="-" horiz-adv-x="214" 
d="M18 195v122h178v-122h-178z" />
    <glyph glyph-name="period" unicode="." horiz-adv-x="179" 
d="M18 0v143h143v-143h-143z" />
    <glyph glyph-name="slash" unicode="/" horiz-adv-x="226" 
d="M-5 -83l100 742h121l-100 -742h-121z" />
    <glyph glyph-name="zero" unicode="0" horiz-adv-x="432" 
d="M420 349v-68c0 -181 -57 -289 -204 -289s-204 108 -204 289v68c0 181 57 289 204 289s204 -108 204 -289zM163 423v-216c0 -56 10 -96 53 -96s53 40 53 96v216c0 56 -10 96 -53 96s-53 -40 -53 -96z" />
    <glyph glyph-name="one" unicode="1" horiz-adv-x="244" 
d="M5 438v97c73 1 89 28 105 96h112v-631h-147v438h-70z" />
    <glyph glyph-name="two" unicode="2" 
d="M310 277l-125 -154h200v-123h-373v105l164 208c35 44 69 87 69 147c0 35 -8 62 -46 62c-39 0 -47 -34 -47 -75v-54h-140v42c0 120 52 203 187 203c126 0 189 -64 189 -179c0 -81 -35 -129 -78 -182z" />
    <glyph glyph-name="three" unicode="3" horiz-adv-x="408" 
d="M159 262v108c15 -2 29 -2 39 -2c40 0 57 17 57 73c0 59 -14 80 -52 80c-45 0 -53 -33 -53 -84v-38h-136v39c0 119 51 200 190 200c133 0 192 -67 192 -183c0 -80 -34 -122 -80 -139c45 -18 80 -61 80 -141c0 -116 -59 -183 -192 -183c-139 0 -192 81 -192 200v41h136v-40
c0 -51 10 -84 55 -84c38 0 52 21 52 80c0 56 -17 75 -57 75c-10 0 -24 0 -39 -2z" />
    <glyph glyph-name="four" unicode="4" horiz-adv-x="445" 
d="M375 630v-390h61v-114h-61v-126h-141v126h-229v107l229 397h141zM234 433l-109 -193h109v193z" />
    <glyph glyph-name="five" unicode="5" horiz-adv-x="406" 
d="M17 274c13 94 29 252 31 356h320v-129h-209c-2 -29 -5 -83 -9 -108c18 21 46 34 90 34c98 0 154 -71 154 -215c0 -146 -63 -220 -190 -220c-136 0 -192 75 -192 199v31h133v-31c0 -51 15 -82 55 -82s55 30 55 103c0 72 -15 101 -54 101c-35 0 -46 -21 -54 -50z" />
    <glyph glyph-name="six" unicode="6" horiz-adv-x="417" 
d="M218 638c118 0 180 -74 180 -192v-19h-134v18c0 44 -13 74 -51 74c-45 0 -58 -40 -58 -101v-60c20 26 52 43 98 43c98 0 152 -74 152 -198c0 -125 -58 -211 -194 -211c-147 0 -199 107 -199 286v71c0 181 55 289 206 289zM154 203c0 -61 16 -93 55 -93s55 32 55 93
s-16 93 -55 93s-55 -32 -55 -93z" />
    <glyph glyph-name="seven" unicode="7" horiz-adv-x="367" 
d="M214 498h-209v132h357v-115c-113 -151 -120 -308 -120 -515h-161c3 210 32 359 133 498z" />
    <glyph glyph-name="eight" unicode="8" horiz-adv-x="408" 
d="M204 367c36 0 51 26 51 79c0 54 -15 79 -51 79s-51 -25 -51 -79c0 -53 15 -79 51 -79zM204 106c34 0 51 21 51 78s-17 79 -51 79s-51 -22 -51 -79s17 -78 51 -78zM204 -8c-133 0 -192 68 -192 183c0 79 31 124 81 141c-50 17 -79 64 -79 139c0 115 57 183 190 183
s190 -68 190 -183c0 -75 -32 -122 -82 -139c50 -17 84 -62 84 -141c0 -115 -59 -183 -192 -183z" />
    <glyph glyph-name="nine" unicode="9" horiz-adv-x="417" 
d="M199 -8c-118 0 -180 74 -180 192v19h134v-18c0 -44 13 -74 51 -74c45 0 58 40 58 101v60c-20 -26 -52 -43 -98 -43c-98 0 -152 74 -152 198c0 125 58 211 194 211c147 0 199 -107 199 -286v-71c0 -181 -55 -289 -206 -289zM263 427c0 61 -16 93 -55 93s-55 -32 -55 -93
s16 -93 55 -93s55 32 55 93z" />
    <glyph glyph-name="colon" unicode=":" horiz-adv-x="179" 
d="M18 0v143h143v-143h-143zM18 279v143h143v-143h-143z" />
    <glyph glyph-name="semicolon" unicode=";" horiz-adv-x="179" 
d="M18 0v143h143v-135c0 -86 -46 -129 -143 -131v66c41 1 63 18 63 57h-63zM18 279v143h143v-143h-143z" />
    <glyph glyph-name="less" unicode="&#x3c;" horiz-adv-x="336" 
d="M22 235v131l286 121v-110l-199 -76l199 -77v-110z" />
    <glyph glyph-name="equal" unicode="=" horiz-adv-x="451" 
d="M38 185v85h375v-85h-375zM38 337v88h375v-88h-375z" />
    <glyph glyph-name="greater" unicode="&#x3e;" horiz-adv-x="336" 
d="M314 366v-131l-285 -121v110l198 77l-198 76v110z" />
    <glyph glyph-name="question" unicode="?" 
d="M312 291c-36 -45 -51 -64 -52 -93h-132c2 51 13 76 53 131c35 48 64 89 64 139c0 27 -11 54 -46 54c-39 0 -47 -34 -47 -75v-52h-140v40c0 120 60 203 187 203c126 0 189 -64 189 -179c0 -74 -37 -119 -76 -168zM123 143h142v-143h-142v143z" />
    <glyph glyph-name="at" unicode="@" horiz-adv-x="625" 
d="M460 112c43 0 62 67 62 162c0 131 -56 208 -180 208c-146 0 -235 -118 -235 -308c0 -157 86 -229 200 -229c60 0 109 13 162 46l18 -68c-52 -40 -114 -57 -181 -57c-160 0 -286 104 -286 308c0 233 132 389 322 389c167 0 264 -120 264 -289c0 -166 -75 -242 -165 -242
c-49 0 -78 23 -93 60c-19 -41 -48 -60 -89 -60c-61 0 -103 52 -103 143c0 112 56 217 138 217c43 0 63 -23 74 -55l11 47h98l-43 -222c-7 -33 2 -50 26 -50zM340 203l3 16c9 50 3 76 -21 76c-30 0 -51 -55 -51 -118c0 -28 8 -48 28 -48c21 0 31 19 41 74z" />
    <glyph glyph-name="A" unicode="A" horiz-adv-x="447" 
d="M136 630h175l136 -630h-146l-21 112h-124l-22 -112h-134zM218 431l-41 -208h83l-38 208h-4z" />
    <glyph glyph-name="B" unicode="B" horiz-adv-x="419" 
d="M408 174c0 -110 -59 -174 -190 -174h-196v630h195c128 0 179 -68 179 -167c0 -78 -46 -130 -108 -140c75 -15 120 -66 120 -149zM202 263h-37v-145h37c51 0 65 26 65 72c0 44 -14 73 -65 73zM165 513v-139h33c50 0 62 29 62 68c0 40 -12 71 -62 71h-33z" />
    <glyph glyph-name="C" unicode="C" horiz-adv-x="418" 
d="M163 427v-224c0 -56 7 -92 50 -92s50 36 50 92v68h143v-29c0 -147 -47 -250 -190 -250c-147 0 -204 99 -204 280v86c0 181 57 280 204 280c143 0 190 -103 190 -250v-29h-143v68c0 56 -7 92 -50 92s-50 -36 -50 -92z" />
    <glyph glyph-name="D" unicode="D" horiz-adv-x="431" 
d="M269 214v202c0 62 -21 98 -73 98h-27v-398h27c52 0 73 36 73 98zM419 365v-100c0 -168 -64 -265 -205 -265h-192v630h192c141 0 205 -97 205 -265z" />
    <glyph glyph-name="E" unicode="E" horiz-adv-x="357" 
d="M341 121v-121h-319v630h319v-121h-175v-129h130v-120h-130v-139h175z" />
    <glyph glyph-name="F" unicode="F" horiz-adv-x="341" 
d="M169 0h-147v630h307v-121h-160v-146h117v-119h-117v-244z" />
    <glyph glyph-name="G" unicode="G" horiz-adv-x="430" 
d="M410 0h-98l-11 56c-16 -43 -61 -64 -111 -64c-125 0 -178 99 -178 280v86c0 181 59 280 203 280c143 0 195 -90 195 -237v-16h-143v42c0 56 -9 92 -52 92s-52 -36 -52 -92v-221c0 -56 12 -92 54 -92c43 0 54 36 54 92v9h-46v110h185v-325z" />
    <glyph glyph-name="H" unicode="H" horiz-adv-x="442" 
d="M169 0h-147v630h147v-250h104v250h147v-630h-147v260h-104v-260z" />
    <glyph glyph-name="I" unicode="I" horiz-adv-x="191" 
d="M22 630h147v-630h-147v630z" />
    <glyph glyph-name="J" unicode="J" horiz-adv-x="415" 
d="M10 205v55h144v-61c0 -51 7 -86 47 -86c37 0 43 35 43 86v431h151v-426c0 -125 -52 -212 -194 -212c-144 0 -191 87 -191 213z" />
    <glyph glyph-name="K" unicode="K" horiz-adv-x="424" 
d="M424 0h-154l-65 226l-36 -95v-131h-147v630h147v-288l104 288h151l-108 -273z" />
    <glyph glyph-name="L" unicode="L" horiz-adv-x="351" 
d="M22 630h147v-509h170v-121h-317v630z" />
    <glyph glyph-name="M" unicode="M" horiz-adv-x="549" 
d="M211 630l67 -320h4l60 320h185v-630h-136v359h-4l-69 -359h-92l-71 359h-4v-359h-129v630h189z" />
    <glyph glyph-name="N" unicode="N" horiz-adv-x="440" 
d="M282 340v290h136v-630h-111l-145 325h-4v-325h-136v630h134l122 -290h4z" />
    <glyph glyph-name="O" unicode="O" horiz-adv-x="432" 
d="M420 354v-78c0 -181 -57 -284 -204 -284s-204 103 -204 284v78c0 181 57 284 204 284s204 -103 204 -284zM164 425v-220c0 -56 9 -94 52 -94s52 38 52 94v220c0 56 -9 94 -52 94s-52 -38 -52 -94z" />
    <glyph glyph-name="P" unicode="P" horiz-adv-x="412" 
d="M168 326h15c61 0 78 24 78 92s-17 94 -78 94h-15v-186zM168 207v-207h-146v630h178c138 0 203 -76 203 -211s-65 -212 -203 -212h-32z" />
    <glyph glyph-name="Q" unicode="Q" horiz-adv-x="432" 
d="M420 354v-78c0 -142 -35 -236 -121 -270l61 -83h-148l-53 76c-105 24 -147 121 -147 277v78c0 181 57 284 204 284s204 -103 204 -284zM164 425v-220c0 -56 9 -94 52 -94s52 38 52 94v220c0 56 -9 94 -52 94s-52 -38 -52 -94z" />
    <glyph glyph-name="R" unicode="R" horiz-adv-x="419" 
d="M409 0h-145c-8 24 -10 61 -14 137c-3 60 -18 91 -64 91h-19v-228h-145v630h181c141 0 204 -74 204 -186c0 -99 -45 -148 -109 -159c66 -15 88 -62 93 -141c5 -83 4 -115 18 -144zM167 344h14c59 0 82 19 82 83c0 57 -23 85 -82 85h-14v-168z" />
    <glyph glyph-name="S" unicode="S" horiz-adv-x="393" 
d="M8 213h129v-25c0 -47 20 -78 59 -78c34 0 52 19 52 54c0 36 -23 50 -61 71l-53 29c-67 37 -125 82 -125 190c0 112 73 184 181 184c115 0 181 -66 181 -195v-25h-129v26c0 51 -16 76 -52 76c-31 0 -47 -22 -47 -56c0 -32 18 -52 48 -68l59 -32c83 -45 133 -89 133 -187
c0 -122 -75 -185 -187 -185s-188 62 -188 197v24z" />
    <glyph glyph-name="T" unicode="T" horiz-adv-x="413" 
d="M278 0h-146v509h-120v121h389v-121h-123v-509z" />
    <glyph glyph-name="U" unicode="U" horiz-adv-x="444" 
d="M222 -9c-155 0 -202 92 -202 234v405h151v-417c0 -64 6 -101 51 -101s51 37 51 101v417h151v-405c0 -142 -47 -234 -202 -234z" />
    <glyph glyph-name="V" unicode="V" horiz-adv-x="433" 
d="M294 0h-155l-139 630h151l71 -364h4l71 364h136z" />
    <glyph glyph-name="W" unicode="W" horiz-adv-x="590" 
d="M406 307l50 323h134l-109 -630h-138l-46 308h-4l-46 -308h-138l-109 630h140l50 -323h4l50 323h108l50 -323h4z" />
    <glyph glyph-name="X" unicode="X" horiz-adv-x="434" 
d="M427 630l-131 -301l138 -329h-157l-64 174l-66 -174h-147l138 317l-131 313h157l57 -158l59 158h147z" />
    <glyph glyph-name="Y" unicode="Y" horiz-adv-x="437" 
d="M225 398l67 232h145l-147 -409v-221h-143v221l-147 409h152z" />
    <glyph glyph-name="Z" unicode="Z" horiz-adv-x="383" 
d="M178 121h189v-121h-351v110l187 399h-184v121h341v-113z" />
    <glyph glyph-name="bracketleft" unicode="[" horiz-adv-x="193" 
d="M138 562v-548h45v-98h-161v744h161v-98h-45z" />
    <glyph glyph-name="backslash" unicode="\" horiz-adv-x="226" 
d="M131 659l100 -742h-121l-100 742h121z" />
    <glyph glyph-name="bracketright" unicode="]" horiz-adv-x="193" 
d="M55 14v548h-45v98h161v-744h-161v98h45z" />
    <glyph glyph-name="asciicircum" unicode="^" horiz-adv-x="348" 
d="M103 630h142l103 -210h-130l-44 109l-44 -109h-130z" />
    <glyph glyph-name="underscore" unicode="_" horiz-adv-x="301" 
d="M15 -151v123h271v-123h-271z" />
    <glyph glyph-name="quoteleft" unicode="&#x2018;" horiz-adv-x="179" 
d="M161 513v-128h-143v121c0 86 45 124 143 127v-67c-43 -1 -64 -14 -65 -53h65z" />
    <glyph glyph-name="a" unicode="a" horiz-adv-x="377" 
d="M204 149v43l-26 -17c-23 -14 -39 -25 -39 -50c0 -19 11 -30 29 -30c25 0 36 23 36 54zM340 294v-181c0 -13 3 -19 15 -19c6 0 9 1 17 3v-83c-18 -12 -40 -21 -71 -21c-41 0 -73 18 -87 56c-15 -34 -52 -56 -97 -56c-74 0 -111 47 -111 109c0 72 50 105 124 145l74 40v15
c0 26 -4 44 -27 44s-28 -20 -28 -44v-21h-129v24c0 88 50 149 161 149c107 0 159 -54 159 -160z" />
    <glyph glyph-name="b" unicode="b" horiz-adv-x="393" 
d="M161 275v-104c0 -38 9 -60 38 -60c24 0 36 20 36 60v104c0 40 -12 60 -36 60c-29 0 -38 -22 -38 -60zM161 630v-234c14 32 48 58 94 58c93 0 123 -81 123 -198v-66c0 -117 -30 -198 -123 -198c-46 0 -80 26 -94 58l-10 -50h-130v630h140z" />
    <glyph glyph-name="c" unicode="c" horiz-adv-x="360" 
d="M152 276v-106c0 -43 6 -70 37 -70c29 0 33 32 33 72v24h129v-15c0 -118 -54 -189 -162 -189c-117 0 -177 77 -177 220v22c0 143 60 220 177 220c108 0 162 -71 162 -189v-15h-129v24c0 40 -4 72 -33 72c-31 0 -37 -27 -37 -70z" />
    <glyph glyph-name="d" unicode="d" horiz-adv-x="393" 
d="M232 171v104c0 38 -9 60 -38 60c-24 0 -36 -20 -36 -60v-104c0 -40 12 -60 36 -60c29 0 38 22 38 60zM232 396v234h140v-630h-140v50c-14 -32 -48 -58 -94 -58c-93 0 -123 81 -123 198v66c0 117 30 198 123 198c46 0 80 -26 94 -58z" />
    <glyph glyph-name="e" unicode="e" horiz-adv-x="370" 
d="M223 270c0 51 -6 77 -35 77c-30 0 -37 -26 -37 -77h72zM12 212v22c0 127 49 220 176 220c126 0 170 -92 170 -219v-46h-207v-20c0 -43 7 -70 39 -70c26 0 36 18 36 51v10h129v-7c0 -95 -59 -161 -163 -161c-122 0 -180 78 -180 220z" />
    <glyph glyph-name="f" unicode="f" horiz-adv-x="241" 
d="M254 626l-8 -101c-13 5 -21 7 -35 7c-26 0 -31 -15 -31 -37v-49h57v-97h-57v-349h-139v349h-41v97h41v48c0 88 46 144 140 144c34 0 55 -5 73 -12z" />
    <glyph glyph-name="g" unicode="g" horiz-adv-x="370" 
d="M177 150c-18 0 -34 2 -50 6c-3 -5 -4 -10 -4 -16c0 -16 9 -26 35 -26h73c92 0 147 -45 147 -126c0 -111 -92 -156 -207 -156c-96 0 -178 33 -178 106c0 45 33 67 71 77c-33 11 -53 41 -53 78c0 40 25 68 61 86c-37 25 -61 65 -61 118v11c0 93 74 146 166 146
c37 0 74 -10 103 -29c21 33 55 59 90 59v-116c-12 0 -25 -2 -38 -5c7 -16 11 -35 11 -55v-11c0 -93 -74 -147 -166 -147zM105 -40c0 -25 29 -39 68 -39c49 0 78 12 78 40c0 19 -16 28 -38 28h-72c-24 0 -36 -11 -36 -29zM177 247c24 0 31 21 31 48v15c0 27 -7 48 -31 48
s-31 -21 -31 -48v-15c0 -27 7 -48 31 -48z" />
    <glyph glyph-name="h" unicode="h" horiz-adv-x="390" 
d="M161 273v-273h-140v630h140v-234c14 33 51 58 100 58c82 0 108 -62 108 -119v-335h-140v294c0 27 -9 41 -30 41c-28 0 -38 -27 -38 -62z" />
    <glyph glyph-name="i" unicode="i" horiz-adv-x="182" 
d="M21 446h140v-446h-140v446zM21 490v140h140v-140h-140z" />
    <glyph glyph-name="j" unicode="j" horiz-adv-x="182" 
d="M161 446v-485c0 -83 -41 -129 -122 -129c-33 0 -61 6 -85 20l11 89c10 -5 19 -7 28 -7c22 0 28 10 28 30v482h140zM21 490v140h140v-140h-140z" />
    <glyph glyph-name="k" unicode="k" horiz-adv-x="389" 
d="M161 103v-103h-140v630h140v-365l97 181h129l-95 -184l97 -262h-146l-57 155z" />
    <glyph glyph-name="l" unicode="l" horiz-adv-x="182" 
d="M21 630h140v-630h-140v630z" />
    <glyph glyph-name="m" unicode="m" horiz-adv-x="592" 
d="M431 0v293c0 27 -10 42 -29 42c-29 0 -36 -27 -36 -62v-273h-140v293c0 27 -10 42 -29 42c-29 0 -36 -27 -36 -62v-273h-140v446h140v-51c15 35 50 59 103 59c55 0 83 -27 94 -63c16 37 58 63 107 63c78 0 106 -52 106 -118v-336h-140z" />
    <glyph glyph-name="n" unicode="n" horiz-adv-x="390" 
d="M161 273v-273h-140v446h140v-50c14 33 51 58 100 58c82 0 108 -62 108 -119v-335h-140v294c0 27 -9 41 -30 41c-28 0 -38 -27 -38 -62z" />
    <glyph glyph-name="o" unicode="o" horiz-adv-x="378" 
d="M152 277v-108c0 -43 7 -69 37 -69s37 26 37 69v108c0 43 -7 69 -37 69s-37 -26 -37 -69zM366 234v-22c0 -127 -50 -220 -177 -220s-177 93 -177 220v22c0 127 50 220 177 220s177 -93 177 -220z" />
    <glyph glyph-name="p" unicode="p" horiz-adv-x="393" 
d="M161 275v-104c0 -38 9 -60 38 -60c24 0 36 20 36 60v104c0 40 -12 60 -36 60c-29 0 -38 -22 -38 -60zM161 50v-210h-140v606h140v-50c14 32 48 58 94 58c93 0 123 -81 123 -198v-66c0 -117 -30 -198 -123 -198c-46 0 -80 26 -94 58z" />
    <glyph glyph-name="q" unicode="q" horiz-adv-x="393" 
d="M232 171v104c0 38 -9 60 -38 60c-24 0 -36 -20 -36 -60v-104c0 -40 12 -60 36 -60c29 0 38 22 38 60zM232 -160v210c-14 -32 -48 -58 -94 -58c-93 0 -123 81 -123 198v66c0 117 30 198 123 198c46 0 80 -26 94 -58v50h140v-606h-140z" />
    <glyph glyph-name="r" unicode="r" horiz-adv-x="286" 
d="M282 446l-3 -137c-14 5 -30 10 -55 10c-51 0 -63 -30 -63 -82v-237h-140v446h140v-61c13 48 45 67 87 67c15 0 26 -3 34 -6z" />
    <glyph glyph-name="s" unicode="s" horiz-adv-x="335" 
d="M5 149h119v-9c0 -27 14 -45 42 -45c19 0 29 9 29 26c0 13 -6 22 -27 31l-57 24c-60 24 -104 62 -104 137c0 82 59 141 156 141c100 0 156 -55 156 -144v-13h-120v8c0 28 -6 46 -33 46c-17 0 -27 -11 -27 -26c0 -12 8 -23 22 -29l66 -29c56 -25 101 -60 101 -136
c0 -88 -63 -139 -160 -139c-101 0 -163 52 -163 143v14z" />
    <glyph glyph-name="t" unicode="t" horiz-adv-x="254" 
d="M34 104v245h-34v86l13 2c42 7 51 32 60 74l12 55h84v-120h71v-97h-71v-206c0 -25 10 -36 30 -36c16 0 26 3 50 15v-97c-34 -22 -64 -31 -105 -31c-65 0 -110 29 -110 110z" />
    <glyph glyph-name="u" unicode="u" horiz-adv-x="387" 
d="M226 173v273h140v-446h-140v50c-14 -33 -49 -58 -98 -58c-82 0 -107 62 -107 119v335h140v-294c0 -27 8 -41 29 -41c28 0 36 27 36 62z" />
    <glyph glyph-name="v" unicode="v" horiz-adv-x="369" 
d="M252 0h-134l-118 446h135l54 -229h4l52 229h124z" />
    <glyph glyph-name="w" unicode="w" horiz-adv-x="538" 
d="M330 446l40 -221h4l44 221h120l-97 -446h-129l-41 250h-4l-41 -250h-129l-97 446h131l45 -222h4l39 222h111z" />
    <glyph glyph-name="x" unicode="x" horiz-adv-x="390" 
d="M389 446l-124 -216l129 -230h-145l-58 111l-58 -111h-137l128 223l-123 223h145l53 -110l53 110h137z" />
    <glyph glyph-name="y" unicode="y" horiz-adv-x="376" 
d="M123 -16l-123 462h137l55 -242h4l58 242h122l-161 -606h-132z" />
    <glyph glyph-name="z" unicode="z" horiz-adv-x="328" 
d="M161 344h-142v102h290v-95l-145 -249h149v-102h-298v96z" />
    <glyph glyph-name="braceleft" unicode="{" horiz-adv-x="233" 
d="M15 239v98h9c30 0 37 14 37 44v151c0 86 46 128 121 128h41v-98h-21c-17 0 -20 -11 -20 -30v-130c0 -68 -21 -104 -82 -114c61 -10 82 -46 82 -114v-130c0 -19 3 -30 20 -30h21v-98h-41c-75 0 -121 42 -121 128v151c0 30 -7 44 -37 44h-9z" />
    <glyph glyph-name="bar" unicode="|" horiz-adv-x="163" 
d="M22 -83v742h119v-742h-119z" />
    <glyph glyph-name="braceright" unicode="}" horiz-adv-x="233" 
d="M218 337v-98h-9c-30 0 -37 -14 -37 -44v-151c0 -86 -46 -128 -121 -128h-41v98h21c17 0 20 11 20 30v130c0 68 21 104 82 114c-61 10 -82 46 -82 114v130c0 19 -3 30 -20 30h-21v98h41c75 0 121 -42 121 -128v-151c0 -30 7 -44 37 -44h9z" />
    <glyph glyph-name="asciitilde" unicode="~" horiz-adv-x="364" 
d="M97 204h-82c0 93 34 159 99 159c50 0 80 -41 117 -41c17 0 33 9 36 38h82c0 -94 -34 -160 -99 -160c-50 0 -80 41 -117 41c-17 0 -33 -9 -36 -37z" />
    <glyph glyph-name="exclamdown" unicode="&#xa1;" horiz-adv-x="188" 
d="M165 375h-142v143h142v-143zM51 320h86l33 -266v-166h-152v166z" />
    <glyph glyph-name="cent" unicode="&#xa2;" horiz-adv-x="371" 
d="M166 -55v52c-100 10 -154 83 -154 215v22c0 131 54 204 154 215v58h49v-58c94 -9 144 -75 144 -184v-15h-111v28c0 33 -6 63 -33 73v-256c27 9 33 40 33 73v28h111v-15c0 -110 -50 -176 -144 -184v-52h-49zM135 280v-114c0 -33 6 -60 31 -70v253c-25 -10 -31 -36 -31 -69
z" />
    <glyph glyph-name="sterling" unicode="&#xa3;" horiz-adv-x="464" 
d="M218 445c0 -35 9 -62 19 -89h89v-90h-59c3 -17 5 -36 5 -57c0 -27 -4 -53 -10 -76c14 -6 29 -10 45 -10c43 0 58 24 58 90h86c31 -163 -36 -221 -116 -221c-53 0 -91 22 -121 49c-28 -31 -63 -49 -100 -49c-63 0 -109 40 -109 111c0 61 45 103 104 103c16 0 31 -4 45 -10
c-1 28 -5 50 -12 70h-94v90h50c-11 26 -19 58 -19 101c0 107 70 181 177 181c122 0 180 -72 180 -212h-123c0 54 -14 82 -52 82c-28 0 -43 -20 -43 -63zM113 76c14 0 24 13 31 35c-11 10 -22 16 -33 16c-14 0 -23 -9 -23 -26c0 -16 10 -25 25 -25z" />
    <glyph glyph-name="fraction" unicode="&#x2044;" horiz-adv-x="413" 
d="M0 0l323 630h90l-323 -630h-90z" />
    <glyph glyph-name="yen" unicode="&#xa5;" horiz-adv-x="429" 
d="M47 249v90h65l-112 291h148l73 -222l67 222h141l-113 -291h66v-90h-100v-44h100v-90h-100v-115h-135v115h-100v90h100v44h-100z" />
    <glyph glyph-name="florin" unicode="&#x192;" horiz-adv-x="357" 
d="M257 429l-9 -56h67v-117h-85l-37 -235c-17 -108 -75 -155 -159 -155c-14 0 -29 2 -44 5v117c7 -2 13 -2 19 -2c39 0 46 32 55 86l29 184h-56v117h75l17 107c17 107 72 158 156 158c17 0 34 -3 52 -8v-117c-7 1 -13 2 -19 2c-40 0 -52 -33 -61 -86z" />
    <glyph glyph-name="section" unicode="&#xa7;" horiz-adv-x="417" 
d="M394 245c0 -46 -20 -89 -48 -117c11 -19 18 -43 18 -73c0 -87 -61 -150 -159 -150c-102 0 -161 57 -168 149l104 4c5 -31 26 -51 61 -51c25 0 44 14 44 39c0 15 -7 29 -32 41l-82 40c-74 36 -115 85 -115 171c0 45 20 89 48 116c-12 20 -18 44 -18 74
c0 87 61 150 159 150c102 0 161 -57 168 -149l-104 -4c-5 31 -26 51 -61 51c-25 0 -44 -14 -44 -39c0 -15 7 -29 32 -41l82 -40c74 -36 115 -85 115 -171zM152 338c-5 2 -9 5 -14 8c-5 -7 -10 -18 -10 -32c0 -24 7 -34 33 -50l98 -59l13 -8c6 7 11 18 11 32
c0 24 -7 34 -33 50z" />
    <glyph glyph-name="quotesingle" unicode="'" horiz-adv-x="173" 
d="M25 394v236h123v-236h-123z" />
    <glyph glyph-name="quotedblleft" unicode="&#x201c;" horiz-adv-x="344" 
d="M161 513v-128h-143v121c0 86 45 124 143 127v-67c-43 -1 -64 -14 -65 -53h65zM326 513v-128h-143v121c0 86 45 124 143 127v-67c-43 -1 -64 -14 -65 -53h65z" />
    <glyph glyph-name="guillemotleft" unicode="&#xab;" horiz-adv-x="420" 
d="M20 154v144l179 125v-136l-82 -61l82 -61v-136zM221 154v144l179 125v-136l-82 -61l82 -61v-136z" />
    <glyph glyph-name="guilsinglleft" unicode="&#x2039;" horiz-adv-x="219" 
d="M20 154v144l179 125v-136l-82 -61l82 -61v-136z" />
    <glyph glyph-name="guilsinglright" unicode="&#x203a;" horiz-adv-x="219" 
d="M199 298v-144l-179 -125v136l82 61l-82 61v136z" />
    <glyph glyph-name="endash" unicode="&#x2013;" horiz-adv-x="266" 
d="M18 207v95h230v-95h-230z" />
    <glyph glyph-name="dagger" unicode="&#x2020;" horiz-adv-x="278" 
d="M10 465v88h84v77h91v-77h83v-88h-83v-165h-91v165h-84z" />
    <glyph glyph-name="daggerdbl" unicode="&#x2021;" horiz-adv-x="288" 
d="M15 359v79h86v54h-86v79h86v59h86v-59h86v-79h-86v-54h86v-79h-86v-59h-86v59h-86z" />
    <glyph glyph-name="periodcentered" unicode="&#xb7;" horiz-adv-x="183" 
d="M20 170v143h143v-143h-143z" />
    <glyph glyph-name="paragraph" unicode="&#xb6;" horiz-adv-x="440" 
d="M175 0v301c-97 0 -165 61 -165 165c0 103 68 164 165 164h243v-630h-99v527h-45v-527h-99z" />
    <glyph glyph-name="bullet" unicode="&#x2022;" horiz-adv-x="380" 
d="M360 259c0 -101 -76 -170 -170 -170s-170 69 -170 170s76 170 170 170s170 -69 170 -170z" />
    <glyph glyph-name="quotesinglbase" unicode="&#x201a;" horiz-adv-x="179" 
d="M18 0v128h143v-121c0 -86 -45 -124 -143 -127v67c43 1 64 14 65 53h-65z" />
    <glyph glyph-name="quotedblbase" unicode="&#x201e;" horiz-adv-x="344" 
d="M183 0v128h143v-121c0 -86 -45 -124 -143 -127v67c43 1 64 14 65 53h-65zM18 0v128h143v-121c0 -86 -45 -124 -143 -127v67c43 1 64 14 65 53h-65z" />
    <glyph glyph-name="quotedblright" unicode="&#x201d;" horiz-adv-x="344" 
d="M183 502v128h143v-121c0 -86 -45 -124 -143 -127v67c43 1 64 14 65 53h-65zM18 502v128h143v-121c0 -86 -45 -124 -143 -127v67c43 1 64 14 65 53h-65z" />
    <glyph glyph-name="guillemotright" unicode="&#xbb;" horiz-adv-x="420" 
d="M199 298v-144l-179 -125v136l82 61l-82 61v136zM400 298v-144l-179 -125v136l82 61l-82 61v136z" />
    <glyph glyph-name="ellipsis" unicode="&#x2026;" horiz-adv-x="517" 
d="M18 0v143h143v-143h-143zM187 0v143h143v-143h-143zM356 0v143h143v-143h-143z" />
    <glyph glyph-name="perthousand" unicode="&#x2030;" horiz-adv-x="866" 
d="M119 492c0 -38 10 -59 32 -59s32 21 32 59s-10 59 -32 59s-32 -21 -32 -59zM282 492c0 -93 -57 -149 -131 -149s-131 56 -131 149s57 149 131 149s131 -56 131 -149zM72 0l355 630h93l-355 -630h-93zM405 138c0 -44 12 -66 36 -66c25 0 36 22 36 66c0 43 -11 66 -36 66
c-24 0 -36 -23 -36 -66zM572 138c0 -93 -57 -149 -131 -149s-131 56 -131 149s57 149 131 149s131 -56 131 -149zM679 138c0 -44 12 -66 36 -66c25 0 36 22 36 66c0 43 -11 66 -36 66c-24 0 -36 -23 -36 -66zM846 138c0 -93 -57 -149 -131 -149s-131 56 -131 149
s57 149 131 149s131 -56 131 -149z" />
    <glyph glyph-name="questiondown" unicode="&#xbf;" 
d="M88 227c36 45 51 64 52 93h132c-2 -51 -13 -76 -53 -131c-35 -48 -64 -89 -64 -139c0 -27 11 -54 46 -54c39 0 47 34 47 75v52h140v-40c0 -120 -60 -203 -187 -203c-126 0 -189 64 -189 179c0 74 37 119 76 168zM277 375h-142v143h142v-143z" />
    <glyph glyph-name="grave" unicode="`" 
d="M295 483h-98l-93 143h142z" />
    <glyph glyph-name="acute" unicode="&#xb4;" 
d="M203 483h-99l50 143h141z" />
    <glyph glyph-name="circumflex" unicode="&#x2c6;" 
d="M136 616h128l61 -138h-89l-36 60l-36 -60h-89z" />
    <glyph glyph-name="tilde" unicode="&#x2dc;" 
d="M153 481h-70c0 82 18 138 72 138c42 0 73 -37 103 -37c14 0 20 12 22 34h70c0 -82 -18 -138 -72 -138c-42 0 -73 37 -103 37c-14 0 -20 -12 -22 -34z" />
    <glyph glyph-name="macron" unicode="&#xaf;" 
d="M96 488v96h208v-96h-208z" />
    <glyph glyph-name="breve" unicode="&#x2d8;" 
d="M199 474c-82 0 -120 60 -120 138h87c0 -35 13 -48 33 -48s33 13 33 48h87c0 -78 -38 -138 -120 -138z" />
    <glyph glyph-name="dotaccent" unicode="&#x2d9;" 
d="M130 490v140h139v-140h-139z" />
    <glyph glyph-name="dieresis" unicode="&#xa8;" 
d="M77 482v129h111v-129h-111zM212 482v129h111v-129h-111z" />
    <glyph glyph-name="ring" unicode="&#x2da;" 
d="M163 563c0 -22 12 -37 36 -37c25 0 37 15 37 37c0 21 -12 36 -37 36c-24 0 -36 -15 -36 -36zM104 563c0 52 38 91 95 91c58 0 96 -39 96 -91c0 -53 -38 -92 -96 -92c-57 0 -95 39 -95 92z" />
    <glyph glyph-name="cedilla" unicode="&#xb8;" 
d="M279 -97c0 -55 -41 -78 -92 -78c-36 0 -72 13 -92 31l17 56c17 -14 42 -27 65 -27c16 0 24 6 24 18c0 18 -27 25 -69 25l39 83h47l-17 -36c41 -3 78 -22 78 -72z" />
    <glyph glyph-name="hungarumlaut" unicode="&#x2dd;" 
d="M146 483h-80l33 147h123zM282 483h-80l33 147h123z" />
    <glyph glyph-name="ogonek" unicode="&#x2db;" 
d="M186 12h78c-41 -41 -48 -53 -48 -74c0 -14 9 -21 22 -21c9 0 16 2 29 8v-75c-15 -11 -33 -17 -61 -17c-41 0 -77 22 -77 74c0 42 25 75 57 105z" />
    <glyph glyph-name="caron" unicode="&#x2c7;" 
d="M264 481h-128l-61 138h89l36 -60l36 60h89z" />
    <glyph glyph-name="emdash" unicode="&#x2014;" horiz-adv-x="388" 
d="M18 207v95h352v-95h-352z" />
    <glyph glyph-name="AE" unicode="&#xc6;" horiz-adv-x="592" 
d="M576 0h-304v122h-99l-32 -122h-141l177 630h399v-121h-160v-129h115v-120h-115v-139h160v-121zM272 484h-4l-66 -251h70v251z" />
    <glyph glyph-name="ordfeminine" unicode="&#xaa;" horiz-adv-x="249" 
d="M134 454v23l-17 -10c-14 -10 -24 -16 -24 -30c0 -10 7 -16 17 -16c17 0 24 14 24 33zM218 538v-108c0 -8 3 -12 10 -12c4 0 6 1 11 2v-50c-11 -8 -25 -13 -45 -13c-25 0 -45 11 -54 34c-9 -20 -33 -34 -61 -34c-46 0 -69 29 -69 66c0 44 32 65 78 89l46 24v5
c0 15 -2 27 -17 27s-18 -12 -18 -27v-10h-81v14c0 53 32 90 102 90c66 0 98 -32 98 -97z" />
    <glyph glyph-name="Lslash" unicode="&#x141;" horiz-adv-x="351" 
d="M4 202v121l28 12v295h147v-241l88 37v-121l-88 -37v-147h170v-121h-317v213z" />
    <glyph glyph-name="Oslash" unicode="&#xd8;" horiz-adv-x="432" 
d="M17 20l33 64c-26 48 -38 114 -38 192v78c0 181 57 284 204 284c43 0 79 -10 107 -28l21 39l71 -39l-34 -64c27 -49 39 -114 39 -192v-78c0 -181 -57 -284 -204 -284c-44 0 -79 10 -108 28l-20 -39zM158 427v-136l104 201c-9 18 -24 29 -46 29c-43 0 -58 -38 -58 -94z
M216 109c43 0 58 38 58 94v135l-105 -201c9 -18 24 -28 47 -28z" />
    <glyph glyph-name="OE" unicode="&#x152;" horiz-adv-x="582" 
d="M566 0h-349c-141 0 -205 97 -205 265v100c0 168 64 265 205 265h349v-121h-160v-129h115v-120h-115v-139h160v-121zM162 416v-202c0 -62 21 -98 73 -98h27v398h-27c-52 0 -73 -36 -73 -98z" />
    <glyph glyph-name="ordmasculine" unicode="&#xba;" horiz-adv-x="250" 
d="M149 466v60c0 25 -4 41 -24 41c-19 0 -24 -16 -24 -41v-60c0 -25 5 -41 24 -41c20 0 24 16 24 41zM12 490v12c0 77 32 133 113 133s113 -56 113 -133v-12c0 -77 -32 -133 -113 -133s-113 56 -113 133z" />
    <glyph glyph-name="ae" unicode="&#xe6;" horiz-adv-x="561" 
d="M262 45c-21 -33 -66 -53 -115 -53c-91 0 -141 50 -141 140c0 86 66 138 170 138h28v32c0 26 -4 44 -27 44s-28 -20 -28 -44v-21h-129v24c0 88 50 149 156 149c43 0 78 -13 104 -36c27 22 57 36 99 36c126 0 170 -92 170 -219v-46h-207v-20c0 -43 7 -70 39 -70
c26 0 36 18 36 51v10h129v-7c0 -95 -59 -161 -163 -161c-56 0 -97 18 -121 53zM168 97c25 0 36 21 36 52v40h-15c-38 0 -52 -24 -52 -52c0 -26 13 -40 31 -40zM379 347c-30 0 -37 -26 -37 -77h72c0 51 -6 77 -35 77z" />
    <glyph glyph-name="dotlessi" unicode="&#x131;" horiz-adv-x="182" 
d="M21 446h140v-446h-140v446z" />
    <glyph glyph-name="lslash" unicode="&#x142;" horiz-adv-x="214" 
d="M5 216v103l32 16v295h140v-234l32 16v-95l-32 -18v-299h-140v234z" />
    <glyph glyph-name="oslash" unicode="&#xf8;" horiz-adv-x="378" 
d="M16 19l30 46c-24 38 -34 89 -34 147v22c0 127 50 220 177 220c38 0 68 -8 93 -23l24 36l56 -40l-30 -46c24 -38 34 -89 34 -147v-22c0 -127 -50 -220 -177 -220c-38 0 -68 8 -93 23l-24 -37zM145 280v-62l75 116c-7 9 -18 15 -31 15c-30 0 -44 -26 -44 -69zM189 97
c30 0 44 26 44 69v61l-75 -116c7 -9 18 -14 31 -14z" />
    <glyph glyph-name="oe" unicode="&#x153;" horiz-adv-x="577" 
d="M189 454c42 0 75 -19 101 -41c26 24 62 41 105 41c126 0 170 -92 170 -219v-46h-207v-20c0 -43 7 -70 39 -70c26 0 36 18 36 51v10h129v-7c0 -95 -59 -161 -163 -161c-43 0 -79 14 -107 38c-24 -22 -62 -38 -103 -38c-127 0 -177 93 -177 220v22c0 127 50 220 177 220z
M152 277v-108c0 -43 7 -69 37 -69s37 26 37 69v108c0 43 -7 69 -37 69s-37 -26 -37 -69zM430 270c0 51 -6 77 -35 77c-30 0 -37 -26 -37 -77h72z" />
    <glyph glyph-name="germandbls" unicode="&#xdf;" 
d="M374 472c0 -59 -25 -112 -60 -130c46 -20 79 -72 79 -162c0 -116 -65 -184 -153 -184c-23 0 -41 3 -55 8v107c10 -3 17 -3 22 -3c41 0 57 36 57 84c0 50 -19 82 -57 82c-5 0 -12 0 -19 -2v125c7 -1 10 -1 19 -1c26 0 42 19 42 61c0 35 -12 63 -43 63
c-34 0 -45 -30 -45 -74v-446h-140v429c0 127 59 209 186 209c93 0 167 -58 167 -166z" />
    <glyph glyph-name="onesuperior" unicode="&#xb9;" horiz-adv-x="165" 
d="M11 534v55c30 0 51 12 57 41h68v-268h-84v172h-41z" />
    <glyph glyph-name="trademark" unicode="&#x2122;" horiz-adv-x="420" 
d="M119 411h-69v158h-40v61h151v-61h-42v-158zM305 411h-40l-30 132h-2v-132h-58v219h82l29 -121h2l27 121h83v-219h-61v132h-2z" />
    <glyph glyph-name="Eth" unicode="&#xd0;" horiz-adv-x="441" 
d="M4 260v120h28v250h192c141 0 205 -97 205 -265v-100c0 -168 -64 -265 -205 -265h-192v260h-28zM279 214v202c0 62 -21 98 -73 98h-27v-134h39v-120h-39v-144h27c52 0 73 36 73 98z" />
    <glyph glyph-name="onehalf" unicode="&#xbd;" horiz-adv-x="298" 
d="M63 534v55c30 0 51 12 57 41h68v-268h-84v172h-41zM202 110l-50 -42h89v-68h-198v59l76 71c28 26 40 35 40 53c0 13 -5 21 -16 21c-14 0 -21 -10 -21 -36v-8h-80v15c0 55 30 98 100 98c66 0 101 -31 101 -86c0 -28 -13 -54 -41 -77zM20 295v43h258v-43h-258z" />
    <glyph glyph-name="plusminus" unicode="&#xb1;" horiz-adv-x="437" 
d="M171 519h94v-98h132v-95h-132v-99h-94v99h-131v95h131v98zM40 93v95h357v-95h-357z" />
    <glyph glyph-name="Thorn" unicode="&#xde;" horiz-adv-x="412" 
d="M168 226h15c61 0 78 24 78 92s-17 94 -78 94h-15v-186zM168 107v-107h-146v630h146v-100h32c138 0 203 -76 203 -211s-65 -212 -203 -212h-32z" />
    <glyph glyph-name="onequarter" unicode="&#xbc;" horiz-adv-x="298" 
d="M63 534v55c30 0 51 12 57 41h68v-268h-84v172h-41zM223 268v-157h30v-63h-30v-48h-79v48h-121v62l111 158h89zM144 186l-52 -75h52v75zM20 295v43h258v-43h-258z" />
    <glyph glyph-name="divide" unicode="&#xf7;" horiz-adv-x="435" 
d="M30 254v96h375v-96h-375zM156 396v115h124v-115h-124zM156 93v115h124v-115h-124z" />
    <glyph glyph-name="degree" unicode="&#xb0;" horiz-adv-x="266" 
d="M256 520c0 -67 -53 -118 -123 -118s-123 51 -123 118s53 118 123 118s123 -51 123 -118zM172 520c0 23 -15 40 -39 40s-39 -17 -39 -40s15 -40 39 -40s39 17 39 40z" />
    <glyph glyph-name="thorn" unicode="&#xfe;" horiz-adv-x="393" 
d="M161 275v-104c0 -38 9 -60 38 -60c24 0 36 20 36 60v104c0 40 -12 60 -36 60c-29 0 -38 -22 -38 -60zM161 50v-210h-140v790h140v-234c14 32 48 58 94 58c93 0 123 -81 123 -198v-66c0 -117 -30 -198 -123 -198c-46 0 -80 26 -94 58z" />
    <glyph glyph-name="threequarters" unicode="&#xbe;" horiz-adv-x="298" 
d="M223 268v-157h30v-63h-30v-48h-79v48h-121v62l111 158h89zM144 186l-52 -75h52v75zM213 497c23 -9 38 -29 38 -58c0 -51 -37 -82 -102 -82c-64 0 -102 36 -102 94v13h76v-10c0 -20 10 -31 26 -31c14 0 22 8 22 25c0 13 -7 24 -23 24c-4 0 -10 0 -18 -1v52
c8 -1 14 -1 18 -1c13 0 21 9 21 25c0 14 -7 22 -22 22c-13 0 -23 -10 -23 -29v-10h-74v12c0 57 37 93 100 93c65 0 99 -34 99 -81c0 -30 -13 -51 -36 -57zM20 295v43h258v-43h-258z" />
    <glyph glyph-name="registered" unicode="&#xae;" horiz-adv-x="319" 
d="M234 385h-45c-4 6 -6 11 -7 30c-2 21 -9 24 -23 24h-17v-54h-44v175h75c39 0 59 -21 59 -56c0 -25 -14 -41 -32 -45c15 -3 24 -13 26 -33c2 -27 3 -34 8 -41zM142 479h18c17 0 25 6 25 19c0 14 -8 20 -25 20h-18v-39zM299 472c0 -100 -59 -165 -140 -165
c-80 0 -139 65 -139 165c0 101 59 166 139 166c81 0 140 -65 140 -166zM269 472c0 83 -44 138 -110 138c-65 0 -109 -55 -109 -138c0 -82 44 -137 109 -137c66 0 110 55 110 137z" />
    <glyph glyph-name="minus" unicode="&#x2212;" horiz-adv-x="435" 
d="M30 254v96h375v-96h-375z" />
    <glyph glyph-name="eth" unicode="&#xf0;" horiz-adv-x="378" 
d="M72 445l-24 68l67 24c-20 19 -43 37 -65 52l122 49c23 -17 45 -36 64 -56l82 30l24 -68l-58 -22c54 -82 82 -181 82 -280v-30c0 -127 -50 -220 -177 -220s-177 93 -177 220v22c0 116 53 196 154 196c16 0 32 -4 41 -10c-9 19 -22 39 -38 60zM152 254v-85
c0 -43 7 -69 37 -69s37 26 37 69v85c0 43 -7 69 -37 69s-37 -26 -37 -69z" />
    <glyph glyph-name="multiply" unicode="&#xd7;" horiz-adv-x="377" 
d="M124 301l-101 100l65 66l100 -101l101 101l65 -66l-100 -100l100 -100l-65 -65l-101 100l-100 -100l-65 65z" />
    <glyph glyph-name="threesuperior" unicode="&#xb3;" horiz-adv-x="226" 
d="M172 497c23 -9 38 -29 38 -58c0 -51 -37 -82 -102 -82c-64 0 -102 36 -102 94v13h76v-10c0 -20 10 -31 26 -31c14 0 22 8 22 25c0 13 -7 24 -23 24c-4 0 -10 0 -18 -1v52c8 -1 14 -1 18 -1c13 0 21 9 21 25c0 14 -7 22 -22 22c-13 0 -23 -10 -23 -29v-10h-74v12
c0 57 37 93 100 93c65 0 99 -34 99 -81c0 -30 -13 -51 -36 -57z" />
    <glyph glyph-name="copyright" unicode="&#xa9;" horiz-adv-x="587" 
d="M293 638c160 0 274 -136 274 -323s-114 -323 -274 -323c-159 0 -273 136 -273 323s114 323 273 323zM151 302v27c0 112 45 187 143 187c97 0 137 -67 137 -166v-10h-93v10c0 57 -12 82 -43 82c-29 0 -45 -25 -45 -82v-69c0 -57 16 -82 45 -82c31 0 43 25 43 82v10h93v-10
c0 -99 -40 -166 -137 -166c-98 0 -143 75 -143 187zM293 590c-136 0 -222 -115 -222 -275s86 -275 222 -275c137 0 223 115 223 275s-86 275 -223 275z" />
    <glyph glyph-name="Aacute" unicode="&#xc1;" horiz-adv-x="447" 
d="M136 630h175l136 -630h-146l-21 112h-124l-22 -112h-134zM271 661h-99l50 143h141zM218 431l-41 -208h83l-38 208h-4z" />
    <glyph glyph-name="Acircumflex" unicode="&#xc2;" horiz-adv-x="447" 
d="M136 630h175l136 -630h-146l-21 112h-124l-22 -112h-134zM159 794h128l61 -138h-89l-36 60l-36 -60h-89zM218 431l-41 -208h83l-38 208h-4z" />
    <glyph glyph-name="Adieresis" unicode="&#xc4;" horiz-adv-x="447" 
d="M136 630h175l136 -630h-146l-21 112h-124l-22 -112h-134zM100 660v129h111v-129h-111zM235 660v129h111v-129h-111zM218 431l-41 -208h83l-38 208h-4z" />
    <glyph glyph-name="Agrave" unicode="&#xc0;" horiz-adv-x="447" 
d="M136 630h175l136 -630h-146l-21 112h-124l-22 -112h-134zM279 661h-98l-93 143h142zM218 431l-41 -208h83l-38 208h-4z" />
    <glyph glyph-name="Aring" unicode="&#xc5;" horiz-adv-x="447" 
d="M136 630h175l136 -630h-146l-21 112h-124l-22 -112h-134zM128 737c0 52 38 91 95 91c58 0 96 -39 96 -91c0 -53 -38 -92 -96 -92c-57 0 -95 39 -95 92zM218 431l-41 -208h83l-38 208h-4zM187 737c0 -22 12 -37 36 -37c25 0 37 15 37 37c0 21 -12 36 -37 36
c-24 0 -36 -15 -36 -36z" />
    <glyph glyph-name="Atilde" unicode="&#xc3;" horiz-adv-x="447" 
d="M136 630h175l136 -630h-146l-21 112h-124l-22 -112h-134zM160 659h-70c0 82 18 138 72 138c42 0 73 -37 103 -37c14 0 20 12 22 34h70c0 -82 -18 -138 -72 -138c-42 0 -73 37 -103 37c-14 0 -20 -12 -22 -34zM218 431l-41 -208h83l-38 208h-4z" />
    <glyph glyph-name="Ccedilla" unicode="&#xc7;" horiz-adv-x="418" 
d="M315 -97c0 -55 -41 -78 -92 -78c-36 0 -72 13 -92 31l17 56c17 -14 42 -27 65 -27c16 0 24 6 24 18c0 18 -27 25 -69 25l30 65c-134 7 -186 105 -186 279v86c0 181 57 280 204 280c143 0 190 -103 190 -250v-29h-143v68c0 56 -7 92 -50 92s-50 -36 -50 -92v-224
c0 -56 7 -92 50 -92s50 36 50 92v68h143v-29c0 -137 -41 -235 -161 -248l-8 -19c41 -3 78 -22 78 -72z" />
    <glyph glyph-name="Eacute" unicode="&#xc9;" horiz-adv-x="357" 
d="M341 121v-121h-319v630h319v-121h-175v-129h130v-120h-130v-139h175zM229 661h-99l50 143h141z" />
    <glyph glyph-name="Ecircumflex" unicode="&#xca;" horiz-adv-x="357" 
d="M341 121v-121h-319v630h319v-121h-175v-129h130v-120h-130v-139h175zM117 794h128l61 -138h-89l-36 60l-36 -60h-89z" />
    <glyph glyph-name="Edieresis" unicode="&#xcb;" horiz-adv-x="357" 
d="M341 121v-121h-319v630h319v-121h-175v-129h130v-120h-130v-139h175zM58 660v129h111v-129h-111zM193 660v129h111v-129h-111z" />
    <glyph glyph-name="Egrave" unicode="&#xc8;" horiz-adv-x="357" 
d="M341 121v-121h-319v630h319v-121h-175v-129h130v-120h-130v-139h175zM237 661h-98l-93 143h142z" />
    <glyph glyph-name="Iacute" unicode="&#xcd;" horiz-adv-x="191" 
d="M22 630h147v-630h-147v630zM143 661h-99l50 143h141z" />
    <glyph glyph-name="Icircumflex" unicode="&#xce;" horiz-adv-x="191" 
d="M22 630h147v-630h-147v630zM31 794h128l61 -138h-89l-36 60l-36 -60h-89z" />
    <glyph glyph-name="Idieresis" unicode="&#xcf;" horiz-adv-x="191" 
d="M22 630h147v-630h-147v630zM-28 660v129h111v-129h-111zM107 660v129h111v-129h-111z" />
    <glyph glyph-name="Igrave" unicode="&#xcc;" horiz-adv-x="191" 
d="M22 630h147v-630h-147v630zM151 661h-98l-93 143h142z" />
    <glyph glyph-name="Ntilde" unicode="&#xd1;" horiz-adv-x="440" 
d="M282 340v290h136v-630h-111l-145 325h-4v-325h-136v630h134l122 -290h4zM157 659h-70c0 82 18 138 72 138c42 0 73 -37 103 -37c14 0 20 12 22 34h70c0 -82 -18 -138 -72 -138c-42 0 -73 37 -103 37c-14 0 -20 -12 -22 -34z" />
    <glyph glyph-name="Oacute" unicode="&#xd3;" horiz-adv-x="432" 
d="M420 354v-78c0 -181 -57 -284 -204 -284s-204 103 -204 284v78c0 181 57 284 204 284s204 -103 204 -284zM164 425v-220c0 -56 9 -94 52 -94s52 38 52 94v220c0 56 -9 94 -52 94s-52 -38 -52 -94zM264 661h-99l50 143h141z" />
    <glyph glyph-name="Ocircumflex" unicode="&#xd4;" horiz-adv-x="432" 
d="M420 354v-78c0 -181 -57 -284 -204 -284s-204 103 -204 284v78c0 181 57 284 204 284s204 -103 204 -284zM164 425v-220c0 -56 9 -94 52 -94s52 38 52 94v220c0 56 -9 94 -52 94s-52 -38 -52 -94zM152 794h128l61 -138h-89l-36 60l-36 -60h-89z" />
    <glyph glyph-name="Odieresis" unicode="&#xd6;" horiz-adv-x="432" 
d="M420 354v-78c0 -181 -57 -284 -204 -284s-204 103 -204 284v78c0 181 57 284 204 284s204 -103 204 -284zM164 425v-220c0 -56 9 -94 52 -94s52 38 52 94v220c0 56 -9 94 -52 94s-52 -38 -52 -94zM93 660v129h111v-129h-111zM228 660v129h111v-129h-111z" />
    <glyph glyph-name="Ograve" unicode="&#xd2;" horiz-adv-x="432" 
d="M420 354v-78c0 -181 -57 -284 -204 -284s-204 103 -204 284v78c0 181 57 284 204 284s204 -103 204 -284zM164 425v-220c0 -56 9 -94 52 -94s52 38 52 94v220c0 56 -9 94 -52 94s-52 -38 -52 -94zM272 661h-98l-93 143h142z" />
    <glyph glyph-name="Otilde" unicode="&#xd5;" horiz-adv-x="432" 
d="M420 354v-78c0 -181 -57 -284 -204 -284s-204 103 -204 284v78c0 181 57 284 204 284s204 -103 204 -284zM164 425v-220c0 -56 9 -94 52 -94s52 38 52 94v220c0 56 -9 94 -52 94s-52 -38 -52 -94zM153 659h-70c0 82 18 138 72 138c42 0 73 -37 103 -37c14 0 20 12 22 34
h70c0 -82 -18 -138 -72 -138c-42 0 -73 37 -103 37c-14 0 -20 -12 -22 -34z" />
    <glyph glyph-name="Scaron" unicode="&#x160;" horiz-adv-x="393" 
d="M8 213h129v-25c0 -47 20 -78 59 -78c34 0 52 19 52 54c0 36 -23 50 -61 71l-53 29c-67 37 -125 82 -125 190c0 112 73 184 181 184c115 0 181 -66 181 -195v-25h-129v26c0 51 -16 76 -52 76c-31 0 -47 -22 -47 -56c0 -32 18 -52 48 -68l59 -32c83 -45 133 -89 133 -187
c0 -122 -75 -185 -187 -185s-188 62 -188 197v24zM259 659h-128l-61 138h89l36 -60l36 60h89z" />
    <glyph glyph-name="Uacute" unicode="&#xda;" horiz-adv-x="444" 
d="M222 -9c-155 0 -202 92 -202 234v405h151v-417c0 -64 6 -101 51 -101s51 37 51 101v417h151v-405c0 -142 -47 -234 -202 -234zM270 661h-99l50 143h141z" />
    <glyph glyph-name="Ucircumflex" unicode="&#xdb;" horiz-adv-x="444" 
d="M222 -9c-155 0 -202 92 -202 234v405h151v-417c0 -64 6 -101 51 -101s51 37 51 101v417h151v-405c0 -142 -47 -234 -202 -234zM158 794h128l61 -138h-89l-36 60l-36 -60h-89z" />
    <glyph glyph-name="Udieresis" unicode="&#xdc;" horiz-adv-x="444" 
d="M222 -9c-155 0 -202 92 -202 234v405h151v-417c0 -64 6 -101 51 -101s51 37 51 101v417h151v-405c0 -142 -47 -234 -202 -234zM99 660v129h111v-129h-111zM234 660v129h111v-129h-111z" />
    <glyph glyph-name="Ugrave" unicode="&#xd9;" horiz-adv-x="444" 
d="M222 -9c-155 0 -202 92 -202 234v405h151v-417c0 -64 6 -101 51 -101s51 37 51 101v417h151v-405c0 -142 -47 -234 -202 -234zM278 661h-98l-93 143h142z" />
    <glyph glyph-name="Yacute" unicode="&#xdd;" horiz-adv-x="437" 
d="M225 398l67 232h145l-147 -409v-221h-143v221l-147 409h152zM266 661h-99l50 143h141z" />
    <glyph glyph-name="Ydieresis" unicode="&#x178;" horiz-adv-x="437" 
d="M225 398l67 232h145l-147 -409v-221h-143v221l-147 409h152zM95 660v129h111v-129h-111zM230 660v129h111v-129h-111z" />
    <glyph glyph-name="Zcaron" unicode="&#x17d;" horiz-adv-x="383" 
d="M178 121h189v-121h-351v110l187 399h-184v121h341v-113zM263 659h-128l-61 138h89l36 -60l36 60h89z" />
    <glyph glyph-name="aacute" unicode="&#xe1;" horiz-adv-x="377" 
d="M204 149v43l-26 -17c-23 -14 -39 -25 -39 -50c0 -19 11 -30 29 -30c25 0 36 23 36 54zM340 294v-181c0 -13 3 -19 15 -19c6 0 9 1 17 3v-83c-18 -12 -40 -21 -71 -21c-41 0 -73 18 -87 56c-15 -34 -52 -56 -97 -56c-74 0 -111 47 -111 109c0 72 50 105 124 145l74 40v15
c0 26 -4 44 -27 44s-28 -20 -28 -44v-21h-129v24c0 88 50 149 161 149c107 0 159 -54 159 -160zM235 483h-99l50 143h141z" />
    <glyph glyph-name="acircumflex" unicode="&#xe2;" horiz-adv-x="377" 
d="M204 149v43l-26 -17c-23 -14 -39 -25 -39 -50c0 -19 11 -30 29 -30c25 0 36 23 36 54zM340 294v-181c0 -13 3 -19 15 -19c6 0 9 1 17 3v-83c-18 -12 -40 -21 -71 -21c-41 0 -73 18 -87 56c-15 -34 -52 -56 -97 -56c-74 0 -111 47 -111 109c0 72 50 105 124 145l74 40v15
c0 26 -4 44 -27 44s-28 -20 -28 -44v-21h-129v24c0 88 50 149 161 149c107 0 159 -54 159 -160zM121 616h128l61 -138h-89l-36 60l-36 -60h-89z" />
    <glyph glyph-name="adieresis" unicode="&#xe4;" horiz-adv-x="377" 
d="M204 149v43l-26 -17c-23 -14 -39 -25 -39 -50c0 -19 11 -30 29 -30c25 0 36 23 36 54zM340 294v-181c0 -13 3 -19 15 -19c6 0 9 1 17 3v-83c-18 -12 -40 -21 -71 -21c-41 0 -73 18 -87 56c-15 -34 -52 -56 -97 -56c-74 0 -111 47 -111 109c0 72 50 105 124 145l74 40v15
c0 26 -4 44 -27 44s-28 -20 -28 -44v-21h-129v24c0 88 50 149 161 149c107 0 159 -54 159 -160zM62 482v129h111v-129h-111zM197 482v129h111v-129h-111z" />
    <glyph glyph-name="agrave" unicode="&#xe0;" horiz-adv-x="377" 
d="M204 149v43l-26 -17c-23 -14 -39 -25 -39 -50c0 -19 11 -30 29 -30c25 0 36 23 36 54zM340 294v-181c0 -13 3 -19 15 -19c6 0 9 1 17 3v-83c-18 -12 -40 -21 -71 -21c-41 0 -73 18 -87 56c-15 -34 -52 -56 -97 -56c-74 0 -111 47 -111 109c0 72 50 105 124 145l74 40v15
c0 26 -4 44 -27 44s-28 -20 -28 -44v-21h-129v24c0 88 50 149 161 149c107 0 159 -54 159 -160zM245 483h-98l-93 143h142z" />
    <glyph glyph-name="aring" unicode="&#xe5;" horiz-adv-x="377" 
d="M204 149v43l-26 -17c-23 -14 -39 -25 -39 -50c0 -19 11 -30 29 -30c25 0 36 23 36 54zM340 294v-181c0 -13 3 -19 15 -19c6 0 9 1 17 3v-83c-18 -12 -40 -21 -71 -21c-41 0 -73 18 -87 56c-15 -34 -52 -56 -97 -56c-74 0 -111 47 -111 109c0 72 50 105 124 145l74 40v15
c0 26 -4 44 -27 44s-28 -20 -28 -44v-21h-129v24c0 88 50 149 161 149c107 0 159 -54 159 -160zM146 563c0 -22 12 -37 36 -37c25 0 37 15 37 37c0 21 -12 36 -37 36c-24 0 -36 -15 -36 -36zM87 563c0 52 38 91 95 91c58 0 96 -39 96 -91c0 -53 -38 -92 -96 -92
c-57 0 -95 39 -95 92z" />
    <glyph glyph-name="atilde" unicode="&#xe3;" horiz-adv-x="377" 
d="M204 149v43l-26 -17c-23 -14 -39 -25 -39 -50c0 -19 11 -30 29 -30c25 0 36 23 36 54zM340 294v-181c0 -13 3 -19 15 -19c6 0 9 1 17 3v-83c-18 -12 -40 -21 -71 -21c-41 0 -73 18 -87 56c-15 -34 -52 -56 -97 -56c-74 0 -111 47 -111 109c0 72 50 105 124 145l74 40v15
c0 26 -4 44 -27 44s-28 -20 -28 -44v-21h-129v24c0 88 50 149 161 149c107 0 159 -54 159 -160zM126 481h-70c0 82 18 138 72 138c42 0 73 -37 103 -37c14 0 20 12 22 34h70c0 -82 -18 -138 -72 -138c-42 0 -73 37 -103 37c-14 0 -20 -12 -22 -34z" />
    <glyph glyph-name="ccedilla" unicode="&#xe7;" horiz-adv-x="360" 
d="M285 -97c0 -55 -41 -78 -92 -78c-36 0 -72 13 -92 31l17 56c17 -14 42 -27 65 -27c16 0 24 6 24 18c0 18 -27 25 -69 25l30 65c-103 8 -156 84 -156 219v22c0 143 60 220 177 220c108 0 162 -71 162 -189v-15h-129v24c0 40 -4 72 -33 72c-31 0 -37 -27 -37 -70v-106
c0 -43 6 -70 37 -70c29 0 33 32 33 72v24h129v-15c0 -108 -45 -177 -136 -187l-8 -19c41 -3 78 -22 78 -72z" />
    <glyph glyph-name="eacute" unicode="&#xe9;" horiz-adv-x="370" 
d="M223 270c0 51 -6 77 -35 77c-30 0 -37 -26 -37 -77h72zM12 212v22c0 127 49 220 176 220c126 0 170 -92 170 -219v-46h-207v-20c0 -43 7 -70 39 -70c26 0 36 18 36 51v10h129v-7c0 -95 -59 -161 -163 -161c-122 0 -180 78 -180 220zM235 483h-99l50 143h141z" />
    <glyph glyph-name="ecircumflex" unicode="&#xea;" horiz-adv-x="370" 
d="M223 270c0 51 -6 77 -35 77c-30 0 -37 -26 -37 -77h72zM12 212v22c0 127 49 220 176 220c126 0 170 -92 170 -219v-46h-207v-20c0 -43 7 -70 39 -70c26 0 36 18 36 51v10h129v-7c0 -95 -59 -161 -163 -161c-122 0 -180 78 -180 220zM125 616h128l61 -138h-89l-36 60
l-36 -60h-89z" />
    <glyph glyph-name="edieresis" unicode="&#xeb;" horiz-adv-x="370" 
d="M223 270c0 51 -6 77 -35 77c-30 0 -37 -26 -37 -77h72zM12 212v22c0 127 49 220 176 220c126 0 170 -92 170 -219v-46h-207v-20c0 -43 7 -70 39 -70c26 0 36 18 36 51v10h129v-7c0 -95 -59 -161 -163 -161c-122 0 -180 78 -180 220zM66 482v129h111v-129h-111zM201 482
v129h111v-129h-111z" />
    <glyph glyph-name="egrave" unicode="&#xe8;" horiz-adv-x="370" 
d="M223 270c0 51 -6 77 -35 77c-30 0 -37 -26 -37 -77h72zM12 212v22c0 127 49 220 176 220c126 0 170 -92 170 -219v-46h-207v-20c0 -43 7 -70 39 -70c26 0 36 18 36 51v10h129v-7c0 -95 -59 -161 -163 -161c-122 0 -180 78 -180 220zM245 483h-98l-93 143h142z" />
    <glyph glyph-name="iacute" unicode="&#xed;" horiz-adv-x="182" 
d="M21 446h140v-446h-140v446zM137 483h-99l50 143h141z" />
    <glyph glyph-name="icircumflex" unicode="&#xee;" horiz-adv-x="182" 
d="M27 616h128l51 -138h-89l-26 60l-26 -60h-89zM21 446h140v-446h-140v446z" />
    <glyph glyph-name="idieresis" unicode="&#xef;" horiz-adv-x="182" 
d="M21 446h140v-446h-140v446zM-25 481v130h104v-130h-104zM102 481v130h105v-130h-105z" />
    <glyph glyph-name="igrave" unicode="&#xec;" horiz-adv-x="182" 
d="M21 446h140v-446h-140v446zM147 483h-98l-93 143h142z" />
    <glyph glyph-name="ntilde" unicode="&#xf1;" horiz-adv-x="390" 
d="M161 273v-273h-140v446h140v-50c14 33 51 58 100 58c82 0 108 -62 108 -119v-335h-140v294c0 27 -9 41 -30 41c-28 0 -38 -27 -38 -62zM132 481h-70c0 82 18 138 72 138c42 0 73 -37 103 -37c14 0 20 12 22 34h70c0 -82 -18 -138 -72 -138c-42 0 -73 37 -103 37
c-14 0 -20 -12 -22 -34z" />
    <glyph glyph-name="oacute" unicode="&#xf3;" horiz-adv-x="378" 
d="M152 277v-108c0 -43 7 -69 37 -69s37 26 37 69v108c0 43 -7 69 -37 69s-37 -26 -37 -69zM366 234v-22c0 -127 -50 -220 -177 -220s-177 93 -177 220v22c0 127 50 220 177 220s177 -93 177 -220zM235 483h-99l50 143h141z" />
    <glyph glyph-name="ocircumflex" unicode="&#xf4;" horiz-adv-x="378" 
d="M152 277v-108c0 -43 7 -69 37 -69s37 26 37 69v108c0 43 -7 69 -37 69s-37 -26 -37 -69zM366 234v-22c0 -127 -50 -220 -177 -220s-177 93 -177 220v22c0 127 50 220 177 220s177 -93 177 -220zM125 616h128l61 -138h-89l-36 60l-36 -60h-89z" />
    <glyph glyph-name="odieresis" unicode="&#xf6;" horiz-adv-x="378" 
d="M152 277v-108c0 -43 7 -69 37 -69s37 26 37 69v108c0 43 -7 69 -37 69s-37 -26 -37 -69zM366 234v-22c0 -127 -50 -220 -177 -220s-177 93 -177 220v22c0 127 50 220 177 220s177 -93 177 -220zM66 482v129h111v-129h-111zM201 482v129h111v-129h-111z" />
    <glyph glyph-name="ograve" unicode="&#xf2;" horiz-adv-x="378" 
d="M152 277v-108c0 -43 7 -69 37 -69s37 26 37 69v108c0 43 -7 69 -37 69s-37 -26 -37 -69zM366 234v-22c0 -127 -50 -220 -177 -220s-177 93 -177 220v22c0 127 50 220 177 220s177 -93 177 -220zM245 483h-98l-93 143h142z" />
    <glyph glyph-name="otilde" unicode="&#xf5;" horiz-adv-x="378" 
d="M152 277v-108c0 -43 7 -69 37 -69s37 26 37 69v108c0 43 -7 69 -37 69s-37 -26 -37 -69zM366 234v-22c0 -127 -50 -220 -177 -220s-177 93 -177 220v22c0 127 50 220 177 220s177 -93 177 -220zM126 481h-70c0 82 18 138 72 138c42 0 73 -37 103 -37c14 0 20 12 22 34h70
c0 -82 -18 -138 -72 -138c-42 0 -73 37 -103 37c-14 0 -20 -12 -22 -34z" />
    <glyph glyph-name="scaron" unicode="&#x161;" horiz-adv-x="335" 
d="M5 149h119v-9c0 -27 14 -45 42 -45c19 0 29 9 29 26c0 13 -6 22 -27 31l-57 24c-60 24 -104 62 -104 137c0 82 59 141 156 141c100 0 156 -55 156 -144v-13h-120v8c0 28 -6 46 -33 46c-17 0 -27 -11 -27 -26c0 -12 8 -23 22 -29l66 -29c56 -25 101 -60 101 -136
c0 -88 -63 -139 -160 -139c-101 0 -163 52 -163 143v14zM230 481h-128l-61 138h89l36 -60l36 60h89z" />
    <glyph glyph-name="uacute" unicode="&#xfa;" horiz-adv-x="387" 
d="M226 173v273h140v-446h-140v50c-14 -33 -49 -58 -98 -58c-82 0 -107 62 -107 119v335h140v-294c0 -27 8 -41 29 -41c28 0 36 27 36 62zM239 483h-99l50 143h141z" />
    <glyph glyph-name="ucircumflex" unicode="&#xfb;" horiz-adv-x="387" 
d="M226 173v273h140v-446h-140v50c-14 -33 -49 -58 -98 -58c-82 0 -107 62 -107 119v335h140v-294c0 -27 8 -41 29 -41c28 0 36 27 36 62zM129 616h128l61 -138h-89l-36 60l-36 -60h-89z" />
    <glyph glyph-name="udieresis" unicode="&#xfc;" horiz-adv-x="387" 
d="M226 173v273h140v-446h-140v50c-14 -33 -49 -58 -98 -58c-82 0 -107 62 -107 119v335h140v-294c0 -27 8 -41 29 -41c28 0 36 27 36 62zM70 482v129h111v-129h-111zM205 482v129h111v-129h-111z" />
    <glyph glyph-name="ugrave" unicode="&#xf9;" horiz-adv-x="387" 
d="M226 173v273h140v-446h-140v50c-14 -33 -49 -58 -98 -58c-82 0 -107 62 -107 119v335h140v-294c0 -27 8 -41 29 -41c28 0 36 27 36 62zM249 483h-98l-93 143h142z" />
    <glyph glyph-name="yacute" unicode="&#xfd;" horiz-adv-x="376" 
d="M123 -16l-123 462h137l55 -242h4l58 242h122l-161 -606h-132zM234 483h-99l50 143h141z" />
    <glyph glyph-name="ydieresis" unicode="&#xff;" horiz-adv-x="376" 
d="M123 -16l-123 462h137l55 -242h4l58 242h122l-161 -606h-132zM65 482v129h111v-129h-111zM200 482v129h111v-129h-111z" />
    <glyph glyph-name="zcaron" unicode="&#x17e;" horiz-adv-x="328" 
d="M161 344h-142v102h290v-95l-145 -249h149v-102h-298v96zM234 481h-128l-61 138h89l36 -60l36 60h89z" />
    <glyph glyph-name="Euro" unicode="&#x20ac;" horiz-adv-x="453" 
d="M10 331v80h38c11 147 71 227 203 227c143 0 190 -103 190 -250v-29h-137v68c0 56 -13 92 -56 92s-55 -36 -55 -92v-16h82l-10 -80h-72v-38h66l-10 -80h-56v-10c0 -56 12 -92 55 -92s56 36 56 92v68h137v-29c0 -147 -47 -250 -190 -250c-130 0 -190 77 -202 221h-39v80h37
v38h-37z" />
    <glyph glyph-name="approxequal" unicode="&#x2248;" horiz-adv-x="451" 
d="M38 315v87c36 24 70 34 100 34c64 0 107 -33 171 -33c31 0 66 8 104 34v-89c-38 -23 -73 -32 -104 -32c-64 0 -107 32 -171 32c-30 0 -64 -10 -100 -33zM38 172v87c36 25 70 34 100 34c64 0 107 -33 171 -33c31 0 66 9 104 34v-88c-38 -24 -73 -33 -104 -33
c-64 0 -107 33 -171 33c-30 0 -64 -10 -100 -34z" />
    <glyph glyph-name="notequal" unicode="&#x2260;" horiz-adv-x="451" 
d="M38 339v84h222l52 81h79l-52 -81h74v-84h-127l-44 -70h171v-84h-224l-51 -81h-79l51 81h-72v84h125l44 70h-169z" />
    <glyph glyph-name="lessequal" unicode="&#x2264;" horiz-adv-x="344" 
d="M29 93v95h286v-95h-286zM29 297v128l286 93v-105l-191 -52l191 -54v-104z" />
    <glyph glyph-name="greaterequal" unicode="&#x2265;" horiz-adv-x="344" 
d="M315 188v-95h-286v95h286zM315 425v-128l-286 -94v104l189 54l-189 52v105z" />
    <glyph glyph-name="uni00A0" unicode="&#xa0;" horiz-adv-x="120" 
 />
    <glyph glyph-name="twosuperior" unicode="&#xb2;" horiz-adv-x="241" 
d="M179 472l-50 -42h89v-68h-198v59l76 71c28 26 40 35 40 53c0 13 -5 21 -16 21c-14 0 -21 -10 -21 -36v-8h-80v15c0 55 30 98 100 98c66 0 101 -29 101 -86c0 -28 -13 -54 -41 -77z" />
    <glyph glyph-name="Tcedilla" unicode="&#x162;" horiz-adv-x="413" 
d="M278 0h-146v509h-120v121h389v-121h-123v-509zM142 -119v93h128v-71c0 -72 -42 -104 -128 -104v48c34 0 49 7 50 34h-50z" />
    <glyph glyph-name="tcedilla" unicode="&#x163;" horiz-adv-x="254" 
d="M34 104v245h-34v86l13 2c42 7 51 32 60 74l12 55h84v-120h71v-97h-71v-206c0 -25 10 -36 30 -36c16 0 26 3 50 15v-97c-34 -22 -64 -31 -105 -31c-65 0 -110 29 -110 110zM76 -119v93h128v-71c0 -72 -42 -104 -128 -104v48c34 0 49 7 50 34h-50z" />
    <glyph glyph-name="i.dot" horiz-adv-x="182" 
d="M21 446h140v-446h-140v446zM22 490v140h139v-140h-139z" />
    <glyph glyph-name="uni0237" unicode="&#x237;" horiz-adv-x="182" 
d="M161 446v-485c0 -83 -42 -129 -122 -129c-33 0 -61 6 -85 20l11 89c10 -5 19 -7 28 -7c22 0 28 10 28 30v482h140z" />
    <glyph glyph-name="space_uni0326" 
d="M136 -119v93h128v-71c0 -72 -42 -104 -128 -104v48c34 0 49 7 50 34h-50z" />
    <glyph glyph-name="space_uni0326.alt" 
d="M264 580v-93h-128v71c0 72 42 104 128 104v-48c-34 0 -49 -7 -50 -34h50z" />
    <glyph glyph-name="space_dotbelowcomb" 
d="M130 -166v140h139v-140h-139z" />
    <glyph glyph-name="uni2117" unicode="&#x2117;" horiz-adv-x="587" 
d="M293 638c160 0 274 -136 274 -323s-114 -323 -274 -323c-159 0 -273 136 -273 323s114 323 273 323zM293 590c-136 0 -222 -115 -222 -275s86 -275 222 -275c137 0 223 115 223 275s-86 275 -223 275zM280 317h24c31 0 44 14 44 52s-13 53 -44 53h-24v-105zM280 238v-114
h-93v377h129c84 0 125 -50 125 -132s-41 -131 -125 -131h-36z" />
    <glyph glyph-name="Abreve" unicode="&#x102;" horiz-adv-x="447" 
d="M136 630h175l136 -630h-146l-21 112h-124l-22 -112h-134zM223 652c-82 0 -120 60 -120 138h87c0 -35 13 -48 33 -48s33 13 33 48h87c0 -78 -38 -138 -120 -138zM218 431l-41 -208h83l-38 208h-4z" />
    <glyph glyph-name="Amacron" unicode="&#x100;" horiz-adv-x="447" 
d="M136 630h175l136 -630h-146l-21 112h-124l-22 -112h-134zM119 666v96h208v-96h-208zM218 431l-41 -208h83l-38 208h-4z" />
    <glyph glyph-name="Aogonek" unicode="&#x104;" horiz-adv-x="447" 
d="M136 630h175l136 -630h-68c-31 -31 -36 -43 -36 -62c0 -14 9 -21 22 -21c9 0 16 2 29 8v-75c-15 -11 -33 -17 -61 -17c-41 0 -77 22 -77 74c0 37 19 67 45 93l-21 112h-124l-22 -112h-134zM218 431l-41 -208h83l-38 208h-4z" />
    <glyph glyph-name="Aringacute" unicode="&#x1fa;" horiz-adv-x="447" 
d="M136 630h175l136 -630h-146l-21 112h-124l-22 -112h-134zM127 729c0 48 37 84 94 84c58 0 96 -36 96 -84s-38 -84 -96 -84c-57 0 -94 36 -94 84zM165 829l41 115h159l-84 -115h-116zM218 431l-41 -208h83l-38 208h-4zM221 698c24 0 35 12 35 31s-11 31 -35 31
c-23 0 -34 -12 -34 -31s11 -31 34 -31z" />
    <glyph glyph-name="AEacute" unicode="&#x1fc;" horiz-adv-x="592" 
d="M576 0h-304v122h-99l-32 -122h-141l177 630h399v-121h-160v-129h115v-120h-115v-139h160v-121zM396 661h-99l50 143h141zM272 484h-4l-66 -251h70v251z" />
    <glyph glyph-name="Cacute" unicode="&#x106;" horiz-adv-x="418" 
d="M163 427v-224c0 -56 7 -92 50 -92s50 36 50 92v68h143v-29c0 -147 -47 -250 -190 -250c-147 0 -204 99 -204 280v86c0 181 57 280 204 280c143 0 190 -103 190 -250v-29h-143v68c0 56 -7 92 -50 92s-50 -36 -50 -92zM267 661h-99l50 143h141z" />
    <glyph glyph-name="Ccaron" unicode="&#x10c;" horiz-adv-x="418" 
d="M163 427v-224c0 -56 7 -92 50 -92s50 36 50 92v68h143v-29c0 -147 -47 -250 -190 -250c-147 0 -204 99 -204 280v86c0 181 57 280 204 280c143 0 190 -103 190 -250v-29h-143v68c0 56 -7 92 -50 92s-50 -36 -50 -92zM283 659h-128l-61 138h89l36 -60l36 60h89z" />
    <glyph glyph-name="Ccircumflex" unicode="&#x108;" horiz-adv-x="418" 
d="M163 427v-224c0 -56 7 -92 50 -92s50 36 50 92v68h143v-29c0 -147 -47 -250 -190 -250c-147 0 -204 99 -204 280v86c0 181 57 280 204 280c143 0 190 -103 190 -250v-29h-143v68c0 56 -7 92 -50 92s-50 -36 -50 -92zM155 794h128l61 -138h-89l-36 60l-36 -60h-89z" />
    <glyph glyph-name="Cdotaccent" unicode="&#x10a;" horiz-adv-x="418" 
d="M163 427v-224c0 -56 7 -92 50 -92s50 36 50 92v68h143v-29c0 -147 -47 -250 -190 -250c-147 0 -204 99 -204 280v86c0 181 57 280 204 280c143 0 190 -103 190 -250v-29h-143v68c0 56 -7 92 -50 92s-50 -36 -50 -92zM150 668v140h139v-140h-139z" />
    <glyph glyph-name="Dcaron" unicode="&#x10e;" horiz-adv-x="431" 
d="M269 214v202c0 62 -21 98 -73 98h-27v-398h27c52 0 73 36 73 98zM419 365v-100c0 -168 -64 -265 -205 -265h-192v630h192c141 0 205 -97 205 -265zM274 659h-128l-61 138h89l36 -60l36 60h89z" />
    <glyph glyph-name="Dcroat" unicode="&#x110;" horiz-adv-x="441" 
d="M4 260v120h28v250h192c141 0 205 -97 205 -265v-100c0 -168 -64 -265 -205 -265h-192v260h-28zM279 214v202c0 62 -21 98 -73 98h-27v-134h39v-120h-39v-144h27c52 0 73 36 73 98z" />
    <glyph glyph-name="Ebreve" unicode="&#x114;" horiz-adv-x="357" 
d="M341 121v-121h-319v630h319v-121h-175v-129h130v-120h-130v-139h175zM181 652c-82 0 -120 60 -120 138h87c0 -35 13 -48 33 -48s33 13 33 48h87c0 -78 -38 -138 -120 -138z" />
    <glyph glyph-name="Ecaron" unicode="&#x11a;" horiz-adv-x="357" 
d="M341 121v-121h-319v630h319v-121h-175v-129h130v-120h-130v-139h175zM245 659h-128l-61 138h89l36 -60l36 60h89z" />
    <glyph glyph-name="Edotaccent" unicode="&#x116;" horiz-adv-x="357" 
d="M341 121v-121h-319v630h319v-121h-175v-129h130v-120h-130v-139h175zM112 668v140h139v-140h-139z" />
    <glyph glyph-name="Emacron" unicode="&#x112;" horiz-adv-x="357" 
d="M341 121v-121h-319v630h319v-121h-175v-129h130v-120h-130v-139h175zM77 666v96h208v-96h-208z" />
    <glyph glyph-name="Eogonek" unicode="&#x118;" horiz-adv-x="357" 
d="M341 121v-121h-41c-31 -31 -36 -43 -36 -62c0 -14 9 -21 22 -21c9 0 16 2 29 8v-75c-15 -11 -33 -17 -61 -17c-41 0 -77 22 -77 74c0 37 18 66 44 93h-199v630h319v-121h-175v-129h130v-120h-130v-139h175z" />
    <glyph glyph-name="Gbreve" unicode="&#x11e;" horiz-adv-x="430" 
d="M410 0h-98l-11 56c-16 -43 -61 -64 -111 -64c-125 0 -178 99 -178 280v86c0 181 59 280 203 280c143 0 195 -90 195 -237v-16h-143v42c0 56 -9 92 -52 92s-52 -36 -52 -92v-221c0 -56 12 -92 54 -92c43 0 54 36 54 92v9h-46v110h185v-325zM217 652
c-82 0 -120 60 -120 138h87c0 -35 13 -48 33 -48s33 13 33 48h87c0 -78 -38 -138 -120 -138z" />
    <glyph glyph-name="Gcircumflex" unicode="&#x11c;" horiz-adv-x="430" 
d="M410 0h-98l-11 56c-16 -43 -61 -64 -111 -64c-125 0 -178 99 -178 280v86c0 181 59 280 203 280c143 0 195 -90 195 -237v-16h-143v42c0 56 -9 92 -52 92s-52 -36 -52 -92v-221c0 -56 12 -92 54 -92c43 0 54 36 54 92v9h-46v110h185v-325zM153 794h128l61 -138h-89
l-36 60l-36 -60h-89z" />
    <glyph glyph-name="Gcommaaccent" unicode="&#x122;" horiz-adv-x="430" 
d="M410 0h-98l-11 56c-16 -43 -61 -64 -111 -64c-125 0 -178 99 -178 280v86c0 181 59 280 203 280c143 0 195 -90 195 -237v-16h-143v42c0 56 -9 92 -52 92s-52 -36 -52 -92v-221c0 -56 12 -92 54 -92c43 0 54 36 54 92v9h-46v110h185v-325zM153 -119v93h128v-71
c0 -72 -42 -104 -128 -104v48c34 0 49 7 50 34h-50z" />
    <glyph glyph-name="Gdotaccent" unicode="&#x120;" horiz-adv-x="430" 
d="M410 0h-98l-11 56c-16 -43 -61 -64 -111 -64c-125 0 -178 99 -178 280v86c0 181 59 280 203 280c143 0 195 -90 195 -237v-16h-143v42c0 56 -9 92 -52 92s-52 -36 -52 -92v-221c0 -56 12 -92 54 -92c43 0 54 36 54 92v9h-46v110h185v-325zM148 668v140h139v-140h-139z
" />
    <glyph glyph-name="Hbar" unicode="&#x126;" horiz-adv-x="462" 
d="M4 435v113h28v82h147v-82h104v82h147v-82h28v-113h-28v-435h-147v237h-104v-237h-147v435h-28zM179 350h104v85h-104v-85z" />
    <glyph glyph-name="Hcircumflex" unicode="&#x124;" horiz-adv-x="442" 
d="M169 0h-147v630h147v-250h104v250h147v-630h-147v260h-104v-260zM157 794h128l61 -138h-89l-36 60l-36 -60h-89z" />
    <glyph glyph-name="Ibreve" unicode="&#x12c;" horiz-adv-x="191" 
d="M22 630h147v-630h-147v630zM95 652c-82 0 -120 60 -120 138h87c0 -35 13 -48 33 -48s33 13 33 48h87c0 -78 -38 -138 -120 -138z" />
    <glyph glyph-name="Idotaccent" unicode="&#x130;" horiz-adv-x="191" 
d="M22 630h147v-630h-147v630zM26 668v140h139v-140h-139z" />
    <glyph glyph-name="Imacron" unicode="&#x12a;" horiz-adv-x="191" 
d="M22 630h147v-630h-147v630zM-9 666v96h208v-96h-208z" />
    <glyph glyph-name="Iogonek" unicode="&#x12e;" horiz-adv-x="191" 
d="M22 630h147v-630c-36 -23 -51 -43 -51 -62c0 -14 9 -21 22 -21c9 0 16 2 29 8v-75c-15 -11 -33 -17 -61 -17c-41 0 -77 22 -77 74c0 37 20 65 49 93h-58v630z" />
    <glyph glyph-name="Itilde" unicode="&#x128;" horiz-adv-x="191" 
d="M22 630h147v-630h-147v630zM32 659h-70c0 82 18 138 72 138c42 0 73 -37 103 -37c14 0 20 12 22 34h70c0 -82 -18 -138 -72 -138c-42 0 -73 37 -103 37c-14 0 -20 -12 -22 -34z" />
    <glyph glyph-name="IJ" unicode="&#x132;" horiz-adv-x="596" 
d="M22 630h147v-630h-147v630zM191 205v55h144v-61c0 -51 7 -86 47 -86c37 0 43 35 43 86v431h151v-426c0 -125 -52 -212 -194 -212c-144 0 -191 87 -191 213z" />
    <glyph glyph-name="Jcircumflex" unicode="&#x134;" horiz-adv-x="415" 
d="M10 205v55h144v-61c0 -51 7 -86 47 -86c37 0 43 35 43 86v431h151v-426c0 -125 -52 -212 -194 -212c-144 0 -191 87 -191 213zM256 794h128l61 -138h-89l-36 60l-36 -60h-89z" />
    <glyph glyph-name="Kcommaaccent" unicode="&#x136;" horiz-adv-x="424" 
d="M424 0h-154l-65 226l-36 -95v-131h-147v630h147v-288l104 288h151l-108 -273zM159 -119v93h128v-71c0 -72 -42 -104 -128 -104v48c34 0 49 7 50 34h-50z" />
    <glyph glyph-name="Lacute" unicode="&#x139;" horiz-adv-x="351" 
d="M22 630h147v-509h170v-121h-317v630zM140 661h-99l50 143h141z" />
    <glyph glyph-name="Lcaron" unicode="&#x13d;" horiz-adv-x="351" 
d="M22 630h147v-509h170v-121h-317v630zM281 486h-87l14 144h138z" />
    <glyph glyph-name="Lcommaaccent" unicode="&#x13b;" horiz-adv-x="351" 
d="M22 630h147v-509h170v-121h-317v630zM116 -119v93h128v-71c0 -72 -42 -104 -128 -104v48c34 0 49 7 50 34h-50z" />
    <glyph glyph-name="Ldot" unicode="&#x13f;" horiz-adv-x="351" 
d="M22 630h147v-509h170v-121h-317v630zM209 240v140h128v-140h-128z" />
    <glyph glyph-name="Nacute" unicode="&#x143;" horiz-adv-x="440" 
d="M282 340v290h136v-630h-111l-145 325h-4v-325h-136v630h134l122 -290h4zM268 661h-99l50 143h141z" />
    <glyph glyph-name="Ncaron" unicode="&#x147;" horiz-adv-x="440" 
d="M282 340v290h136v-630h-111l-145 325h-4v-325h-136v630h134l122 -290h4zM284 659h-128l-61 138h89l36 -60l36 60h89z" />
    <glyph glyph-name="Ncommaaccent" unicode="&#x145;" horiz-adv-x="440" 
d="M282 340v290h136v-630h-111l-145 325h-4v-325h-136v630h134l122 -290h4zM156 -119v93h128v-71c0 -72 -42 -104 -128 -104v48c34 0 49 7 50 34h-50z" />
    <glyph glyph-name="Eng" unicode="&#x14a;" horiz-adv-x="440" 
d="M291 38l-129 287h-4v-325h-136v630h134l122 -290h4v290h136v-598c0 -130 -63 -196 -160 -196c-52 0 -101 24 -126 58l56 90c13 -17 34 -30 54 -30c33 0 49 24 49 77v7z" />
    <glyph glyph-name="Obreve" unicode="&#x14e;" horiz-adv-x="432" 
d="M420 354v-78c0 -181 -57 -284 -204 -284s-204 103 -204 284v78c0 181 57 284 204 284s204 -103 204 -284zM164 425v-220c0 -56 9 -94 52 -94s52 38 52 94v220c0 56 -9 94 -52 94s-52 -38 -52 -94zM216 652c-82 0 -120 60 -120 138h87c0 -35 13 -48 33 -48s33 13 33 48h87
c0 -78 -38 -138 -120 -138z" />
    <glyph glyph-name="Ohungarumlaut" unicode="&#x150;" horiz-adv-x="432" 
d="M420 354v-78c0 -181 -57 -284 -204 -284s-204 103 -204 284v78c0 181 57 284 204 284s204 -103 204 -284zM164 425v-220c0 -56 9 -94 52 -94s52 38 52 94v220c0 56 -9 94 -52 94s-52 -38 -52 -94zM188 661h-80l33 147h123zM324 661h-80l33 147h123z" />
    <glyph glyph-name="Omacron" unicode="&#x14c;" horiz-adv-x="432" 
d="M420 354v-78c0 -181 -57 -284 -204 -284s-204 103 -204 284v78c0 181 57 284 204 284s204 -103 204 -284zM164 425v-220c0 -56 9 -94 52 -94s52 38 52 94v220c0 56 -9 94 -52 94s-52 -38 -52 -94zM112 666v96h208v-96h-208z" />
    <glyph glyph-name="Oslashacute" unicode="&#x1fe;" horiz-adv-x="432" 
d="M17 20l33 64c-26 48 -38 114 -38 192v78c0 181 57 284 204 284c43 0 79 -10 107 -28l21 39l71 -39l-34 -64c27 -49 39 -114 39 -192v-78c0 -181 -57 -284 -204 -284c-44 0 -79 10 -108 28l-20 -39zM264 661h-99l50 143h141zM158 427v-136l104 201c-9 18 -24 29 -46 29
c-43 0 -58 -38 -58 -94zM216 109c43 0 58 38 58 94v135l-105 -201c9 -18 24 -28 47 -28z" />
    <glyph glyph-name="Racute" unicode="&#x154;" horiz-adv-x="419" 
d="M409 0h-145c-8 24 -10 61 -14 137c-3 60 -18 91 -64 91h-19v-228h-145v630h181c141 0 204 -74 204 -186c0 -99 -45 -148 -109 -159c66 -15 88 -62 93 -141c5 -83 4 -115 18 -144zM167 344h14c59 0 82 19 82 83c0 57 -23 85 -82 85h-14v-168zM243 661h-99l50 143h141z" />
    <glyph glyph-name="Rcaron" unicode="&#x158;" horiz-adv-x="419" 
d="M409 0h-145c-8 24 -10 61 -14 137c-3 60 -18 91 -64 91h-19v-228h-145v630h181c141 0 204 -74 204 -186c0 -99 -45 -148 -109 -159c66 -15 88 -62 93 -141c5 -83 4 -115 18 -144zM167 344h14c59 0 82 19 82 83c0 57 -23 85 -82 85h-14v-168zM259 659h-128l-61 138h89
l36 -60l36 60h89z" />
    <glyph glyph-name="Rcommaaccent" unicode="&#x156;" horiz-adv-x="419" 
d="M409 0h-145c-8 24 -10 61 -14 137c-3 60 -18 91 -64 91h-19v-228h-145v630h181c141 0 204 -74 204 -186c0 -99 -45 -148 -109 -159c66 -15 88 -62 93 -141c5 -83 4 -115 18 -144zM167 344h14c59 0 82 19 82 83c0 57 -23 85 -82 85h-14v-168zM153 -119v93h128v-71
c0 -72 -42 -104 -128 -104v48c34 0 49 7 50 34h-50z" />
    <glyph glyph-name="Sacute" unicode="&#x15a;" horiz-adv-x="393" 
d="M8 213h129v-25c0 -47 20 -78 59 -78c34 0 52 19 52 54c0 36 -23 50 -61 71l-53 29c-67 37 -125 82 -125 190c0 112 73 184 181 184c115 0 181 -66 181 -195v-25h-129v26c0 51 -16 76 -52 76c-31 0 -47 -22 -47 -56c0 -32 18 -52 48 -68l59 -32c83 -45 133 -89 133 -187
c0 -122 -75 -185 -187 -185s-188 62 -188 197v24zM243 661h-99l50 143h141z" />
    <glyph glyph-name="Scedilla" unicode="&#x15e;" horiz-adv-x="393" 
d="M291 -97c0 -55 -41 -78 -92 -78c-36 0 -72 13 -92 31l17 56c17 -14 42 -27 65 -27c16 0 24 6 24 18c0 18 -27 25 -69 25l30 65c-100 7 -166 70 -166 196v24h129v-25c0 -47 20 -78 59 -78c34 0 52 19 52 54c0 36 -23 50 -61 71l-53 29c-67 37 -125 82 -125 190
c0 112 73 184 181 184c115 0 181 -66 181 -195v-25h-129v26c0 51 -16 76 -52 76c-31 0 -47 -22 -47 -56c0 -32 18 -52 48 -68l59 -32c83 -45 133 -89 133 -187c0 -113 -64 -175 -162 -184l-8 -18c41 -3 78 -22 78 -72z" />
    <glyph glyph-name="Scircumflex" unicode="&#x15c;" horiz-adv-x="393" 
d="M8 213h129v-25c0 -47 20 -78 59 -78c34 0 52 19 52 54c0 36 -23 50 -61 71l-53 29c-67 37 -125 82 -125 190c0 112 73 184 181 184c115 0 181 -66 181 -195v-25h-129v26c0 51 -16 76 -52 76c-31 0 -47 -22 -47 -56c0 -32 18 -52 48 -68l59 -32c83 -45 133 -89 133 -187
c0 -122 -75 -185 -187 -185s-188 62 -188 197v24zM131 794h128l61 -138h-89l-36 60l-36 -60h-89z" />
    <glyph glyph-name="Scommaaccent" unicode="&#x218;" horiz-adv-x="393" 
d="M8 213h129v-25c0 -47 20 -78 59 -78c34 0 52 19 52 54c0 36 -23 50 -61 71l-53 29c-67 37 -125 82 -125 190c0 112 73 184 181 184c115 0 181 -66 181 -195v-25h-129v26c0 51 -16 76 -52 76c-31 0 -47 -22 -47 -56c0 -32 18 -52 48 -68l59 -32c83 -45 133 -89 133 -187
c0 -122 -75 -185 -187 -185s-188 62 -188 197v24zM131 -119v93h128v-71c0 -72 -42 -104 -128 -104v48c34 0 49 7 50 34h-50z" />
    <glyph glyph-name="Tbar" unicode="&#x166;" horiz-adv-x="413" 
d="M72 244v120h60v145h-120v121h389v-121h-123v-145h60v-120h-60v-244h-146v244h-60z" />
    <glyph glyph-name="Tcaron" unicode="&#x164;" horiz-adv-x="413" 
d="M278 0h-146v509h-120v121h389v-121h-123v-509zM270 659h-128l-61 138h89l36 -60l36 60h89z" />
    <glyph glyph-name="Ubreve" unicode="&#x16c;" horiz-adv-x="444" 
d="M222 -9c-155 0 -202 92 -202 234v405h151v-417c0 -64 6 -101 51 -101s51 37 51 101v417h151v-405c0 -142 -47 -234 -202 -234zM222 652c-82 0 -120 60 -120 138h87c0 -35 13 -48 33 -48s33 13 33 48h87c0 -78 -38 -138 -120 -138z" />
    <glyph glyph-name="Uhungarumlaut" unicode="&#x170;" horiz-adv-x="444" 
d="M222 -9c-155 0 -202 92 -202 234v405h151v-417c0 -64 6 -101 51 -101s51 37 51 101v417h151v-405c0 -142 -47 -234 -202 -234zM194 661h-80l33 147h123zM330 661h-80l33 147h123z" />
    <glyph glyph-name="Umacron" unicode="&#x16a;" horiz-adv-x="444" 
d="M222 -9c-155 0 -202 92 -202 234v405h151v-417c0 -64 6 -101 51 -101s51 37 51 101v417h151v-405c0 -142 -47 -234 -202 -234zM118 666v96h208v-96h-208z" />
    <glyph glyph-name="Uogonek" unicode="&#x172;" horiz-adv-x="444" 
d="M222 -9c-155 0 -202 92 -202 234v405h151v-417c0 -64 6 -101 51 -101s51 37 51 101v417h151v-405c0 -104 -31 -166 -99 -215c-38 -27 -46 -51 -46 -72c0 -14 9 -21 22 -21c9 0 16 2 29 8v-75c-15 -11 -33 -17 -61 -17c-41 0 -77 22 -77 74c0 33 15 60 36 84h-6z" />
    <glyph glyph-name="Uring" unicode="&#x16e;" horiz-adv-x="444" 
d="M222 -9c-155 0 -202 92 -202 234v405h151v-417c0 -64 6 -101 51 -101s51 37 51 101v417h151v-405c0 -142 -47 -234 -202 -234zM186 741c0 -22 12 -37 36 -37c25 0 37 15 37 37c0 21 -12 36 -37 36c-24 0 -36 -15 -36 -36zM127 741c0 52 38 91 95 91c58 0 96 -39 96 -91
c0 -53 -38 -92 -96 -92c-57 0 -95 39 -95 92z" />
    <glyph glyph-name="Utilde" unicode="&#x168;" horiz-adv-x="444" 
d="M222 -9c-155 0 -202 92 -202 234v405h151v-417c0 -64 6 -101 51 -101s51 37 51 101v417h151v-405c0 -142 -47 -234 -202 -234zM159 659h-70c0 82 18 138 72 138c42 0 73 -37 103 -37c14 0 20 12 22 34h70c0 -82 -18 -138 -72 -138c-42 0 -73 37 -103 37
c-14 0 -20 -12 -22 -34z" />
    <glyph glyph-name="Wacute" unicode="&#x1e82;" horiz-adv-x="590" 
d="M406 307l50 323h134l-109 -630h-138l-46 308h-4l-46 -308h-138l-109 630h140l50 -323h4l50 323h108l50 -323h4zM343 661h-99l50 143h141z" />
    <glyph glyph-name="Wcircumflex" unicode="&#x174;" horiz-adv-x="590" 
d="M406 307l50 323h134l-109 -630h-138l-46 308h-4l-46 -308h-138l-109 630h140l50 -323h4l50 323h108l50 -323h4zM231 794h128l61 -138h-89l-36 60l-36 -60h-89z" />
    <glyph glyph-name="Wgrave" unicode="&#x1e80;" horiz-adv-x="590" 
d="M406 307l50 323h134l-109 -630h-138l-46 308h-4l-46 -308h-138l-109 630h140l50 -323h4l50 323h108l50 -323h4zM351 661h-98l-93 143h142z" />
    <glyph glyph-name="Wdieresis" unicode="&#x1e84;" horiz-adv-x="590" 
d="M406 307l50 323h134l-109 -630h-138l-46 308h-4l-46 -308h-138l-109 630h140l50 -323h4l50 323h108l50 -323h4zM172 660v129h111v-129h-111zM307 660v129h111v-129h-111z" />
    <glyph glyph-name="Ycircumflex" unicode="&#x176;" horiz-adv-x="437" 
d="M225 398l67 232h145l-147 -409v-221h-143v221l-147 409h152zM154 794h128l61 -138h-89l-36 60l-36 -60h-89z" />
    <glyph glyph-name="Ygrave" unicode="&#x1ef2;" horiz-adv-x="437" 
d="M225 398l67 232h145l-147 -409v-221h-143v221l-147 409h152zM274 661h-98l-93 143h142z" />
    <glyph glyph-name="Zacute" unicode="&#x179;" horiz-adv-x="383" 
d="M178 121h189v-121h-351v110l187 399h-184v121h341v-113zM247 661h-99l50 143h141z" />
    <glyph glyph-name="Zdotaccent" unicode="&#x17b;" horiz-adv-x="383" 
d="M178 121h189v-121h-351v110l187 399h-184v121h341v-113zM130 668v140h139v-140h-139z" />
    <glyph glyph-name="abreve" unicode="&#x103;" horiz-adv-x="377" 
d="M204 149v43l-26 -17c-23 -14 -39 -25 -39 -50c0 -19 11 -30 29 -30c25 0 36 23 36 54zM340 294v-181c0 -13 3 -19 15 -19c6 0 9 1 17 3v-83c-18 -12 -40 -21 -71 -21c-41 0 -73 18 -87 56c-15 -34 -52 -56 -97 -56c-74 0 -111 47 -111 109c0 72 50 105 124 145l74 40v15
c0 26 -4 44 -27 44s-28 -20 -28 -44v-21h-129v24c0 88 50 149 161 149c107 0 159 -54 159 -160zM182 474c-82 0 -120 60 -120 138h87c0 -35 13 -48 33 -48s33 13 33 48h87c0 -78 -38 -138 -120 -138z" />
    <glyph glyph-name="amacron" unicode="&#x101;" horiz-adv-x="377" 
d="M204 149v43l-26 -17c-23 -14 -39 -25 -39 -50c0 -19 11 -30 29 -30c25 0 36 23 36 54zM340 294v-181c0 -13 3 -19 15 -19c6 0 9 1 17 3v-83c-18 -12 -40 -21 -71 -21c-41 0 -73 18 -87 56c-15 -34 -52 -56 -97 -56c-74 0 -111 47 -111 109c0 72 50 105 124 145l74 40v15
c0 26 -4 44 -27 44s-28 -20 -28 -44v-21h-129v24c0 88 50 149 161 149c107 0 159 -54 159 -160zM78 488v96h208v-96h-208z" />
    <glyph glyph-name="aogonek" unicode="&#x105;" horiz-adv-x="377" 
d="M340 294v-181c0 -13 3 -19 15 -19c6 0 9 1 17 3v-83c-44 -40 -51 -55 -51 -76c0 -14 9 -21 22 -21c9 0 16 2 29 8v-75c-15 -11 -33 -17 -61 -17c-41 0 -77 22 -77 74c0 35 16 64 40 89c-28 6 -49 23 -60 53c-15 -34 -52 -56 -97 -56c-74 0 -111 47 -111 109
c0 72 50 105 124 145l74 40v15c0 26 -4 44 -27 44s-28 -20 -28 -44v-21h-129v24c0 88 50 149 161 149c107 0 159 -54 159 -160zM204 149v43l-26 -17c-23 -14 -39 -25 -39 -50c0 -19 11 -30 29 -30c25 0 36 23 36 54z" />
    <glyph glyph-name="aringacute" unicode="&#x1fb;" horiz-adv-x="377" 
d="M243 651h-116l41 115h159zM149 551c0 -19 11 -31 34 -31c24 0 35 12 35 31s-11 31 -35 31c-23 0 -34 -12 -34 -31zM89 551c0 48 37 84 94 84c58 0 96 -36 96 -84s-38 -84 -96 -84c-57 0 -94 36 -94 84zM204 149v43l-26 -17c-23 -14 -39 -25 -39 -50c0 -19 11 -30 29 -30
c25 0 36 23 36 54zM340 294v-181c0 -13 3 -19 15 -19c6 0 9 1 17 3v-83c-18 -12 -40 -21 -71 -21c-41 0 -73 18 -87 56c-15 -34 -52 -56 -97 -56c-74 0 -111 47 -111 109c0 72 50 105 124 145l74 40v15c0 26 -4 44 -27 44s-28 -20 -28 -44v-21h-129v24c0 88 50 149 161 149
c107 0 159 -54 159 -160z" />
    <glyph glyph-name="aeacute" unicode="&#x1fd;" horiz-adv-x="561" 
d="M262 45c-21 -33 -66 -53 -115 -53c-91 0 -141 50 -141 140c0 86 66 138 170 138h28v32c0 26 -4 44 -27 44s-28 -20 -28 -44v-21h-129v24c0 88 50 149 156 149c43 0 78 -13 104 -36c27 22 57 36 99 36c126 0 170 -92 170 -219v-46h-207v-20c0 -43 7 -70 39 -70
c26 0 36 18 36 51v10h129v-7c0 -95 -59 -161 -163 -161c-56 0 -97 18 -121 53zM168 97c25 0 36 21 36 52v40h-15c-38 0 -52 -24 -52 -52c0 -26 13 -40 31 -40zM379 347c-30 0 -37 -26 -37 -77h72c0 51 -6 77 -35 77zM323 483h-99l50 143h141z" />
    <glyph glyph-name="cacute" unicode="&#x107;" horiz-adv-x="360" 
d="M152 276v-106c0 -43 6 -70 37 -70c29 0 33 32 33 72v24h129v-15c0 -118 -54 -189 -162 -189c-117 0 -177 77 -177 220v22c0 143 60 220 177 220c108 0 162 -71 162 -189v-15h-129v24c0 40 -4 72 -33 72c-31 0 -37 -27 -37 -70zM235 483h-99l50 143h141z" />
    <glyph glyph-name="ccaron" unicode="&#x10d;" horiz-adv-x="360" 
d="M152 276v-106c0 -43 6 -70 37 -70c29 0 33 32 33 72v24h129v-15c0 -118 -54 -189 -162 -189c-117 0 -177 77 -177 220v22c0 143 60 220 177 220c108 0 162 -71 162 -189v-15h-129v24c0 40 -4 72 -33 72c-31 0 -37 -27 -37 -70zM253 481h-128l-61 138h89l36 -60l36 60h89z
" />
    <glyph glyph-name="ccircumflex" unicode="&#x109;" horiz-adv-x="360" 
d="M152 276v-106c0 -43 6 -70 37 -70c29 0 33 32 33 72v24h129v-15c0 -118 -54 -189 -162 -189c-117 0 -177 77 -177 220v22c0 143 60 220 177 220c108 0 162 -71 162 -189v-15h-129v24c0 40 -4 72 -33 72c-31 0 -37 -27 -37 -70zM125 616h128l61 -138h-89l-36 60l-36 -60
h-89z" />
    <glyph glyph-name="cdotaccent" unicode="&#x10b;" horiz-adv-x="360" 
d="M152 276v-106c0 -43 6 -70 37 -70c29 0 33 32 33 72v24h129v-15c0 -118 -54 -189 -162 -189c-117 0 -177 77 -177 220v22c0 143 60 220 177 220c108 0 162 -71 162 -189v-15h-129v24c0 40 -4 72 -33 72c-31 0 -37 -27 -37 -70zM120 490v140h139v-140h-139z" />
    <glyph glyph-name="dcaron" unicode="&#x10f;" horiz-adv-x="393" 
d="M232 171v104c0 38 -9 60 -38 60c-24 0 -36 -20 -36 -60v-104c0 -40 12 -60 36 -60c29 0 38 22 38 60zM232 396v234h140v-630h-140v50c-14 -32 -48 -58 -94 -58c-93 0 -123 81 -123 198v66c0 117 30 198 123 198c46 0 80 -26 94 -58zM476 486h-87l14 144h138z" />
    <glyph glyph-name="dcroat" unicode="&#x111;" 
d="M162 488v85h70v57h140v-57h28v-85h-28v-488h-140v50c-14 -32 -48 -58 -94 -58c-93 0 -123 81 -123 198v66c0 117 30 198 123 198c46 0 80 -26 94 -58v92h-70zM232 171v104c0 38 -9 60 -38 60c-24 0 -36 -20 -36 -60v-104c0 -40 12 -60 36 -60c29 0 38 22 38 60z" />
    <glyph glyph-name="ebreve" unicode="&#x115;" horiz-adv-x="370" 
d="M223 270c0 51 -6 77 -35 77c-30 0 -37 -26 -37 -77h72zM12 212v22c0 127 49 220 176 220c126 0 170 -92 170 -219v-46h-207v-20c0 -43 7 -70 39 -70c26 0 36 18 36 51v10h129v-7c0 -95 -59 -161 -163 -161c-122 0 -180 78 -180 220zM189 474c-82 0 -120 60 -120 138h87
c0 -35 13 -48 33 -48s33 13 33 48h87c0 -78 -38 -138 -120 -138z" />
    <glyph glyph-name="ecaron" unicode="&#x11b;" horiz-adv-x="370" 
d="M223 270c0 51 -6 77 -35 77c-30 0 -37 -26 -37 -77h72zM12 212v22c0 127 49 220 176 220c126 0 170 -92 170 -219v-46h-207v-20c0 -43 7 -70 39 -70c26 0 36 18 36 51v10h129v-7c0 -95 -59 -161 -163 -161c-122 0 -180 78 -180 220zM253 481h-128l-61 138h89l36 -60
l36 60h89z" />
    <glyph glyph-name="edotaccent" unicode="&#x117;" horiz-adv-x="370" 
d="M223 270c0 51 -6 77 -35 77c-30 0 -37 -26 -37 -77h72zM12 212v22c0 127 49 220 176 220c126 0 170 -92 170 -219v-46h-207v-20c0 -43 7 -70 39 -70c26 0 36 18 36 51v10h129v-7c0 -95 -59 -161 -163 -161c-122 0 -180 78 -180 220zM120 490v140h139v-140h-139z" />
    <glyph glyph-name="emacron" unicode="&#x113;" horiz-adv-x="370" 
d="M223 270c0 51 -6 77 -35 77c-30 0 -37 -26 -37 -77h72zM12 212v22c0 127 49 220 176 220c126 0 170 -92 170 -219v-46h-207v-20c0 -43 7 -70 39 -70c26 0 36 18 36 51v10h129v-7c0 -95 -59 -161 -163 -161c-122 0 -180 78 -180 220zM85 488v96h208v-96h-208z" />
    <glyph glyph-name="eogonek" unicode="&#x119;" horiz-adv-x="370" 
d="M12 212v22c0 127 49 220 176 220c126 0 170 -92 170 -219v-46h-207v-20c0 -43 7 -70 39 -70c26 0 36 18 36 51v10h129v-7c0 -64 -29 -104 -77 -142c-33 -26 -47 -44 -47 -67c0 -16 9 -27 22 -27c9 0 16 2 29 8v-75c-15 -11 -33 -17 -61 -17c-41 0 -77 22 -77 74
c0 33 13 60 39 85c-115 5 -171 82 -171 220zM223 270c0 51 -6 77 -35 77c-30 0 -37 -26 -37 -77h72z" />
    <glyph glyph-name="gbreve" unicode="&#x11f;" horiz-adv-x="370" 
d="M177 150c-18 0 -34 2 -50 6c-3 -5 -4 -10 -4 -16c0 -16 9 -26 35 -26h73c92 0 147 -45 147 -126c0 -111 -92 -156 -207 -156c-96 0 -178 33 -178 106c0 45 33 67 71 77c-33 11 -53 41 -53 78c0 40 25 68 61 86c-37 25 -61 65 -61 118v11c0 93 74 146 166 146
c37 0 74 -10 103 -29c21 33 55 59 90 59v-116c-12 0 -25 -2 -38 -5c7 -16 11 -35 11 -55v-11c0 -93 -74 -147 -166 -147zM185 474c-82 0 -120 60 -120 138h87c0 -35 13 -48 33 -48s33 13 33 48h87c0 -78 -38 -138 -120 -138zM105 -40c0 -25 29 -39 68 -39c49 0 78 12 78 40
c0 19 -16 28 -38 28h-72c-24 0 -36 -11 -36 -29zM177 247c24 0 31 21 31 48v15c0 27 -7 48 -31 48s-31 -21 -31 -48v-15c0 -27 7 -48 31 -48z" />
    <glyph glyph-name="gcircumflex" unicode="&#x11d;" horiz-adv-x="370" 
d="M177 150c-18 0 -34 2 -50 6c-3 -5 -4 -10 -4 -16c0 -16 9 -26 35 -26h73c92 0 147 -45 147 -126c0 -111 -92 -156 -207 -156c-96 0 -178 33 -178 106c0 45 33 67 71 77c-33 11 -53 41 -53 78c0 40 25 68 61 86c-37 25 -61 65 -61 118v11c0 93 74 146 166 146
c37 0 74 -10 103 -29c21 33 55 59 90 59v-116c-12 0 -25 -2 -38 -5c7 -16 11 -35 11 -55v-11c0 -93 -74 -147 -166 -147zM121 616h128l61 -138h-89l-36 60l-36 -60h-89zM105 -40c0 -25 29 -39 68 -39c49 0 78 12 78 40c0 19 -16 28 -38 28h-72c-24 0 -36 -11 -36 -29z
M177 247c24 0 31 21 31 48v15c0 27 -7 48 -31 48s-31 -21 -31 -48v-15c0 -27 7 -48 31 -48z" />
    <glyph glyph-name="gcommaaccent" unicode="&#x123;" horiz-adv-x="370" 
d="M177 150c-18 0 -34 2 -50 6c-3 -5 -4 -10 -4 -16c0 -16 9 -26 35 -26h73c92 0 147 -45 147 -126c0 -111 -92 -156 -207 -156c-96 0 -178 33 -178 106c0 45 33 67 71 77c-33 11 -53 41 -53 78c0 40 25 68 61 86c-37 25 -61 65 -61 118v11c0 93 74 146 166 146
c37 0 74 -10 103 -29c21 33 55 59 90 59v-116c-12 0 -25 -2 -38 -5c7 -16 11 -35 11 -55v-11c0 -93 -74 -147 -166 -147zM249 580v-93h-128v71c0 72 42 104 128 104v-48c-34 0 -49 -7 -50 -34h50zM105 -40c0 -25 29 -39 68 -39c49 0 78 12 78 40c0 19 -16 28 -38 28h-72
c-24 0 -36 -11 -36 -29zM177 247c24 0 31 21 31 48v15c0 27 -7 48 -31 48s-31 -21 -31 -48v-15c0 -27 7 -48 31 -48z" />
    <glyph glyph-name="gdotaccent" unicode="&#x121;" horiz-adv-x="370" 
d="M177 150c-18 0 -34 2 -50 6c-3 -5 -4 -10 -4 -16c0 -16 9 -26 35 -26h73c92 0 147 -45 147 -126c0 -111 -92 -156 -207 -156c-96 0 -178 33 -178 106c0 45 33 67 71 77c-33 11 -53 41 -53 78c0 40 25 68 61 86c-37 25 -61 65 -61 118v11c0 93 74 146 166 146
c37 0 74 -10 103 -29c21 33 55 59 90 59v-116c-12 0 -25 -2 -38 -5c7 -16 11 -35 11 -55v-11c0 -93 -74 -147 -166 -147zM116 490v140h139v-140h-139zM105 -40c0 -25 29 -39 68 -39c49 0 78 12 78 40c0 19 -16 28 -38 28h-72c-24 0 -36 -11 -36 -29zM177 247
c24 0 31 21 31 48v15c0 27 -7 48 -31 48s-31 -21 -31 -48v-15c0 -27 7 -48 31 -48z" />
    <glyph glyph-name="hbar" unicode="&#x127;" horiz-adv-x="397" 
d="M0 488v85h28v57h140v-57h70v-85h-70v-92c14 33 51 58 100 58c82 0 108 -62 108 -119v-335h-140v294c0 27 -9 41 -30 41c-28 0 -38 -27 -38 -62v-273h-140v488h-28z" />
    <glyph glyph-name="hcircumflex" unicode="&#x125;" horiz-adv-x="390" 
d="M161 273v-273h-140v630h140v-234c14 33 51 58 100 58c82 0 108 -62 108 -119v-335h-140v294c0 27 -9 41 -30 41c-28 0 -38 -27 -38 -62zM131 794h128l61 -138h-89l-36 60l-36 -60h-89z" />
    <glyph glyph-name="ibreve" unicode="&#x12d;" horiz-adv-x="182" 
d="M91 474c-82 0 -110 60 -110 138h87c0 -35 6 -48 23 -48s23 13 23 48h87c0 -78 -28 -138 -110 -138zM21 446h140v-446h-140v446z" />
    <glyph glyph-name="imacron" unicode="&#x12b;" horiz-adv-x="182" 
d="M21 446h140v-446h-140v446zM0 488v96h182v-96h-182z" />
    <glyph glyph-name="iogonek" unicode="&#x12f;" horiz-adv-x="182" 
d="M21 490v140h140v-140h-140zM72 0h-51v446h140v-446c-36 -23 -51 -43 -51 -62c0 -14 9 -21 22 -21c9 0 16 2 29 8v-75c-15 -11 -33 -17 -61 -17c-41 0 -77 22 -77 74c0 37 20 65 49 93z" />
    <glyph glyph-name="itilde" unicode="&#x129;" horiz-adv-x="182" 
d="M36 481h-66c0 82 16 138 65 138c38 0 63 -37 91 -37c12 0 18 12 20 34h66c0 -82 -16 -138 -65 -138c-38 0 -63 37 -91 37c-12 0 -18 -12 -20 -34zM21 446h140v-446h-140v446z" />
    <glyph glyph-name="ij" unicode="&#x133;" horiz-adv-x="354" 
d="M21 446h140v-446h-140v446zM21 490v140h140v-140h-140zM333 446v-485c0 -83 -41 -129 -122 -129c-33 0 -61 6 -85 20l11 89c10 -5 19 -7 28 -7c22 0 28 10 28 30v482h140zM193 490v140h140v-140h-140z" />
    <glyph glyph-name="jcircumflex" unicode="&#x135;" horiz-adv-x="182" 
d="M27 616h128l51 -138h-89l-26 60l-26 -60h-89zM161 446v-485c0 -83 -42 -129 -122 -129c-33 0 -61 6 -85 20l11 89c10 -5 19 -7 28 -7c22 0 28 10 28 30v482h140z" />
    <glyph glyph-name="kcommaaccent" unicode="&#x137;" horiz-adv-x="389" 
d="M161 103v-103h-140v630h140v-365l97 181h129l-95 -184l97 -262h-146l-57 155zM141 -119v93h128v-71c0 -72 -42 -104 -128 -104v48c34 0 49 7 50 34h-50z" />
    <glyph glyph-name="kgreenlandic" unicode="&#x138;" horiz-adv-x="389" 
d="M161 103v-103h-140v446h140v-181l97 181h129l-95 -184l97 -262h-146l-57 155z" />
    <glyph glyph-name="lacute" unicode="&#x13a;" horiz-adv-x="182" 
d="M21 630h140v-630h-140v630zM139 661h-99l50 143h141z" />
    <glyph glyph-name="lcaron" unicode="&#x13e;" horiz-adv-x="182" 
d="M21 630h140v-630h-140v630zM265 486h-87l14 144h138z" />
    <glyph glyph-name="lcommaaccent" unicode="&#x13c;" horiz-adv-x="182" 
d="M21 630h140v-630h-140v630zM27 -119v93h128v-71c0 -72 -42 -104 -128 -104v48c34 0 49 7 50 34h-50z" />
    <glyph glyph-name="ldot" unicode="&#x140;" horiz-adv-x="316" 
d="M21 630h140v-630h-140v630zM185 240v140h128v-140h-128z" />
    <glyph glyph-name="nacute" unicode="&#x144;" horiz-adv-x="390" 
d="M161 273v-273h-140v446h140v-50c14 33 51 58 100 58c82 0 108 -62 108 -119v-335h-140v294c0 27 -9 41 -30 41c-28 0 -38 -27 -38 -62zM241 483h-99l50 143h141z" />
    <glyph glyph-name="ncaron" unicode="&#x148;" horiz-adv-x="390" 
d="M161 273v-273h-140v446h140v-50c14 33 51 58 100 58c82 0 108 -62 108 -119v-335h-140v294c0 27 -9 41 -30 41c-28 0 -38 -27 -38 -62zM259 481h-128l-61 138h89l36 -60l36 60h89z" />
    <glyph glyph-name="ncommaaccent" unicode="&#x146;" horiz-adv-x="390" 
d="M161 273v-273h-140v446h140v-50c14 33 51 58 100 58c82 0 108 -62 108 -119v-335h-140v294c0 27 -9 41 -30 41c-28 0 -38 -27 -38 -62zM131 -119v93h128v-71c0 -72 -42 -104 -128 -104v48c34 0 49 7 50 34h-50z" />
    <glyph glyph-name="eng" unicode="&#x14b;" horiz-adv-x="390" 
d="M161 273v-273h-140v446h140v-50c14 33 51 58 100 58c82 0 108 -62 108 -119v-380c0 -83 -42 -129 -122 -129c-33 0 -61 6 -85 20l11 89c10 -5 19 -7 28 -7c22 0 28 10 28 30v336c0 27 -9 41 -30 41c-28 0 -38 -27 -38 -62z" />
    <glyph glyph-name="obreve" unicode="&#x14f;" horiz-adv-x="378" 
d="M152 277v-108c0 -43 7 -69 37 -69s37 26 37 69v108c0 43 -7 69 -37 69s-37 -26 -37 -69zM366 234v-22c0 -127 -50 -220 -177 -220s-177 93 -177 220v22c0 127 50 220 177 220s177 -93 177 -220zM189 474c-82 0 -120 60 -120 138h87c0 -35 13 -48 33 -48s33 13 33 48h87
c0 -78 -38 -138 -120 -138z" />
    <glyph glyph-name="ohungarumlaut" unicode="&#x151;" horiz-adv-x="378" 
d="M152 277v-108c0 -43 7 -69 37 -69s37 26 37 69v108c0 43 -7 69 -37 69s-37 -26 -37 -69zM366 234v-22c0 -127 -50 -220 -177 -220s-177 93 -177 220v22c0 127 50 220 177 220s177 -93 177 -220zM155 483h-80l33 147h123zM291 483h-80l33 147h123z" />
    <glyph glyph-name="omacron" unicode="&#x14d;" horiz-adv-x="378" 
d="M152 277v-108c0 -43 7 -69 37 -69s37 26 37 69v108c0 43 -7 69 -37 69s-37 -26 -37 -69zM366 234v-22c0 -127 -50 -220 -177 -220s-177 93 -177 220v22c0 127 50 220 177 220s177 -93 177 -220zM85 488v96h208v-96h-208z" />
    <glyph glyph-name="oslashacute" unicode="&#x1ff;" horiz-adv-x="378" 
d="M16 19l30 46c-24 38 -34 89 -34 147v22c0 127 50 220 177 220c38 0 68 -8 93 -23l24 36l56 -40l-30 -46c24 -38 34 -89 34 -147v-22c0 -127 -50 -220 -177 -220c-38 0 -68 8 -93 23l-24 -37zM235 483h-99l50 143h141zM145 280v-62l75 116c-7 9 -18 15 -31 15
c-30 0 -44 -26 -44 -69zM189 97c30 0 44 26 44 69v61l-75 -116c7 -9 18 -14 31 -14z" />
    <glyph glyph-name="racute" unicode="&#x155;" horiz-adv-x="286" 
d="M282 446l-3 -137c-14 5 -30 10 -55 10c-51 0 -63 -30 -63 -82v-237h-140v446h140v-61c13 48 45 67 87 67c15 0 26 -3 34 -6zM197 483h-99l50 143h141z" />
    <glyph glyph-name="rcaron" unicode="&#x159;" horiz-adv-x="286" 
d="M282 446l-3 -137c-14 5 -30 10 -55 10c-51 0 -63 -30 -63 -82v-237h-140v446h140v-61c13 48 45 67 87 67c15 0 26 -3 34 -6zM215 481h-128l-61 138h89l36 -60l36 60h89z" />
    <glyph glyph-name="rcommaaccent" unicode="&#x157;" horiz-adv-x="286" 
d="M282 446l-3 -137c-14 5 -30 10 -55 10c-51 0 -63 -30 -63 -82v-237h-140v446h140v-61c13 48 45 67 87 67c15 0 26 -3 34 -6zM27 -119v93h128v-71c0 -72 -42 -104 -128 -104v48c34 0 49 7 50 34h-50z" />
    <glyph glyph-name="sacute" unicode="&#x15b;" horiz-adv-x="335" 
d="M5 149h119v-9c0 -27 14 -45 42 -45c19 0 29 9 29 26c0 13 -6 22 -27 31l-57 24c-60 24 -104 62 -104 137c0 82 59 141 156 141c100 0 156 -55 156 -144v-13h-120v8c0 28 -6 46 -33 46c-17 0 -27 -11 -27 -26c0 -12 8 -23 22 -29l66 -29c56 -25 101 -60 101 -136
c0 -88 -63 -139 -160 -139c-101 0 -163 52 -163 143v14zM212 483h-99l50 143h141z" />
    <glyph glyph-name="scedilla" unicode="&#x15f;" horiz-adv-x="335" 
d="M262 -97c0 -55 -41 -78 -92 -78c-36 0 -72 13 -92 31l17 56c17 -14 42 -27 65 -27c16 0 24 6 24 18c0 18 -27 25 -69 25l30 65c-87 7 -140 58 -140 142v14h119v-9c0 -27 14 -45 42 -45c19 0 29 9 29 26c0 13 -6 22 -27 31l-57 24c-60 24 -104 62 -104 137
c0 82 59 141 156 141c100 0 156 -55 156 -144v-13h-120v8c0 28 -6 46 -33 46c-17 0 -27 -11 -27 -26c0 -12 8 -23 22 -29l66 -29c56 -25 101 -60 101 -136c0 -81 -53 -130 -136 -138l-8 -18c41 -3 78 -22 78 -72z" />
    <glyph glyph-name="scircumflex" unicode="&#x15d;" horiz-adv-x="335" 
d="M5 149h119v-9c0 -27 14 -45 42 -45c19 0 29 9 29 26c0 13 -6 22 -27 31l-57 24c-60 24 -104 62 -104 137c0 82 59 141 156 141c100 0 156 -55 156 -144v-13h-120v8c0 28 -6 46 -33 46c-17 0 -27 -11 -27 -26c0 -12 8 -23 22 -29l66 -29c56 -25 101 -60 101 -136
c0 -88 -63 -139 -160 -139c-101 0 -163 52 -163 143v14zM102 616h128l61 -138h-89l-36 60l-36 -60h-89z" />
    <glyph glyph-name="scommaaccent" unicode="&#x219;" horiz-adv-x="335" 
d="M5 149h119v-9c0 -27 14 -45 42 -45c19 0 29 9 29 26c0 13 -6 22 -27 31l-57 24c-60 24 -104 62 -104 137c0 82 59 141 156 141c100 0 156 -55 156 -144v-13h-120v8c0 28 -6 46 -33 46c-17 0 -27 -11 -27 -26c0 -12 8 -23 22 -29l66 -29c56 -25 101 -60 101 -136
c0 -88 -63 -139 -160 -139c-101 0 -163 52 -163 143v14zM102 -119v93h128v-71c0 -72 -42 -104 -128 -104v48c34 0 49 7 50 34h-50z" />
    <glyph glyph-name="tbar" unicode="&#x167;" horiz-adv-x="269" 
d="M8 194v97h34v58h-34v86l13 2c42 7 51 32 60 74l12 55h84v-120h71v-97h-71v-58h71v-97h-71v-51c0 -25 10 -36 30 -36c16 0 26 3 50 15v-97c-34 -22 -64 -31 -105 -31c-65 0 -110 29 -110 110v90h-34z" />
    <glyph glyph-name="tcaron" unicode="&#x165;" horiz-adv-x="254" 
d="M34 104v245h-34v86l13 2c42 7 51 32 60 74l12 55h84v-120h71v-97h-71v-206c0 -25 10 -36 30 -36c16 0 26 3 50 15v-97c-34 -22 -64 -31 -105 -31c-65 0 -110 29 -110 110zM271 486h-87l14 144h138z" />
    <glyph glyph-name="ubreve" unicode="&#x16d;" horiz-adv-x="387" 
d="M226 173v273h140v-446h-140v50c-14 -33 -49 -58 -98 -58c-82 0 -107 62 -107 119v335h140v-294c0 -27 8 -41 29 -41c28 0 36 27 36 62zM193 474c-82 0 -120 60 -120 138h87c0 -35 13 -48 33 -48s33 13 33 48h87c0 -78 -38 -138 -120 -138z" />
    <glyph glyph-name="uhungarumlaut" unicode="&#x171;" horiz-adv-x="387" 
d="M226 173v273h140v-446h-140v50c-14 -33 -49 -58 -98 -58c-82 0 -107 62 -107 119v335h140v-294c0 -27 8 -41 29 -41c28 0 36 27 36 62zM159 483h-80l33 147h123zM295 483h-80l33 147h123z" />
    <glyph glyph-name="umacron" unicode="&#x16b;" horiz-adv-x="387" 
d="M226 173v273h140v-446h-140v50c-14 -33 -49 -58 -98 -58c-82 0 -107 62 -107 119v335h140v-294c0 -27 8 -41 29 -41c28 0 36 27 36 62zM89 488v96h208v-96h-208z" />
    <glyph glyph-name="uogonek" unicode="&#x173;" horiz-adv-x="387" 
d="M277 0h-51v50c-14 -33 -49 -58 -98 -58c-82 0 -107 62 -107 119v335h140v-294c0 -27 8 -41 29 -41c28 0 36 27 36 62v273h140v-446c-36 -23 -51 -43 -51 -62c0 -14 9 -21 22 -21c9 0 16 2 29 8v-75c-15 -11 -33 -17 -61 -17c-41 0 -77 22 -77 74c0 37 20 65 49 93z" />
    <glyph glyph-name="uring" unicode="&#x16f;" horiz-adv-x="387" 
d="M226 173v273h140v-446h-140v50c-14 -33 -49 -58 -98 -58c-82 0 -107 62 -107 119v335h140v-294c0 -27 8 -41 29 -41c28 0 36 27 36 62zM157 563c0 -22 12 -37 36 -37c25 0 37 15 37 37c0 21 -12 36 -37 36c-24 0 -36 -15 -36 -36zM98 563c0 52 38 91 95 91
c58 0 96 -39 96 -91c0 -53 -38 -92 -96 -92c-57 0 -95 39 -95 92z" />
    <glyph glyph-name="utilde" unicode="&#x169;" horiz-adv-x="387" 
d="M226 173v273h140v-446h-140v50c-14 -33 -49 -58 -98 -58c-82 0 -107 62 -107 119v335h140v-294c0 -27 8 -41 29 -41c28 0 36 27 36 62zM130 481h-70c0 82 18 138 72 138c42 0 73 -37 103 -37c14 0 20 12 22 34h70c0 -82 -18 -138 -72 -138c-42 0 -73 37 -103 37
c-14 0 -20 -12 -22 -34z" />
    <glyph glyph-name="wacute" unicode="&#x1e83;" horiz-adv-x="538" 
d="M330 446l40 -221h4l44 221h120l-97 -446h-129l-41 250h-4l-41 -250h-129l-97 446h131l45 -222h4l39 222h111zM315 483h-99l50 143h141z" />
    <glyph glyph-name="wcircumflex" unicode="&#x175;" horiz-adv-x="538" 
d="M330 446l40 -221h4l44 221h120l-97 -446h-129l-41 250h-4l-41 -250h-129l-97 446h131l45 -222h4l39 222h111zM205 616h128l61 -138h-89l-36 60l-36 -60h-89z" />
    <glyph glyph-name="wgrave" unicode="&#x1e81;" horiz-adv-x="538" 
d="M330 446l40 -221h4l44 221h120l-97 -446h-129l-41 250h-4l-41 -250h-129l-97 446h131l45 -222h4l39 222h111zM325 483h-98l-93 143h142z" />
    <glyph glyph-name="wdieresis" unicode="&#x1e85;" horiz-adv-x="538" 
d="M330 446l40 -221h4l44 221h120l-97 -446h-129l-41 250h-4l-41 -250h-129l-97 446h131l45 -222h4l39 222h111zM146 482v129h111v-129h-111zM281 482v129h111v-129h-111z" />
    <glyph glyph-name="ycircumflex" unicode="&#x177;" horiz-adv-x="376" 
d="M123 -16l-123 462h137l55 -242h4l58 242h122l-161 -606h-132zM124 616h128l61 -138h-89l-36 60l-36 -60h-89z" />
    <glyph glyph-name="ygrave" unicode="&#x1ef3;" horiz-adv-x="376" 
d="M123 -16l-123 462h137l55 -242h4l58 242h122l-161 -606h-132zM244 483h-98l-93 143h142z" />
    <glyph glyph-name="zacute" unicode="&#x17a;" horiz-adv-x="328" 
d="M161 344h-142v102h290v-95l-145 -249h149v-102h-298v96zM216 483h-99l50 143h141z" />
    <glyph glyph-name="zdotaccent" unicode="&#x17c;" horiz-adv-x="328" 
d="M161 344h-142v102h290v-95l-145 -249h149v-102h-298v96zM101 490v140h139v-140h-139z" />
    <glyph glyph-name="caron.Slovak" 
d="M211 486h-87l14 144h138z" />
    <glyph glyph-name="cedilla.alt" 
d="M279 -97c0 -55 -41 -78 -92 -78c-36 0 -72 13 -92 31l17 56c17 -14 42 -27 65 -27c16 0 24 6 24 18c0 18 -27 25 -69 25l39 83h47l-17 -36c41 -3 78 -22 78 -72z" />
    <glyph glyph-name="grave.cap" 
d="M295 661h-98l-93 143h142z" />
    <glyph glyph-name="acute.cap" 
d="M203 661h-99l50 143h141z" />
    <glyph glyph-name="circumflex.cap" 
d="M136 794h128l61 -138h-89l-36 60l-36 -60h-89z" />
    <glyph glyph-name="caron.cap" 
d="M264 659h-128l-61 138h89l36 -60l36 60h89z" />
    <glyph glyph-name="tilde.cap" 
d="M153 659h-70c0 82 18 138 72 138c42 0 73 -37 103 -37c14 0 20 12 22 34h70c0 -82 -18 -138 -72 -138c-42 0 -73 37 -103 37c-14 0 -20 -12 -22 -34z" />
    <glyph glyph-name="macron.cap" 
d="M96 666v96h208v-96h-208z" />
    <glyph glyph-name="breve.cap" 
d="M199 652c-82 0 -120 60 -120 138h87c0 -35 13 -48 33 -48s33 13 33 48h87c0 -78 -38 -138 -120 -138z" />
    <glyph glyph-name="dotaccent.cap" 
d="M130 668v140h139v-140h-139z" />
    <glyph glyph-name="dieresis.cap" 
d="M77 660v129h111v-129h-111zM212 660v129h111v-129h-111z" />
    <glyph glyph-name="ring.cap" 
d="M163 741c0 -22 12 -37 36 -37c25 0 37 15 37 37c0 21 -12 36 -37 36c-24 0 -36 -15 -36 -36zM104 741c0 52 38 91 95 91c58 0 96 -39 96 -91c0 -53 -38 -92 -96 -92c-57 0 -95 39 -95 92z" />
    <glyph glyph-name="hungarumlaut.cap" 
d="M146 661h-80l33 147h123zM282 661h-80l33 147h123z" />
    <glyph glyph-name="exclamdown.cap" horiz-adv-x="188" 
d="M165 487h-142v143h142v-143zM51 432h86l33 -266v-166h-152v166z" />
    <glyph glyph-name="questiondown.cap" 
d="M88 339c36 45 51 64 52 93h132c-2 -51 -13 -76 -53 -131c-35 -48 -64 -89 -64 -139c0 -27 11 -54 46 -54c39 0 47 34 47 75v52h140v-40c0 -120 -60 -203 -187 -203c-126 0 -189 64 -189 179c0 74 37 119 76 168zM277 487h-142v143h142v-143z" />
    <glyph glyph-name="guilsinglleft.cap" horiz-adv-x="219" 
d="M20 246v144l179 125v-136l-82 -61l82 -61v-136z" />
    <glyph glyph-name="guilsinglright.cap" horiz-adv-x="219" 
d="M199 390v-144l-179 -125v136l82 61l-82 61v136z" />
    <glyph glyph-name="guillemotleft.cap" horiz-adv-x="420" 
d="M20 246v144l179 125v-136l-82 -61l82 -61v-136zM221 246v144l179 125v-136l-82 -61l82 -61v-136z" />
    <glyph glyph-name="guillemotright.cap" horiz-adv-x="420" 
d="M199 390v-144l-179 -125v136l82 61l-82 61v136zM400 390v-144l-179 -125v136l82 61l-82 61v136z" />
    <glyph glyph-name="slash.cap" horiz-adv-x="221" 
d="M0 0l100 629h121l-100 -629h-121z" />
    <glyph glyph-name="backslash.cap" horiz-adv-x="221" 
d="M121 629l100 -629h-121l-100 629h121z" />
    <glyph glyph-name="bar.cap" horiz-adv-x="163" 
d="M22 0v630h119v-630h-119z" />
    <glyph glyph-name="periodcentered.cap" horiz-adv-x="183" 
d="M20 240v143h143v-143h-143z" />
    <glyph glyph-name="bullet.cap" horiz-adv-x="380" 
d="M360 329c0 -101 -76 -170 -170 -170s-170 69 -170 170s76 170 170 170s170 -69 170 -170z" />
    <glyph glyph-name="hyphen.cap" horiz-adv-x="214" 
d="M18 255v122h178v-122h-178z" />
    <glyph glyph-name="endash.cap" horiz-adv-x="266" 
d="M18 267v95h230v-95h-230z" />
    <glyph glyph-name="emdash.cap" horiz-adv-x="388" 
d="M18 267v95h352v-95h-352z" />
    <glyph glyph-name="parenleft.cap" horiz-adv-x="231" 
d="M20 308c0 130 35 275 96 372h115c-65 -121 -85 -250 -85 -372s20 -251 85 -372h-115c-61 97 -96 242 -96 372z" />
    <glyph glyph-name="parenright.cap" horiz-adv-x="231" 
d="M211 308c0 -130 -35 -275 -96 -372h-115c65 121 85 250 85 372s-20 251 -85 372h115c61 -97 96 -242 96 -372z" />
    <glyph glyph-name="bracketleft.cap" horiz-adv-x="193" 
d="M138 582v-548h45v-98h-161v744h161v-98h-45z" />
    <glyph glyph-name="bracketright.cap" horiz-adv-x="193" 
d="M55 34v548h-45v98h161v-744h-161v98h45z" />
    <glyph glyph-name="braceleft.cap" horiz-adv-x="233" 
d="M15 259v98h9c30 0 37 14 37 44v151c0 86 46 128 121 128h41v-98h-21c-17 0 -20 -11 -20 -30v-130c0 -68 -21 -104 -82 -114c61 -10 82 -46 82 -114v-130c0 -19 3 -30 20 -30h21v-98h-41c-75 0 -121 42 -121 128v151c0 30 -7 44 -37 44h-9z" />
    <glyph glyph-name="braceright.cap" horiz-adv-x="233" 
d="M218 357v-98h-9c-30 0 -37 -14 -37 -44v-151c0 -86 -46 -128 -121 -128h-41v98h21c17 0 20 11 20 30v130c0 68 21 104 82 114c-61 10 -82 46 -82 114v130c0 19 -3 30 -20 30h-21v98h41c75 0 121 -42 121 -128v-151c0 -30 7 -44 37 -44h9z" />
    <glyph glyph-name="at.cap" horiz-adv-x="625" 
d="M460 216c43 0 62 67 62 162c0 131 -56 208 -180 208c-146 0 -235 -118 -235 -308c0 -157 86 -229 200 -229c60 0 109 13 162 46l18 -68c-52 -40 -114 -57 -181 -57c-160 0 -286 104 -286 308c0 233 132 389 322 389c167 0 264 -120 264 -289c0 -166 -75 -242 -165 -242
c-49 0 -78 23 -93 60c-19 -41 -48 -60 -89 -60c-61 0 -103 52 -103 143c0 112 56 217 138 217c43 0 63 -23 74 -55l11 47h98l-43 -222c-7 -33 2 -50 26 -50zM340 307l3 16c9 50 3 76 -21 76c-30 0 -51 -55 -51 -118c0 -28 8 -48 28 -48c21 0 31 19 41 74z" />
    <glyph glyph-name="uni2153" unicode="&#x2153;" horiz-adv-x="298" 
d="M63 534v55c30 0 51 12 57 41h68v-268h-84v172h-41zM210 133c23 -9 38 -29 38 -58c0 -51 -37 -82 -102 -82c-64 0 -102 36 -102 94v13h76v-10c0 -20 10 -31 26 -31c14 0 22 8 22 25c0 13 -7 24 -23 24c-4 0 -10 0 -18 -1v52c8 -1 14 -1 18 -1c13 0 21 9 21 25
c0 14 -7 22 -22 22c-13 0 -23 -10 -23 -29v-10h-74v12c0 57 37 93 100 93c65 0 99 -34 99 -81c0 -30 -13 -51 -36 -57zM20 295v43h258v-43h-258z" />
    <glyph glyph-name="uni2154" unicode="&#x2154;" horiz-adv-x="298" 
d="M210 133c23 -9 38 -29 38 -58c0 -51 -37 -82 -102 -82c-64 0 -102 36 -102 94v13h76v-10c0 -20 10 -31 26 -31c14 0 22 8 22 25c0 13 -7 24 -23 24c-4 0 -10 0 -18 -1v52c8 -1 14 -1 18 -1c13 0 21 9 21 25c0 14 -7 22 -22 22c-13 0 -23 -10 -23 -29v-10h-74v12
c0 57 37 93 100 93c65 0 99 -34 99 -81c0 -30 -13 -51 -36 -57zM209 472l-50 -42h89v-68h-198v59l76 71c28 26 40 35 40 53c0 13 -5 21 -16 21c-14 0 -21 -10 -21 -36v-8h-80v15c0 55 30 98 100 98c66 0 101 -29 101 -86c0 -28 -13 -54 -41 -77zM20 295v43h258v-43h-258z
" />
    <glyph glyph-name="uni215B" unicode="&#x215b;" horiz-adv-x="298" 
d="M149 162c15 0 24 8 24 23c0 16 -9 24 -24 24s-24 -8 -24 -24c0 -15 9 -23 24 -23zM149 59c18 0 27 8 27 23c0 16 -9 24 -27 24s-27 -8 -27 -24c0 -15 9 -23 27 -23zM63 534v55c30 0 51 12 57 41h68v-268h-84v172h-41zM149 -5c-61 0 -106 31 -106 82c0 30 15 49 38 57
c-22 7 -35 30 -35 56c0 52 40 83 103 83s103 -31 103 -83c0 -26 -13 -49 -35 -56c23 -8 38 -27 38 -57c0 -51 -45 -82 -106 -82zM20 295v43h258v-43h-258z" />
    <glyph glyph-name="uni215C" unicode="&#x215c;" horiz-adv-x="298" 
d="M149 162c15 0 24 8 24 23c0 16 -9 24 -24 24s-24 -8 -24 -24c0 -15 9 -23 24 -23zM149 59c18 0 27 8 27 23c0 16 -9 24 -27 24s-27 -8 -27 -24c0 -15 9 -23 27 -23zM149 -5c-61 0 -106 31 -106 82c0 30 15 49 38 57c-22 7 -35 30 -35 56c0 52 40 83 103 83
s103 -31 103 -83c0 -26 -13 -49 -35 -56c23 -8 38 -27 38 -57c0 -51 -45 -82 -106 -82zM211 497c23 -9 38 -29 38 -58c0 -51 -37 -82 -102 -82c-64 0 -102 36 -102 94v13h76v-10c0 -20 10 -31 26 -31c14 0 22 8 22 25c0 13 -7 24 -23 24c-4 0 -10 0 -18 -1v52
c8 -1 14 -1 18 -1c13 0 21 9 21 25c0 14 -7 22 -22 22c-13 0 -23 -10 -23 -29v-10h-74v12c0 57 37 93 100 93c65 0 99 -34 99 -81c0 -30 -13 -51 -36 -57zM20 293v43h258v-43h-258z" />
    <glyph glyph-name="uni215D" unicode="&#x215d;" horiz-adv-x="298" 
d="M149 -5c-61 0 -106 31 -106 82c0 30 15 49 38 57c-22 7 -35 30 -35 56c0 52 40 83 103 83s103 -31 103 -83c0 -26 -13 -49 -35 -56c23 -8 38 -27 38 -57c0 -51 -45 -82 -106 -82zM149 484c-11 0 -17 -5 -21 -13l-78 6c5 42 14 109 16 153h169v-69h-109l-4 -30
c10 7 27 12 47 12c49 0 83 -28 83 -88s-39 -98 -104 -98c-66 0 -101 37 -101 93v4h79v-4c0 -18 7 -29 23 -29c17 0 23 14 23 32c0 17 -6 31 -23 31zM20 293v43h258v-43h-258zM149 59c18 0 27 8 27 23c0 16 -9 24 -27 24s-27 -8 -27 -24c0 -15 9 -23 27 -23zM149 162
c15 0 24 8 24 23c0 16 -9 24 -24 24s-24 -8 -24 -24c0 -15 9 -23 24 -23z" />
    <glyph glyph-name="uni215E" unicode="&#x215e;" horiz-adv-x="298" 
d="M149 162c15 0 24 8 24 23c0 16 -9 24 -24 24s-24 -8 -24 -24c0 -15 9 -23 24 -23zM149 59c18 0 27 8 27 23c0 16 -9 24 -27 24s-27 -8 -27 -24c0 -15 9 -23 27 -23zM149 -5c-61 0 -106 31 -106 82c0 30 15 49 38 57c-22 7 -35 30 -35 56c0 52 40 83 103 83
s103 -31 103 -83c0 -26 -13 -49 -35 -56c23 -8 38 -27 38 -57c0 -51 -45 -82 -106 -82zM160 556h-108v74h192v-66c-44 -61 -62 -118 -62 -202h-92c1 85 30 135 70 194zM20 293v43h258v-43h-258z" />
    </font>
</defs>
</svg>
