<?xml version="1.0" standalone="no"?>
<!DOCTYPE svg PUBLIC "-//W3C//DTD SVG 1.1//EN" "http://www.w3.org/Graphics/SVG/1.1/DTD/svg11.dtd" >
<svg xmlns="http://www.w3.org/2000/svg" xmlns:xlink="http://www.w3.org/1999/xlink" version="1.1">
<metadata>
Created by FontForge 20150318 at Mon Jun  8 12:02:19 2015
 By uniteet7
(c) 2010 Klim Type Foundry. All rights reserved.
</metadata>
<defs>
<font id="FoundersGroteskXCond-Reg" horiz-adv-x="278" >
  <font-face 
    font-family="Founders Grotesk X-Condensed"
    font-weight="400"
    font-stretch="condensed"
    units-per-em="1000"
    panose-1="2 11 5 3 3 2 2 6 2 3"
    ascent="630"
    descent="-370"
    x-height="436"
    cap-height="630"
    bbox="-35 -177 640 876"
    underline-thickness="40"
    underline-position="-30"
    stemh="52"
    stemv="68"
    unicode-range="U+0020-FB04"
  />
<missing-glyph horiz-adv-x="608" 
 />
    <glyph glyph-name="fi" unicode="fi" horiz-adv-x="298" 
d="M177 630v-50c-10 5 -20 7 -34 7c-30 0 -40 -25 -40 -54v-97h63v-47h-63v-389h-64v389h-37v47h37v85c0 69 30 117 97 117c18 0 29 -3 41 -8zM203 436h65v-436h-65v436zM203 514v86h65v-86h-65z" />
    <glyph glyph-name="fl" unicode="fl" horiz-adv-x="298" 
d="M177 630v-50c-10 5 -20 7 -34 7c-30 0 -40 -25 -40 -54v-97h63v-47h-63v-389h-64v389h-37v47h37v85c0 69 30 117 97 117c18 0 29 -3 41 -8zM203 630h65v-630h-65v630z" />
    <glyph glyph-name="ff" unicode="ff" horiz-adv-x="334" 
d="M350 630l-5 -49c-12 5 -21 7 -36 7c-31 0 -41 -25 -41 -53v-99h63v-47h-63v-389h-65v389h-100v-389h-64v389h-37v47h37v79c0 69 30 117 100 117c19 0 32 -3 45 -8l-6 -49c-10 5 -20 7 -34 7c-31 0 -41 -25 -41 -53v-93h100v85c0 69 31 117 101 117c20 0 34 -3 46 -8z" />
    <glyph glyph-name="ffi" unicode="ffi" horiz-adv-x="462" 
d="M203 436v85c0 69 30 117 97 117c18 0 29 -3 42 -8v-50c-11 5 -21 7 -34 7c-31 0 -40 -25 -40 -54v-97h62v-47h-62v-389h-65v389h-100v-389h-64v389h-37v47h37v79c0 69 30 117 100 117c19 0 32 -3 45 -8l-6 -49c-10 5 -20 7 -34 7c-31 0 -41 -25 -41 -53v-93h100zM367 436
h65v-436h-65v436zM367 514v86h65v-86h-65z" />
    <glyph glyph-name="ffl" unicode="ffl" horiz-adv-x="462" 
d="M203 436v85c0 69 30 117 97 117c18 0 29 -3 42 -8v-50c-11 5 -21 7 -34 7c-31 0 -40 -25 -40 -54v-97h62v-47h-62v-389h-65v389h-100v-389h-64v389h-37v47h37v79c0 69 30 117 100 117c19 0 32 -3 45 -8l-6 -49c-10 5 -20 7 -34 7c-31 0 -41 -25 -41 -53v-93h100zM367 630
h65v-630h-65v630z" />
    <glyph glyph-name="f_b" unicode="fb" horiz-adv-x="472" 
d="M177 630v-50c-10 5 -20 7 -34 7c-30 0 -40 -25 -40 -54v-97h63v-47h-63v-389h-64v389h-37v47h37v85c0 69 30 117 97 117c18 0 29 -3 41 -8zM268 279v-122c0 -69 21 -112 59 -112c45 0 61 50 61 150v46c0 100 -16 150 -61 150c-38 0 -59 -43 -59 -112zM268 630v-244
c11 33 40 58 79 58c75 0 107 -71 107 -212v-28c0 -141 -32 -212 -107 -212c-39 0 -68 25 -79 58l-10 -50h-55v630h65z" />
    <glyph glyph-name="f_f_b" unicode="ffb" horiz-adv-x="636" 
d="M203 436v85c0 69 30 117 97 117c18 0 29 -3 42 -8v-50c-11 5 -21 7 -34 7c-31 0 -40 -25 -40 -54v-97h62v-47h-62v-389h-65v389h-100v-389h-64v389h-37v47h37v79c0 69 30 117 100 117c19 0 32 -3 45 -8l-6 -49c-10 5 -20 7 -34 7c-31 0 -41 -25 -41 -53v-93h100zM432 279
v-122c0 -69 21 -112 59 -112c45 0 61 50 61 150v46c0 100 -16 150 -61 150c-38 0 -59 -43 -59 -112zM432 630v-244c11 33 40 58 79 58c75 0 107 -71 107 -212v-28c0 -141 -32 -212 -107 -212c-39 0 -68 25 -79 58l-10 -50h-55v630h65z" />
    <glyph glyph-name="f_h" unicode="fh" horiz-adv-x="478" 
d="M177 630v-50c-10 5 -20 7 -34 7c-30 0 -40 -25 -40 -54v-97h63v-47h-63v-389h-64v389h-37v47h37v85c0 69 30 117 97 117c18 0 29 -3 41 -8zM268 289v-289h-65v630h65v-242c12 31 44 56 87 56c71 0 93 -54 93 -111v-333h-65v317c0 45 -15 72 -53 72
c-43 0 -62 -44 -62 -100z" />
    <glyph glyph-name="f_f_h" unicode="ffh" horiz-adv-x="642" 
d="M203 436v85c0 69 30 117 97 117c18 0 29 -3 42 -8v-50c-11 5 -21 7 -34 7c-31 0 -40 -25 -40 -54v-97h62v-47h-62v-389h-65v389h-100v-389h-64v389h-37v47h37v79c0 69 30 117 100 117c19 0 32 -3 45 -8l-6 -49c-10 5 -20 7 -34 7c-31 0 -41 -25 -41 -53v-93h100zM432 289
v-289h-65v630h65v-242c12 31 44 56 87 56c71 0 93 -54 93 -111v-333h-65v317c0 45 -15 72 -53 72c-43 0 -62 -44 -62 -100z" />
    <glyph glyph-name="f_j" unicode="fj" horiz-adv-x="298" 
d="M177 630v-50c-10 5 -20 7 -34 7c-30 0 -40 -25 -40 -54v-97h63v-47h-63v-389h-64v389h-37v47h37v85c0 69 30 117 97 117c18 0 29 -3 41 -8zM268 436v-507c0 -69 -25 -105 -86 -105c-18 0 -32 3 -44 9l6 46c7 -3 16 -5 25 -5c26 0 34 15 34 47v515h65zM203 514v86h65v-86
h-65z" />
    <glyph glyph-name="f_f_j" unicode="ffj" horiz-adv-x="462" 
d="M203 436v85c0 69 30 117 97 117c18 0 29 -3 42 -8v-50c-11 5 -21 7 -34 7c-31 0 -40 -25 -40 -54v-97h62v-47h-62v-389h-65v389h-100v-389h-64v389h-37v47h37v79c0 69 30 117 100 117c19 0 32 -3 45 -8l-6 -49c-10 5 -20 7 -34 7c-31 0 -41 -25 -41 -53v-93h100zM432 436
v-507c0 -69 -25 -105 -86 -105c-18 0 -32 3 -44 9l6 46c7 -3 16 -5 25 -5c26 0 34 15 34 47v515h65zM367 514v86h65v-86h-65z" />
    <glyph glyph-name="f_k" unicode="fk" horiz-adv-x="469" 
d="M177 630v-50c-10 5 -20 7 -34 7c-30 0 -40 -25 -40 -54v-97h63v-47h-63v-389h-64v389h-37v47h37v85c0 69 30 117 97 117c18 0 29 -3 41 -8zM268 140v-140h-65v630h65v-405l126 211h64l-113 -189l123 -247h-70l-98 196z" />
    <glyph glyph-name="f_f_k" unicode="ffk" horiz-adv-x="633" 
d="M203 436v85c0 69 30 117 97 117c18 0 29 -3 42 -8v-50c-11 5 -21 7 -34 7c-31 0 -40 -25 -40 -54v-97h62v-47h-62v-389h-65v389h-100v-389h-64v389h-37v47h37v79c0 69 30 117 100 117c19 0 32 -3 45 -8l-6 -49c-10 5 -20 7 -34 7c-31 0 -41 -25 -41 -53v-93h100zM432 140
v-140h-65v630h65v-405l126 211h64l-113 -189l123 -247h-70l-98 196z" />
    <glyph glyph-name=".notdef" horiz-adv-x="608" 
 />
    <glyph glyph-name="space" unicode=" " horiz-adv-x="112" 
 />
    <glyph glyph-name="exclam" unicode="!" horiz-adv-x="120" 
d="M22 75h75v-75h-75v75zM73 155h-25l-23 296v179h71v-179z" />
    <glyph glyph-name="quotedbl" unicode="&#x22;" horiz-adv-x="183" 
d="M21 436v194h57v-194h-57zM105 436v194h57v-194h-57z" />
    <glyph glyph-name="numbersign" unicode="#" horiz-adv-x="394" 
d="M354 224l-7 -51h-81l-29 -173h-52l29 173h-77l-28 -173h-53l29 173h-74l7 51h75l32 190h-85l8 51h85l28 165h52l-27 -165h76l28 165h53l-28 -165h68l-7 -51h-70l-32 -190h80zM177 414l-31 -190h76l32 190h-77z" />
    <glyph glyph-name="dollar" unicode="$" horiz-adv-x="300" 
d="M132 -63v59c-80 8 -120 71 -120 166v66h60v-68c0 -63 20 -103 60 -112v241l-28 23c-43 36 -89 75 -89 172c0 82 41 144 117 150v59h35v-59c78 -10 113 -72 113 -165v-61h-60v63c0 60 -16 100 -53 110v-240l23 -19c50 -38 96 -81 96 -174c0 -85 -43 -145 -119 -152v-59
h-35zM77 486c0 -65 20 -87 55 -116v213c-39 -7 -55 -43 -55 -97zM223 145c0 62 -23 85 -56 114v-212c37 8 56 45 56 98z" />
    <glyph glyph-name="percent" unicode="%" horiz-adv-x="439" 
d="M68 497c0 -66 14 -93 47 -93s47 27 47 93s-14 93 -47 93s-47 -27 -47 -93zM214 497c0 -87 -35 -139 -99 -139s-99 52 -99 139c0 86 35 139 99 139s99 -53 99 -139zM44 0l299 630h52l-299 -630h-52zM277 133c0 -66 14 -93 47 -93s47 27 47 93s-14 93 -47 93
s-47 -27 -47 -93zM423 133c0 -86 -35 -139 -99 -139c-65 0 -100 53 -100 139c0 87 35 139 100 139c64 0 99 -52 99 -139z" />
    <glyph glyph-name="ampersand" unicode="&#x26;" horiz-adv-x="377" 
d="M296 319l52 -4c-9 -83 -28 -157 -56 -214c16 -28 27 -48 52 -48c10 0 19 1 32 6v-47c-13 -11 -29 -16 -42 -16c-32 0 -55 14 -79 49c-29 -34 -65 -53 -108 -53c-80 0 -141 64 -141 170c0 84 34 134 89 178c-27 46 -51 90 -51 156c0 85 50 142 117 142
c69 0 110 -59 110 -130c0 -86 -42 -131 -102 -177l93 -173c16 44 27 100 34 161zM155 51c29 0 54 14 73 40l-107 201c-33 -33 -51 -71 -51 -127c0 -63 29 -114 85 -114zM106 497c0 -46 19 -84 39 -121c49 38 67 71 67 132c0 37 -15 73 -50 73c-32 0 -56 -27 -56 -84z" />
    <glyph glyph-name="quoteright" unicode="&#x2019;" horiz-adv-x="111" 
d="M18 557v73h75v-75c0 -54 -14 -79 -75 -79v35c30 1 35 9 35 46h-35z" />
    <glyph glyph-name="parenleft" unicode="(" horiz-adv-x="165" 
d="M20 288c0 135 30 275 87 372h58c-64 -119 -83 -246 -83 -372s19 -253 83 -372h-58c-57 97 -87 237 -87 372z" />
    <glyph glyph-name="parenright" unicode=")" horiz-adv-x="165" 
d="M145 288c0 -135 -30 -275 -87 -372h-58c64 119 83 246 83 372s-19 253 -83 372h58c57 -97 87 -237 87 -372z" />
    <glyph glyph-name="asterisk" unicode="*" horiz-adv-x="237" 
d="M12 545l14 40l71 -25v77h42v-77l72 25l13 -40l-72 -22l44 -61l-33 -26l-46 61l-43 -62l-33 26l44 60z" />
    <glyph glyph-name="plus" unicode="+" horiz-adv-x="365" 
d="M157 454h50v-128h128v-49h-128v-128h-50v128h-127v49h127v128z" />
    <glyph glyph-name="comma" unicode="," horiz-adv-x="111" 
d="M18 0v75h75v-78c0 -56 -12 -84 -75 -84v37c30 1 34 10 34 50h-34z" />
    <glyph glyph-name="hyphen" unicode="-" horiz-adv-x="170" 
d="M18 225v59h134v-59h-134z" />
    <glyph glyph-name="period" unicode="." horiz-adv-x="111" 
d="M18 0v75h75v-75h-75z" />
    <glyph glyph-name="slash" unicode="/" horiz-adv-x="168" 
d="M-9 -84l116 744h59l-116 -744h-59z" />
    <glyph glyph-name="zero" unicode="0" horiz-adv-x="341" 
d="M317 368v-106c0 -174 -40 -270 -147 -270s-147 96 -147 270v106c0 174 40 270 147 270s147 -96 147 -270zM93 398v-166c0 -116 18 -184 77 -184c60 0 78 68 78 184v166c0 116 -18 184 -78 184c-59 0 -77 -68 -77 -184z" />
    <glyph glyph-name="one" unicode="1" horiz-adv-x="178" 
d="M1 496v43c75 2 86 29 106 96h39v-635h-68v496h-77z" />
    <glyph glyph-name="two" unicode="2" horiz-adv-x="301" 
d="M208 249l-116 -190h198v-59h-278v46l138 224c45 75 67 123 67 201c0 65 -16 111 -68 111c-50 0 -69 -38 -69 -121v-57h-64v54c0 116 41 180 133 180c89 0 134 -60 134 -168c0 -93 -30 -147 -75 -221z" />
    <glyph glyph-name="three" unicode="3" horiz-adv-x="300" 
d="M93 286v61c16 -3 33 -3 49 -3c52 0 75 24 75 113c0 85 -18 128 -70 128c-53 0 -69 -46 -69 -133v-50h-63v56c0 102 29 180 132 180c105 0 135 -75 135 -178c0 -85 -28 -136 -76 -143c48 -12 78 -62 78 -143c0 -107 -35 -182 -137 -182s-134 78 -134 180v59h63v-53
c0 -87 18 -133 71 -133c52 0 71 43 71 132c0 85 -24 113 -76 113c-16 0 -33 -1 -49 -4z" />
    <glyph glyph-name="four" unicode="4" horiz-adv-x="342" 
d="M271 630v-420h65v-54h-65v-156h-66v156h-200v47l203 427h63zM205 517l-143 -307h143v307z" />
    <glyph glyph-name="five" unicode="5" horiz-adv-x="307" 
d="M24 283c16 87 24 243 25 347h227v-63h-172c-2 -45 -8 -155 -13 -197c13 30 45 44 75 44c95 0 123 -93 123 -207c0 -137 -35 -215 -136 -215c-103 0 -134 79 -134 183v52h62v-47c0 -87 20 -135 71 -135c52 0 72 45 72 161c0 88 -14 154 -74 154c-46 0 -60 -39 -65 -82z
" />
    <glyph glyph-name="six" unicode="6" horiz-adv-x="327" 
d="M169 638c93 0 131 -76 131 -190v-33h-63v33c0 85 -19 135 -70 135c-56 0 -78 -73 -78 -192v-70c14 39 48 67 92 67c87 0 128 -81 128 -197c0 -108 -42 -199 -140 -199c-107 0 -146 95 -146 267v111c0 173 40 268 146 268zM91 191c0 -87 24 -144 76 -144s76 57 76 144
c0 88 -24 143 -76 143s-76 -55 -76 -143z" />
    <glyph glyph-name="seven" unicode="7" horiz-adv-x="293" 
d="M220 566h-215v64h283v-50c-107 -146 -121 -377 -121 -580h-71c1 207 24 429 124 566z" />
    <glyph glyph-name="eight" unicode="8" horiz-adv-x="312" 
d="M156 346c51 0 72 40 72 119s-21 120 -72 120c-52 0 -72 -41 -72 -120s20 -119 72 -119zM156 45c51 0 74 40 74 124c0 85 -23 125 -74 125s-74 -40 -74 -125c0 -84 23 -124 74 -124zM156 -8c-101 0 -139 75 -139 176c0 84 29 138 78 150c-48 12 -76 67 -76 148
c0 97 36 172 137 172s137 -75 137 -172c0 -81 -29 -136 -77 -148c49 -12 79 -66 79 -150c0 -101 -38 -176 -139 -176z" />
    <glyph glyph-name="nine" unicode="9" horiz-adv-x="327" 
d="M158 -8c-93 0 -131 76 -131 190v33h63v-33c0 -85 19 -135 70 -135c56 0 78 73 78 192v70c-14 -39 -48 -67 -92 -67c-87 0 -128 81 -128 197c0 108 42 199 140 199c107 0 146 -95 146 -267v-111c0 -173 -40 -268 -146 -268zM236 439c0 87 -24 144 -76 144
s-76 -57 -76 -144c0 -88 24 -143 76 -143s76 55 76 143z" />
    <glyph glyph-name="colon" unicode=":" horiz-adv-x="111" 
d="M18 0v75h75v-75h-75zM18 321v75h75v-75h-75z" />
    <glyph glyph-name="semicolon" unicode=";" horiz-adv-x="111" 
d="M18 0v75h75v-78c0 -56 -12 -84 -75 -84v37c30 1 34 10 34 50h-34zM18 321v75h75v-75h-75z" />
    <glyph glyph-name="less" unicode="&#x3c;" horiz-adv-x="275" 
d="M22 267v66l233 117v-58l-188 -92l188 -94v-58z" />
    <glyph glyph-name="equal" unicode="=" horiz-adv-x="374" 
d="M35 226v46h305v-46h-305zM35 328v47h305v-47h-305z" />
    <glyph glyph-name="greater" unicode="&#x3e;" horiz-adv-x="275" 
d="M252 333v-66l-232 -119v58l187 94l-187 92v58z" />
    <glyph glyph-name="question" unicode="?" horiz-adv-x="293" 
d="M211 273c-28 -48 -36 -75 -37 -115h-60c1 56 7 79 39 137c39 71 60 112 60 177c0 64 -15 110 -67 110c-50 0 -70 -38 -70 -121v-60h-64v57c0 116 44 180 134 180c89 0 133 -60 133 -168c0 -80 -31 -131 -68 -197zM108 75h75v-75h-75v75z" />
    <glyph glyph-name="at" unicode="@" horiz-adv-x="516" 
d="M372 81c40 0 69 60 69 184c0 138 -54 229 -163 229c-129 0 -202 -126 -202 -311c0 -173 75 -267 181 -267c51 0 93 13 138 46l15 -38c-44 -39 -95 -56 -154 -56c-130 0 -232 106 -232 315c0 212 99 362 254 362c134 0 214 -114 214 -280c0 -161 -63 -234 -127 -234
c-35 0 -57 24 -63 62c-16 -42 -48 -62 -80 -62c-57 0 -90 51 -90 135c0 102 51 215 131 215c37 0 60 -26 68 -61l11 53h49l-44 -234c-7 -43 2 -58 25 -58zM305 193l5 25c10 59 0 109 -38 109c-48 0 -84 -74 -84 -162c0 -53 18 -80 46 -80c30 0 57 32 71 108z" />
    <glyph glyph-name="A" unicode="A" horiz-adv-x="336" 
d="M128 630h80l128 -630h-68l-38 196h-129l-37 -196h-64zM164 521l-52 -269h107l-51 269h-4z" />
    <glyph glyph-name="B" unicode="B" horiz-adv-x="333" 
d="M316 175c0 -112 -45 -175 -175 -175h-109v630h101c139 0 171 -68 171 -166c0 -74 -37 -124 -98 -137c73 -12 110 -66 110 -152zM141 299h-44v-243h44c83 0 109 43 109 122c0 78 -26 121 -109 121zM97 574v-221h39c83 0 102 41 102 110c0 66 -19 111 -102 111h-39z" />
    <glyph glyph-name="C" unicode="C" horiz-adv-x="328" 
d="M93 394v-158c0 -117 17 -188 76 -188s69 71 69 188v28h66v-18c0 -160 -31 -254 -134 -254c-108 0 -147 98 -147 273v100c0 175 39 273 147 273c103 0 134 -94 134 -254v-18h-66v28c0 117 -10 188 -69 188s-76 -71 -76 -188z" />
    <glyph glyph-name="D" unicode="D" horiz-adv-x="336" 
d="M245 256v118c0 154 -26 201 -100 201h-45v-520h45c74 0 100 47 100 201zM312 372v-114c0 -182 -43 -258 -162 -258h-118v630h118c119 0 162 -76 162 -258z" />
    <glyph glyph-name="E" unicode="E" horiz-adv-x="284" 
d="M269 57v-57h-237v630h230v-57h-164v-218h126v-58h-126v-240h171z" />
    <glyph glyph-name="F" unicode="F" horiz-adv-x="266" 
d="M98 0h-66v630h224v-57h-158v-229h121v-57h-121v-287z" />
    <glyph glyph-name="G" unicode="G" horiz-adv-x="337" 
d="M309 0h-46l-8 71c-9 -53 -50 -79 -93 -79c-99 0 -139 98 -139 273v100c0 175 41 273 147 273c104 0 137 -92 137 -252v-8h-67v16c0 117 -11 188 -70 188s-77 -71 -77 -188v-158c0 -116 18 -187 78 -187c58 0 76 69 76 187v19h-66v55h128v-310z" />
    <glyph glyph-name="H" unicode="H" horiz-adv-x="361" 
d="M100 0h-68v630h68v-275h162v275h68v-630h-68v297h-162v-297z" />
    <glyph glyph-name="I" unicode="I" horiz-adv-x="132" 
d="M32 630h68v-630h-68v630z" />
    <glyph glyph-name="J" unicode="J" horiz-adv-x="312" 
d="M14 163v90h66v-87c0 -77 17 -119 67 -119c49 0 68 42 68 119v464h68v-468c0 -93 -34 -170 -136 -170c-101 0 -133 77 -133 171z" />
    <glyph glyph-name="K" unicode="K" horiz-adv-x="325" 
d="M325 0h-71l-114 281l-40 -87v-194h-68v630h68v-328l147 328h68l-128 -281z" />
    <glyph glyph-name="L" unicode="L" horiz-adv-x="276" 
d="M32 630h68v-573h166v-57h-234v630z" />
    <glyph glyph-name="M" unicode="M" horiz-adv-x="453" 
d="M121 630l105 -474h4l103 474h88v-630h-64v478h-4l-106 -478h-43l-107 478h-4v-478h-61v630h89z" />
    <glyph glyph-name="N" unicode="N" horiz-adv-x="360" 
d="M266 193v437h62v-630h-51l-179 472h-4v-472h-62v630h64l166 -437h4z" />
    <glyph glyph-name="O" unicode="O" horiz-adv-x="341" 
d="M317 365v-100c0 -174 -40 -273 -147 -273s-147 99 -147 273v100c0 174 40 273 147 273s147 -99 147 -273zM93 394v-158c0 -116 18 -188 77 -188c60 0 78 72 78 188v158c0 116 -18 188 -78 188c-59 0 -77 -72 -77 -188z" />
    <glyph glyph-name="P" unicode="P" horiz-adv-x="322" 
d="M99 300h33c83 0 113 40 113 137c0 96 -30 137 -113 137h-33v-274zM99 244v-244h-67v630h100c134 0 179 -73 179 -193s-45 -193 -179 -193h-33z" />
    <glyph glyph-name="Q" unicode="Q" horiz-adv-x="341" 
d="M317 365v-100c0 -153 -31 -248 -111 -268l42 -71h-72l-38 70c-83 18 -115 113 -115 269v100c0 174 40 273 147 273s147 -99 147 -273zM93 394v-158c0 -116 18 -188 77 -188c60 0 78 72 78 188v158c0 116 -18 188 -78 188c-59 0 -77 -72 -77 -188z" />
    <glyph glyph-name="R" unicode="R" horiz-adv-x="333" 
d="M317 0h-70c-12 35 -15 65 -19 149c-4 80 -14 120 -87 120h-42v-269h-67v630h112c125 0 171 -70 171 -179c0 -97 -41 -144 -104 -155c68 -15 80 -69 83 -144s5 -115 23 -152zM99 324h39c84 0 108 43 108 126c0 77 -24 124 -108 124h-39v-250z" />
    <glyph glyph-name="S" unicode="S" horiz-adv-x="299" 
d="M12 228h62v-70c0 -72 26 -112 76 -112c47 0 70 37 70 97c0 67 -27 89 -66 123l-49 44c-45 38 -90 78 -90 177c0 86 46 151 130 151c93 0 134 -64 134 -166v-64h-62v65c0 70 -21 111 -71 111c-46 0 -67 -36 -67 -96c0 -67 24 -89 62 -121l50 -43c48 -39 94 -84 94 -179
c0 -90 -49 -153 -134 -153c-92 0 -139 64 -139 168v68z" />
    <glyph glyph-name="T" unicode="T" horiz-adv-x="322" 
d="M193 0h-68v573h-115v57h301v-57h-118v-573z" />
    <glyph glyph-name="U" unicode="U" horiz-adv-x="341" 
d="M171 -8c-106 0 -142 76 -142 173v465h68v-463c0 -81 21 -121 74 -121c52 0 73 40 73 121v463h68v-465c0 -97 -35 -173 -141 -173z" />
    <glyph glyph-name="V" unicode="V" horiz-adv-x="323" 
d="M195 0h-67l-128 630h68l94 -488h4l94 488h63z" />
    <glyph glyph-name="W" unicode="W" horiz-adv-x="453" 
d="M325 166l67 464h61l-98 -630h-62l-64 456h-4l-65 -456h-62l-98 630h64l67 -464h4l65 464h56l65 -464h4z" />
    <glyph glyph-name="X" unicode="X" horiz-adv-x="321" 
d="M309 630l-112 -305l124 -325h-70l-93 252l-92 -252h-66l123 326l-111 304h70l80 -231l81 231h66z" />
    <glyph glyph-name="Y" unicode="Y" horiz-adv-x="329" 
d="M168 317l95 313h66l-132 -402v-228h-65v228l-132 402h69z" />
    <glyph glyph-name="Z" unicode="Z" horiz-adv-x="300" 
d="M90 57h195v-57h-270v46l194 527h-189v57h262v-49z" />
    <glyph glyph-name="bracketleft" unicode="[" horiz-adv-x="151" 
d="M90 610v-644h51v-50h-109v744h109v-50h-51z" />
    <glyph glyph-name="backslash" unicode="\" horiz-adv-x="168" 
d="M61 660l116 -744h-59l-116 744h59z" />
    <glyph glyph-name="bracketright" unicode="]" horiz-adv-x="151" 
d="M61 -34v644h-51v50h109v-744h-109v50h51z" />
    <glyph glyph-name="asciicircum" unicode="^" horiz-adv-x="254" 
d="M96 630h61l92 -202h-62l-60 142l-61 -142h-62z" />
    <glyph glyph-name="underscore" unicode="_" horiz-adv-x="220" 
d="M11 -114v58h198v-58h-198z" />
    <glyph glyph-name="quoteleft" unicode="&#x2018;" horiz-adv-x="111" 
d="M93 551v-72h-75v75c0 53 15 78 75 79v-35c-30 -1 -34 -9 -34 -47h34z" />
    <glyph glyph-name="a" unicode="a" horiz-adv-x="281" 
d="M178 143v92l-41 -35c-35 -30 -62 -54 -62 -100c0 -37 17 -55 46 -55c35 0 57 47 57 98zM241 306v-240c0 -14 6 -20 17 -20c6 0 12 2 22 6v-44c-12 -9 -25 -14 -43 -14c-29 0 -51 17 -58 58c-10 -34 -39 -58 -81 -58c-53 0 -87 39 -87 97c0 75 56 110 110 154l57 45v25
c0 41 -6 78 -47 78c-40 0 -49 -38 -49 -77v-32h-60v34c0 74 37 126 109 126c85 0 110 -56 110 -138z" />
    <glyph glyph-name="b" unicode="b" horiz-adv-x="299" 
d="M95 279v-122c0 -69 21 -112 59 -112c45 0 61 50 61 150v46c0 100 -16 150 -61 150c-38 0 -59 -43 -59 -112zM95 630v-244c11 33 40 58 79 58c75 0 107 -71 107 -212v-28c0 -141 -32 -212 -107 -212c-39 0 -68 25 -79 58l-10 -50h-55v630h65z" />
    <glyph glyph-name="c" unicode="c" horiz-adv-x="270" 
d="M83 247v-57c0 -96 18 -146 59 -146c37 0 53 39 53 121v16h59v-17c0 -115 -38 -172 -111 -172c-87 0 -126 75 -126 216v20c0 142 39 216 126 216c73 0 111 -57 111 -172v-17h-59v17c0 81 -16 120 -53 120c-41 0 -59 -49 -59 -145z" />
    <glyph glyph-name="d" unicode="d" horiz-adv-x="299" 
d="M203 157v122c0 69 -21 112 -59 112c-44 0 -60 -50 -60 -150v-46c0 -100 16 -150 60 -150c38 0 59 43 59 112zM203 386v244h66v-630h-66v50c-10 -33 -39 -58 -79 -58c-74 0 -107 71 -107 212v28c0 141 33 212 107 212c40 0 69 -25 79 -58z" />
    <glyph glyph-name="e" unicode="e" horiz-adv-x="273" 
d="M195 250c0 85 -13 143 -55 143s-58 -58 -58 -143h113zM17 208v19c0 142 37 217 123 217c85 0 116 -71 116 -211v-28h-174v-13c0 -98 18 -148 60 -148c38 0 55 37 55 114v9h58v-10c0 -108 -40 -165 -113 -165c-87 0 -125 77 -125 216z" />
    <glyph glyph-name="f" unicode="f" horiz-adv-x="170" 
d="M186 630l-6 -49c-11 5 -21 7 -36 7c-31 0 -40 -25 -40 -53v-99h63v-47h-63v-389h-65v389h-37v47h37v85c0 69 30 117 100 117c21 0 34 -3 47 -8z" />
    <glyph glyph-name="g" unicode="g" horiz-adv-x="288" 
d="M137 141c-12 0 -23 1 -33 4c-15 -9 -27 -22 -27 -39c0 -20 13 -32 41 -32h56c72 0 120 -40 120 -115c0 -84 -66 -135 -156 -135c-84 0 -147 41 -147 112c0 47 28 76 70 91c-28 10 -39 33 -39 62c0 33 23 56 51 70c-35 24 -56 68 -56 128v11c0 91 50 146 120 146
c33 0 62 -13 83 -36c17 32 45 52 74 52v-63c-18 0 -41 -6 -56 -16c12 -23 19 -51 19 -83v-11c0 -90 -50 -146 -120 -146zM49 -52c0 -49 35 -77 90 -77c57 0 96 30 96 81c0 46 -29 64 -71 64h-43c-41 0 -72 -27 -72 -68zM137 189c38 0 56 40 56 96v15c0 57 -18 96 -56 96
s-56 -39 -56 -96v-15c0 -56 18 -96 56 -96z" />
    <glyph glyph-name="h" unicode="h" horiz-adv-x="305" 
d="M95 289v-289h-65v630h65v-242c12 31 44 56 87 56c71 0 93 -54 93 -111v-333h-65v317c0 45 -15 72 -53 72c-43 0 -62 -44 -62 -100z" />
    <glyph glyph-name="i" unicode="i" horiz-adv-x="125" 
d="M30 436h65v-436h-65v436zM30 514v86h65v-86h-65z" />
    <glyph glyph-name="j" unicode="j" horiz-adv-x="125" 
d="M95 436v-507c0 -69 -25 -105 -86 -105c-18 0 -32 3 -44 9l6 46c7 -3 16 -5 25 -5c26 0 34 15 34 47v515h65zM30 514v86h65v-86h-65z" />
    <glyph glyph-name="k" unicode="k" horiz-adv-x="296" 
d="M95 140v-140h-65v630h65v-405l126 211h64l-113 -189l123 -247h-70l-98 196z" />
    <glyph glyph-name="l" unicode="l" horiz-adv-x="125" 
d="M30 630h65v-630h-65v630z" />
    <glyph glyph-name="m" unicode="m" horiz-adv-x="473" 
d="M378 0v318c0 42 -15 71 -51 71c-40 0 -58 -42 -58 -97v-292h-65v318c0 42 -15 71 -51 71c-40 0 -58 -42 -58 -97v-292h-65v436h65v-49c12 34 39 57 83 57c47 0 73 -27 83 -60c11 32 45 60 89 60c67 0 93 -48 93 -107v-337h-65z" />
    <glyph glyph-name="n" unicode="n" horiz-adv-x="305" 
d="M95 289v-289h-65v436h65v-48c12 31 44 56 87 56c71 0 93 -54 93 -111v-333h-65v317c0 45 -15 72 -53 72c-43 0 -62 -44 -62 -100z" />
    <glyph glyph-name="o" unicode="o" horiz-adv-x="285" 
d="M83 238v-40c0 -113 18 -154 60 -154c41 0 59 41 59 154v40c0 113 -18 154 -59 154c-42 0 -60 -41 -60 -154zM268 227v-18c0 -142 -38 -217 -125 -217c-88 0 -126 75 -126 217v18c0 142 38 217 126 217c87 0 125 -75 125 -217z" />
    <glyph glyph-name="p" unicode="p" horiz-adv-x="299" 
d="M95 279v-122c0 -69 21 -112 59 -112c45 0 61 50 61 150v46c0 100 -16 150 -61 150c-38 0 -59 -43 -59 -112zM95 50v-218h-65v604h65v-50c11 33 40 58 79 58c75 0 107 -71 107 -212v-28c0 -141 -32 -212 -107 -212c-39 0 -68 25 -79 58z" />
    <glyph glyph-name="q" unicode="q" horiz-adv-x="299" 
d="M204 157v122c0 69 -21 112 -59 112c-45 0 -61 -50 -61 -150v-46c0 -100 16 -150 61 -150c38 0 59 43 59 112zM204 -168v218c-11 -33 -40 -58 -79 -58c-75 0 -107 71 -107 212v28c0 141 32 212 107 212c39 0 68 -25 79 -58v50h65v-604h-65z" />
    <glyph glyph-name="r" unicode="r" horiz-adv-x="199" 
d="M198 437l-4 -60c-10 2 -19 4 -32 4c-53 0 -67 -50 -67 -105v-276h-65v436h65v-58c10 43 39 63 77 63c10 0 19 -2 26 -4z" />
    <glyph glyph-name="s" unicode="s" horiz-adv-x="255" 
d="M12 147h57v-25c0 -49 21 -80 60 -80c36 0 53 26 53 64c0 36 -17 53 -43 69l-42 24c-42 24 -79 59 -79 130c0 67 39 115 108 115c74 0 109 -47 109 -119v-35h-56v26c0 45 -11 78 -52 78c-32 0 -49 -24 -49 -62c0 -36 15 -58 42 -74l45 -26c44 -26 78 -55 78 -121
c0 -74 -45 -119 -114 -119c-72 0 -117 45 -117 128v27z" />
    <glyph glyph-name="t" unicode="t" horiz-adv-x="196" 
d="M43 74v315h-43v35l13 2c35 8 40 30 47 70l9 49h37v-109h76v-47h-76v-302c0 -25 7 -35 25 -35c17 0 34 3 56 17v-46c-23 -19 -48 -27 -74 -27c-44 0 -70 23 -70 78z" />
    <glyph glyph-name="u" unicode="u" horiz-adv-x="301" 
d="M206 147v289h66v-436h-66v48c-11 -32 -41 -56 -85 -56c-69 0 -91 54 -91 112v332h65v-317c0 -44 14 -72 49 -72c45 0 62 45 62 100z" />
    <glyph glyph-name="v" unicode="v" horiz-adv-x="283" 
d="M175 0h-58l-117 436h65l81 -327h4l72 327h61z" />
    <glyph glyph-name="w" unicode="w" horiz-adv-x="414" 
d="M236 436l57 -308h4l60 308h57l-90 -436h-56l-59 322h-4l-59 -322h-56l-90 436h61l60 -308h4l57 308h54z" />
    <glyph glyph-name="x" unicode="x" horiz-adv-x="271" 
d="M266 436l-98 -212l103 -224h-65l-73 162l-71 -162h-62l103 221l-98 215h65l68 -153l66 153h62z" />
    <glyph glyph-name="y" unicode="y" horiz-adv-x="283" 
d="M115 -1l-115 437h65l80 -327h4l74 327h60l-150 -604h-61z" />
    <glyph glyph-name="z" unicode="z" horiz-adv-x="248" 
d="M164 385h-144v51h212v-44l-147 -340h147v-52h-216v45z" />
    <glyph glyph-name="braceleft" unicode="{" horiz-adv-x="175" 
d="M11 262v52h22c22 0 29 17 29 45v214c0 54 18 87 74 87h29v-50h-21c-18 0 -24 -12 -24 -32v-207c0 -37 -2 -75 -48 -83c46 -8 48 -46 48 -83v-207c0 -20 6 -32 24 -32h21v-50h-29c-56 0 -74 33 -74 87v214c0 28 -7 45 -29 45h-22z" />
    <glyph glyph-name="bar" unicode="|" horiz-adv-x="122" 
d="M32 -83v743h59v-743h-59z" />
    <glyph glyph-name="braceright" unicode="}" horiz-adv-x="175" 
d="M164 314v-52h-22c-22 0 -29 -17 -29 -45v-214c0 -54 -18 -87 -74 -87h-29v50h21c18 0 24 12 24 32v207c0 37 2 75 48 83c-46 8 -48 46 -48 83v207c0 20 -6 32 -24 32h-21v50h29c56 0 74 -33 74 -87v-214c0 -28 7 -45 29 -45h22z" />
    <glyph glyph-name="asciitilde" unicode="~" horiz-adv-x="308" 
d="M65 212h-46c0 70 25 117 77 117c49 0 77 -57 112 -57c26 0 33 19 35 54h46c0 -71 -25 -117 -77 -117c-49 0 -77 56 -112 56c-26 0 -33 -18 -35 -53z" />
    <glyph glyph-name="exclamdown" unicode="&#xa1;" horiz-adv-x="120" 
d="M97 443h-75v75h75v-75zM48 363h25l23 -296v-179h-71v179z" />
    <glyph glyph-name="cent" unicode="&#xa2;" horiz-adv-x="272" 
d="M124 -59v53c-74 10 -107 83 -107 214v20c0 131 33 204 107 214v58h34v-58c63 -8 98 -63 98 -170v-17h-56v18c0 71 -13 110 -42 120v-349c29 9 42 49 42 119v18h56v-17c0 -107 -35 -163 -98 -170v-53h-34zM79 248v-60c0 -81 14 -129 45 -142v345c-31 -14 -45 -62 -45 -143
z" />
    <glyph glyph-name="sterling" unicode="&#xa3;" horiz-adv-x="370" 
d="M132 467c0 -45 9 -85 20 -123h97v-47h-83c12 -43 23 -86 23 -138c0 -19 -3 -39 -7 -57c25 -26 50 -50 83 -50c39 0 50 34 49 109h48c12 -122 -33 -169 -94 -169c-47 0 -78 29 -104 60c-19 -36 -48 -60 -85 -60c-41 0 -78 29 -78 85c0 50 34 87 83 87c17 0 32 -6 46 -15v7
c0 56 -13 98 -27 141h-66v47h50c-11 36 -20 76 -20 125c0 96 49 169 135 169c91 0 137 -65 137 -194h-59c0 94 -23 134 -77 134c-51 0 -71 -51 -71 -111zM80 39c24 0 38 22 45 57c-12 13 -26 21 -40 21c-24 0 -36 -15 -36 -40c0 -22 14 -38 31 -38z" />
    <glyph glyph-name="fraction" unicode="&#x2044;" horiz-adv-x="344" 
d="M0 0l293 630h51l-293 -630h-51z" />
    <glyph glyph-name="yen" unicode="&#xa5;" horiz-adv-x="327" 
d="M36 264v49h79l-115 317h68l99 -288l95 288h65l-115 -317h80v-49h-97v-49h97v-50h-97v-165h-62v165h-97v50h97v49h-97z" />
    <glyph glyph-name="florin" unicode="&#x192;" horiz-adv-x="306" 
d="M204 496l-20 -121h77v-52h-86l-48 -293c-14 -83 -44 -132 -113 -132c-10 0 -20 2 -32 4v58c8 -2 14 -3 20 -3c39 0 55 27 64 85l46 281h-64v52h73l22 133c14 83 47 130 112 130c13 0 25 -2 39 -6v-57c-10 3 -18 4 -26 4c-40 0 -55 -27 -64 -83z" />
    <glyph glyph-name="section" unicode="&#xa7;" horiz-adv-x="350" 
d="M329 236c0 -47 -24 -88 -56 -110c20 -22 32 -51 32 -92c0 -77 -50 -131 -128 -131c-81 0 -137 53 -142 154l52 4c8 -69 40 -105 90 -105c43 0 70 27 70 75c0 31 -12 54 -53 78l-83 50c-55 33 -91 73 -91 146c0 46 24 87 55 109c-19 22 -31 51 -31 93c0 76 50 131 128 131
c81 0 137 -54 143 -155l-53 -4c-8 70 -40 106 -90 106c-43 0 -70 -27 -70 -76c0 -30 12 -53 48 -75l88 -52c56 -33 91 -74 91 -146zM121 378l-5 3c-24 -14 -38 -38 -38 -74c0 -43 20 -64 55 -86l95 -58l5 -3c23 12 38 37 38 73c0 44 -19 64 -55 87z" />
    <glyph glyph-name="quotesingle" unicode="'" horiz-adv-x="102" 
d="M21 436v194h60v-194h-60z" />
    <glyph glyph-name="quotedblleft" unicode="&#x201c;" horiz-adv-x="214" 
d="M93 551v-72h-75v75c0 53 15 78 75 79v-35c-30 -1 -34 -9 -34 -47h34zM196 551v-72h-76v75c0 53 15 78 76 79v-35c-30 -1 -35 -9 -35 -47h35z" />
    <glyph glyph-name="guillemotleft" unicode="&#xab;" horiz-adv-x="285" 
d="M16 191v53l130 129v-74l-77 -81l77 -82v-74zM139 191v53l130 129v-74l-77 -81l77 -82v-74z" />
    <glyph glyph-name="guilsinglleft" unicode="&#x2039;" horiz-adv-x="162" 
d="M16 191v53l130 129v-74l-77 -81l77 -82v-74z" />
    <glyph glyph-name="guilsinglright" unicode="&#x203a;" horiz-adv-x="162" 
d="M146 244v-53l-130 -129v74l77 82l-77 81v74z" />
    <glyph glyph-name="endash" unicode="&#x2013;" horiz-adv-x="230" 
d="M18 230v50h194v-50h-194z" />
    <glyph glyph-name="dagger" unicode="&#x2020;" horiz-adv-x="196" 
d="M10 516v44h65v77h46v-77h65v-44h-65v-147h-46v147h-65z" />
    <glyph glyph-name="daggerdbl" unicode="&#x2021;" horiz-adv-x="220" 
d="M15 436v39h73v55h-73v40h73v67h44v-67h73v-40h-73v-55h73v-39h-73v-67h-44v67h-73z" />
    <glyph glyph-name="periodcentered" unicode="&#xb7;" horiz-adv-x="115" 
d="M18 207v75h75v-75h-75z" />
    <glyph glyph-name="paragraph" unicode="&#xb6;" horiz-adv-x="337" 
d="M154 0v343c-91 0 -144 55 -144 143c0 90 53 144 144 144h151v-630h-55v577h-42v-577h-54z" />
    <glyph glyph-name="bullet" unicode="&#x2022;" horiz-adv-x="275" 
d="M257 256c0 -69 -54 -119 -120 -119s-119 50 -119 119s53 119 119 119s120 -50 120 -119z" />
    <glyph glyph-name="quotesinglbase" unicode="&#x201a;" horiz-adv-x="111" 
d="M18 0v73h75v-76c0 -53 -14 -78 -75 -79v36c30 1 35 9 35 46h-35z" />
    <glyph glyph-name="quotedblbase" unicode="&#x201e;" horiz-adv-x="214" 
d="M120 0v73h76v-76c0 -53 -15 -78 -76 -79v36c30 1 35 9 35 46h-35zM18 0v73h75v-76c0 -53 -14 -78 -75 -79v36c30 1 35 9 35 46h-35z" />
    <glyph glyph-name="quotedblright" unicode="&#x201d;" horiz-adv-x="214" 
d="M120 557v73h76v-75c0 -54 -15 -79 -76 -79v35c30 1 35 9 35 46h-35zM18 557v73h75v-75c0 -54 -14 -79 -75 -79v35c30 1 35 9 35 46h-35z" />
    <glyph glyph-name="guillemotright" unicode="&#xbb;" horiz-adv-x="285" 
d="M146 244v-53l-130 -129v74l77 82l-77 81v74zM269 244v-53l-130 -129v74l77 82l-77 81v74z" />
    <glyph glyph-name="ellipsis" unicode="&#x2026;" horiz-adv-x="321" 
d="M18 0v75h75v-75h-75zM123 0v75h75v-75h-75zM227 0v75h76v-75h-76z" />
    <glyph glyph-name="perthousand" unicode="&#x2030;" horiz-adv-x="656" 
d="M69 497c0 -64 14 -92 46 -92s46 28 46 92s-14 91 -46 91s-46 -27 -46 -91zM214 497c0 -87 -35 -139 -99 -139s-99 52 -99 139c0 86 35 139 99 139s99 -53 99 -139zM44 0l299 630h52l-299 -630h-52zM277 133c0 -65 15 -93 47 -93s46 28 46 93s-14 93 -46 93
s-47 -28 -47 -93zM423 133c0 -86 -35 -139 -99 -139c-65 0 -100 53 -100 139c0 87 35 139 100 139c64 0 99 -52 99 -139zM494 133c0 -65 15 -93 47 -93s46 28 46 93s-14 93 -46 93s-47 -28 -47 -93zM640 133c0 -86 -35 -139 -99 -139c-65 0 -100 53 -100 139
c0 87 35 139 100 139c64 0 99 -52 99 -139z" />
    <glyph glyph-name="questiondown" unicode="&#xbf;" horiz-adv-x="293" 
d="M82 245c28 48 36 75 37 115h60c-1 -56 -7 -79 -39 -137c-39 -71 -60 -112 -60 -177c0 -64 15 -110 67 -110c50 0 70 38 70 121v60h64v-57c0 -116 -44 -180 -134 -180c-89 0 -133 60 -133 168c0 80 31 131 68 197zM185 443h-75v75h75v-75z" />
    <glyph glyph-name="grave" unicode="`" 
d="M193 481h-38l-71 124h74z" />
    <glyph glyph-name="acute" unicode="&#xb4;" 
d="M121 481h-37l34 124h75z" />
    <glyph glyph-name="circumflex" unicode="&#x2c6;" 
d="M104 598h68l55 -122h-42l-47 78l-46 -78h-42z" />
    <glyph glyph-name="tilde" unicode="&#x2dc;" 
d="M87 487h-37c0 69 12 114 51 114c37 0 58 -61 78 -61c12 0 18 21 18 58h37c0 -70 -12 -114 -51 -114c-37 0 -57 61 -78 61c-12 0 -18 -22 -18 -58z" />
    <glyph glyph-name="macron" unicode="&#xaf;" 
d="M64 492v50h150v-50h-150z" />
    <glyph glyph-name="breve" unicode="&#x2d8;" 
d="M138 477c-58 0 -80 40 -80 123h44c0 -47 5 -78 36 -78s36 31 36 78h45c0 -83 -22 -123 -81 -123z" />
    <glyph glyph-name="dotaccent" unicode="&#x2d9;" 
d="M106 514v86h65v-86h-65z" />
    <glyph glyph-name="dieresis" unicode="&#xa8;" 
d="M68 498v84h57v-84h-57zM153 498v84h57v-84h-57z" />
    <glyph glyph-name="ring" unicode="&#x2da;" 
d="M104 544c0 -23 12 -37 35 -37c22 0 34 14 34 37s-12 37 -34 37c-23 0 -35 -14 -35 -37zM67 544c0 41 28 71 72 71s72 -30 72 -71s-28 -71 -72 -71s-72 30 -72 71z" />
    <glyph glyph-name="cedilla" unicode="&#xb8;" 
d="M206 -104c0 -44 -31 -67 -72 -67c-29 0 -56 13 -73 31l16 36c15 -18 34 -28 55 -28c19 0 30 9 30 26c0 29 -32 38 -69 39l28 78h31l-17 -47c33 -2 71 -21 71 -68z" />
    <glyph glyph-name="hungarumlaut" unicode="&#x2dd;" 
d="M88 481h-32l20 125h68zM170 481h-33l20 125h68z" />
    <glyph glyph-name="ogonek" unicode="&#x2db;" 
d="M154 12h42c-41 -46 -54 -72 -54 -102c0 -23 13 -35 30 -35c7 0 16 2 25 5v-41c-11 -7 -25 -10 -40 -10c-37 0 -64 26 -64 70c0 43 26 79 61 113z" />
    <glyph glyph-name="caron" unicode="&#x2c7;" 
d="M172 479h-68l-54 123h42l46 -79l47 79h42z" />
    <glyph glyph-name="emdash" unicode="&#x2014;" horiz-adv-x="359" 
d="M18 230v50h323v-50h-323z" />
    <glyph glyph-name="AE" unicode="&#xc6;" horiz-adv-x="472" 
d="M457 0h-234v198h-104l-55 -198h-64l179 630h272v-57h-162v-218h124v-58h-124v-240h168v-57zM223 555h-4l-84 -301h88v301z" />
    <glyph glyph-name="ordfeminine" unicode="&#xaa;" horiz-adv-x="199" 
d="M118 452v49l-23 -19c-21 -18 -37 -30 -37 -56c0 -19 9 -30 25 -30c24 0 35 27 35 56zM166 549v-142c0 -9 4 -13 10 -13c4 0 8 2 13 4v-31c-7 -7 -17 -10 -31 -10c-19 0 -33 11 -38 36c-7 -21 -26 -36 -52 -36c-36 0 -57 25 -57 62c0 46 34 68 70 95l37 27v14
c0 23 -3 45 -26 45s-28 -22 -28 -45v-18h-47v19c0 49 26 81 75 81c56 0 74 -34 74 -88z" />
    <glyph glyph-name="Lslash" unicode="&#x141;" horiz-adv-x="276" 
d="M4 214v61l30 19v336h68v-300l87 59v-61l-87 -58v-213h166v-57h-234v234z" />
    <glyph glyph-name="Oslash" unicode="&#xd8;" horiz-adv-x="341" 
d="M24 6l27 69c-20 46 -28 110 -28 190v100c0 174 40 273 147 273c37 0 67 -13 89 -37l17 42l40 -19l-28 -69c20 -46 29 -111 29 -190v-100c0 -174 -40 -273 -147 -273c-38 0 -67 12 -90 36l-16 -41zM250 394c0 21 -1 41 -2 58l-141 -355c13 -33 33 -49 63 -49
c60 0 80 71 80 188v158zM91 394v-158c0 -21 1 -40 2 -57l140 355c-13 32 -33 48 -63 48c-59 0 -79 -71 -79 -188z" />
    <glyph glyph-name="OE" unicode="&#x152;" horiz-adv-x="469" 
d="M454 0h-261c-119 0 -170 76 -170 258v114c0 182 51 258 170 258h254v-57h-153v-218h115v-58h-115v-240h160v-57zM91 374v-118c0 -154 33 -201 108 -201h29v520h-29c-75 0 -108 -47 -108 -201z" />
    <glyph glyph-name="ordmasculine" unicode="&#xba;" horiz-adv-x="197" 
d="M132 481v30c0 62 -9 85 -34 85c-24 0 -34 -23 -34 -85v-30c0 -62 10 -85 34 -85c25 0 34 23 34 85zM14 491v10c0 86 25 134 84 134s85 -48 85 -134v-10c0 -86 -26 -134 -85 -134s-84 48 -84 134z" />
    <glyph glyph-name="ae" unicode="&#xe6;" horiz-adv-x="432" 
d="M206 62c-9 -39 -46 -70 -90 -70c-69 0 -105 44 -105 125c0 78 46 133 141 133h26v65c0 41 -6 78 -47 78c-40 0 -49 -38 -49 -77v-32h-60v34c0 74 37 126 108 126c47 0 71 -23 87 -55c16 32 46 55 82 55c85 0 116 -71 116 -211v-28h-174v-13c0 -98 18 -148 60 -148
c38 0 55 37 55 114v9h58v-10c0 -108 -40 -165 -112 -165c-48 0 -80 24 -96 70zM121 43c35 0 57 40 57 100v62h-22c-61 0 -83 -36 -83 -87c0 -53 19 -75 48 -75zM299 393c-42 0 -58 -58 -58 -143h114c0 85 -14 143 -56 143z" />
    <glyph glyph-name="dotlessi" unicode="&#x131;" horiz-adv-x="125" 
d="M30 436h65v-436h-65v436z" />
    <glyph glyph-name="lslash" unicode="&#x142;" horiz-adv-x="144" 
d="M5 250v52l34 19v309h66v-276l34 20v-50l-34 -21v-303h-66v269z" />
    <glyph glyph-name="oslash" unicode="&#xf8;" horiz-adv-x="285" 
d="M26 -1l21 48c-21 37 -30 91 -30 162v18c0 142 38 217 126 217c26 0 49 -7 66 -21l14 32l36 -18l-21 -49c20 -36 30 -90 30 -161v-18c0 -142 -38 -217 -125 -217c-27 0 -49 7 -67 21l-14 -32zM204 238c0 25 -1 47 -3 65l-102 -235c10 -19 25 -25 44 -25c41 0 61 42 61 155
v40zM81 238v-40c0 -26 0 -47 2 -66l102 236c-10 18 -24 25 -42 25c-42 0 -62 -41 -62 -155z" />
    <glyph glyph-name="oe" unicode="&#x153;" horiz-adv-x="454" 
d="M143 444c39 0 69 -21 89 -57c19 35 50 57 89 57c85 0 116 -71 116 -211v-28h-174v-13c0 -98 18 -148 60 -148c38 0 55 37 55 114v9h58v-10c0 -108 -41 -165 -113 -165c-39 0 -72 21 -91 55c-18 -34 -50 -55 -89 -55c-88 0 -126 75 -126 217v18c0 142 38 217 126 217z
M83 238v-40c0 -113 18 -154 60 -154c41 0 59 41 59 154v40c0 113 -18 154 -59 154c-42 0 -60 -41 -60 -154zM376 250c0 85 -13 143 -55 143s-58 -58 -58 -143h113z" />
    <glyph glyph-name="germandbls" unicode="&#xdf;" horiz-adv-x="309" 
d="M271 486c0 -75 -25 -122 -62 -137c56 -16 85 -78 85 -166c0 -122 -47 -187 -122 -187c-17 0 -33 2 -45 8v53c11 -5 20 -7 31 -7c56 0 73 49 73 135c0 75 -23 133 -83 132c-7 0 -11 0 -20 -1v60c8 -1 13 -1 18 -1c51 0 65 42 65 107c0 56 -13 100 -59 100
c-41 0 -57 -36 -57 -97v-485h-65v485c0 93 41 153 124 153c75 0 117 -55 117 -152z" />
    <glyph glyph-name="onesuperior" unicode="&#xb9;" horiz-adv-x="133" 
d="M13 557v32c31 1 46 10 53 41h37v-269h-50v196h-40z" />
    <glyph glyph-name="trademark" unicode="&#x2122;" horiz-adv-x="352" 
d="M93 411h-41v182h-46v37h134v-37h-47v-182zM257 411h-28l-36 173h-2v-173h-35v219h58l29 -154h2l28 154h58v-219h-38v173h-2z" />
    <glyph glyph-name="Eth" unicode="&#xd0;" horiz-adv-x="338" 
d="M4 297v58h30v275h118c119 0 162 -76 162 -258v-114c0 -182 -43 -258 -162 -258h-118v297h-30zM246 256v118c0 154 -25 201 -99 201h-45v-220h52v-58h-52v-242h45c74 0 99 47 99 201z" />
    <glyph glyph-name="onehalf" unicode="&#xbd;" horiz-adv-x="296" 
d="M78 557v32c31 1 46 10 53 41h37v-269h-50v196h-40zM173 95l-52 -53h108v-42h-172v35l71 75c31 33 51 54 51 82c0 24 -14 40 -37 40c-24 0 -37 -17 -37 -49v-12h-48v15c0 51 30 86 84 86c55 0 87 -29 87 -78c0 -35 -18 -63 -55 -99zM20 299v32h256v-32h-256z" />
    <glyph glyph-name="plusminus" unicode="&#xb1;" horiz-adv-x="365" 
d="M157 476h50v-105h126v-48h-126v-105h-50v105h-125v48h125v105zM32 136v50h301v-50h-301z" />
    <glyph glyph-name="Thorn" unicode="&#xde;" horiz-adv-x="322" 
d="M99 184h33c83 0 113 40 113 136c0 97 -30 138 -113 138h-33v-274zM99 127v-127h-67v630h67v-116h33c134 0 179 -73 179 -193c0 -121 -45 -194 -179 -194h-33z" />
    <glyph glyph-name="onequarter" unicode="&#xbc;" horiz-adv-x="296" 
d="M78 557v32c31 1 46 10 53 41h37v-269h-50v196h-40zM200 268v-166h31v-39h-31v-63h-47v63h-125v39l121 166h51zM153 210l-79 -108h79v108zM20 299v32h256v-32h-256z" />
    <glyph glyph-name="divide" unicode="&#xf7;" horiz-adv-x="365" 
d="M30 276v50h305v-50h-305zM147 389v70h72v-70h-72zM147 143v68h72v-68h-72z" />
    <glyph glyph-name="degree" unicode="&#xb0;" horiz-adv-x="202" 
d="M188 552c0 -50 -37 -86 -87 -86c-49 0 -87 36 -87 86s38 86 87 86c50 0 87 -36 87 -86zM143 552c0 25 -16 44 -42 44c-25 0 -41 -19 -41 -44c0 -26 16 -45 41 -45c26 0 42 19 42 45z" />
    <glyph glyph-name="thorn" unicode="&#xfe;" horiz-adv-x="299" 
d="M95 279v-122c0 -69 21 -112 59 -112c45 0 61 50 61 150v46c0 100 -16 150 -61 150c-38 0 -59 -43 -59 -112zM95 50v-218h-65v798h65v-244c11 33 40 58 79 58c75 0 107 -71 107 -212v-28c0 -141 -32 -212 -107 -212c-39 0 -68 25 -79 58z" />
    <glyph glyph-name="threequarters" unicode="&#xbe;" horiz-adv-x="296" 
d="M200 268v-166h31v-39h-31v-63h-47v63h-125v39l121 166h51zM153 210l-79 -108h79v108zM188 497c24 -7 43 -27 43 -61c0 -47 -32 -78 -87 -78c-57 0 -89 33 -89 88v11h47v-10c0 -32 16 -49 42 -49s38 14 38 41s-15 40 -40 40c-5 0 -13 0 -20 -1v38c7 -1 15 -1 20 -1
c25 0 38 11 38 39c0 25 -11 40 -37 40s-39 -18 -39 -49v-9h-47v9c0 53 31 89 86 89c56 0 86 -31 86 -78c0 -33 -17 -53 -41 -59zM20 299v32h256v-32h-256z" />
    <glyph glyph-name="registered" unicode="&#xae;" horiz-adv-x="284" 
d="M268 487c0 -88 -55 -151 -126 -151s-126 63 -126 151s55 151 126 151s126 -63 126 -151zM240 487c0 74 -39 125 -98 125s-99 -51 -99 -125c0 -73 40 -124 99 -124s98 51 98 124zM205 411h-32c-4 6 -6 14 -7 30c-1 19 -8 26 -22 26h-22v-56h-31v156h61c33 0 50 -18 50 -48
c0 -24 -13 -37 -29 -40c15 -4 22 -14 24 -32c3 -24 3 -29 8 -36zM122 494h22c19 0 26 6 26 23c0 15 -7 23 -26 23h-22v-46z" />
    <glyph glyph-name="minus" unicode="&#x2212;" horiz-adv-x="365" 
d="M30 276v50h305v-50h-305z" />
    <glyph glyph-name="eth" unicode="&#xf0;" horiz-adv-x="285" 
d="M73 469l-17 39l66 30c-20 23 -44 46 -71 67l44 36c32 -25 59 -51 81 -79l56 26l18 -39l-49 -22c50 -81 67 -178 67 -298v-20c0 -142 -38 -217 -125 -217c-88 0 -126 75 -126 217v18c0 140 38 213 119 213c24 0 47 -10 58 -35c-10 34 -25 67 -46 98zM83 234v-36
c0 -113 18 -154 60 -154c41 0 59 41 59 154v36c0 113 -18 154 -59 154c-42 0 -60 -41 -60 -154z" />
    <glyph glyph-name="multiply" unicode="&#xd7;" horiz-adv-x="313" 
d="M122 299l-92 92l34 35l91 -93l92 93l35 -35l-92 -92l92 -92l-35 -35l-92 93l-91 -93l-34 35z" />
    <glyph glyph-name="threesuperior" unicode="&#xb3;" horiz-adv-x="215" 
d="M153 497c25 -7 43 -27 43 -61c0 -47 -32 -78 -86 -78c-57 0 -89 33 -89 88v11h46v-10c0 -32 16 -49 43 -49c25 0 38 14 38 41s-15 40 -40 40c-6 0 -13 0 -21 -1v38c8 -1 15 -1 21 -1c24 0 38 11 38 39c0 25 -12 40 -38 40s-39 -18 -39 -49v-9h-46v9c0 53 30 89 86 89
c55 0 85 -31 85 -78c0 -33 -16 -53 -41 -59z" />
    <glyph glyph-name="copyright" unicode="&#xa9;" horiz-adv-x="510" 
d="M255 638c140 0 235 -136 235 -323s-95 -323 -235 -323c-141 0 -235 136 -235 323s94 323 235 323zM142 301v26c0 120 43 184 115 184c74 0 106 -64 106 -157v-9h-53v8c0 65 -8 110 -52 110c-45 0 -60 -46 -60 -129v-40c0 -83 15 -129 60 -129c44 0 52 44 52 109v9h53v-9
c0 -93 -32 -157 -106 -157c-72 0 -115 64 -115 184zM255 597c-120 0 -193 -124 -193 -282s73 -282 193 -282s193 124 193 282s-73 282 -193 282z" />
    <glyph glyph-name="Aacute" unicode="&#xc1;" horiz-adv-x="336" 
d="M128 630h80l128 -630h-68l-38 196h-129l-37 -196h-64zM164 521l-52 -269h107l-51 269h-4zM185 661h-37l34 123h75z" />
    <glyph glyph-name="Acircumflex" unicode="&#xc2;" horiz-adv-x="336" 
d="M128 630h80l128 -630h-68l-38 196h-129l-37 -196h-64zM164 521l-52 -269h107l-51 269h-4zM134 778h68l55 -123h-42l-47 79l-46 -79h-42z" />
    <glyph glyph-name="Adieresis" unicode="&#xc4;" horiz-adv-x="336" 
d="M128 630h80l128 -630h-68l-38 196h-129l-37 -196h-64zM164 521l-52 -269h107l-51 269h-4zM98 668v84h57v-84h-57zM183 668v84h57v-84h-57z" />
    <glyph glyph-name="Agrave" unicode="&#xc0;" horiz-adv-x="336" 
d="M128 630h80l128 -630h-68l-38 196h-129l-37 -196h-64zM164 521l-52 -269h107l-51 269h-4zM191 661h-38l-71 123h74z" />
    <glyph glyph-name="Aring" unicode="&#xc5;" horiz-adv-x="336" 
d="M128 630h80l128 -630h-68l-38 196h-129l-37 -196h-64zM96 723c0 40 28 71 72 71s72 -31 72 -71c0 -41 -28 -71 -72 -71s-72 30 -72 71zM164 521l-52 -269h107l-51 269h-4zM133 723c0 -23 12 -37 35 -37c22 0 34 14 34 37s-12 37 -34 37c-23 0 -35 -14 -35 -37z" />
    <glyph glyph-name="Atilde" unicode="&#xc3;" horiz-adv-x="336" 
d="M128 630h80l128 -630h-68l-38 196h-129l-37 -196h-64zM164 521l-52 -269h107l-51 269h-4zM113 666h-37c0 70 12 115 51 115c37 0 58 -62 78 -62c12 0 18 22 18 59h37c0 -70 -12 -115 -51 -115c-37 0 -57 62 -78 62c-12 0 -18 -22 -18 -59z" />
    <glyph glyph-name="Ccedilla" unicode="&#xc7;" horiz-adv-x="328" 
d="M242 -104c0 -44 -31 -67 -72 -67c-29 0 -56 13 -73 31l16 36c15 -18 34 -28 55 -28c19 0 30 9 30 26c0 29 -32 38 -69 39l21 60c-93 11 -127 108 -127 272v100c0 175 39 273 147 273c103 0 134 -94 134 -254v-18h-66v28c0 117 -10 188 -69 188s-76 -71 -76 -188v-158
c0 -117 17 -188 76 -188s69 71 69 188v28h66v-18c0 -154 -29 -247 -123 -254l-10 -28c33 -2 71 -21 71 -68z" />
    <glyph glyph-name="Eacute" unicode="&#xc9;" horiz-adv-x="284" 
d="M167 661h-37l34 123h75zM269 57v-57h-237v630h230v-57h-164v-218h126v-58h-126v-240h171z" />
    <glyph glyph-name="Ecircumflex" unicode="&#xca;" horiz-adv-x="284" 
d="M269 57v-57h-237v630h230v-57h-164v-218h126v-58h-126v-240h171zM116 778h68l55 -123h-42l-47 79l-46 -79h-42z" />
    <glyph glyph-name="Edieresis" unicode="&#xcb;" horiz-adv-x="284" 
d="M80 668v84h57v-84h-57zM165 668v84h57v-84h-57zM269 57v-57h-237v630h230v-57h-164v-218h126v-58h-126v-240h171z" />
    <glyph glyph-name="Egrave" unicode="&#xc8;" horiz-adv-x="284" 
d="M173 661h-38l-71 123h74zM269 57v-57h-237v630h230v-57h-164v-218h126v-58h-126v-240h171z" />
    <glyph glyph-name="Iacute" unicode="&#xcd;" horiz-adv-x="132" 
d="M32 630h68v-630h-68v630zM83 661h-37l34 123h75z" />
    <glyph glyph-name="Icircumflex" unicode="&#xce;" horiz-adv-x="132" 
d="M32 630h68v-630h-68v630zM32 778h68l55 -123h-42l-47 79l-46 -79h-42z" />
    <glyph glyph-name="Idieresis" unicode="&#xcf;" horiz-adv-x="132" 
d="M32 630h68v-630h-68v630zM-4 668v84h57v-84h-57zM81 668v84h57v-84h-57z" />
    <glyph glyph-name="Igrave" unicode="&#xcc;" horiz-adv-x="132" 
d="M32 630h68v-630h-68v630zM89 661h-38l-71 123h74z" />
    <glyph glyph-name="Ntilde" unicode="&#xd1;" horiz-adv-x="360" 
d="M125 666h-37c0 70 12 115 51 115c37 0 58 -62 78 -62c12 0 18 22 18 59h37c0 -70 -12 -115 -51 -115c-37 0 -57 62 -78 62c-12 0 -18 -22 -18 -59zM266 193v437h62v-630h-51l-179 472h-4v-472h-62v630h64l166 -437h4z" />
    <glyph glyph-name="Oacute" unicode="&#xd3;" horiz-adv-x="341" 
d="M188 661h-37l34 123h75zM317 365v-100c0 -174 -40 -273 -147 -273s-147 99 -147 273v100c0 174 40 273 147 273s147 -99 147 -273zM93 394v-158c0 -116 18 -188 77 -188c60 0 78 72 78 188v158c0 116 -18 188 -78 188c-59 0 -77 -72 -77 -188z" />
    <glyph glyph-name="Ocircumflex" unicode="&#xd4;" horiz-adv-x="341" 
d="M317 365v-100c0 -174 -40 -273 -147 -273s-147 99 -147 273v100c0 174 40 273 147 273s147 -99 147 -273zM93 394v-158c0 -116 18 -188 77 -188c60 0 78 72 78 188v158c0 116 -18 188 -78 188c-59 0 -77 -72 -77 -188zM136 778h68l55 -123h-42l-47 79l-46 -79h-42z" />
    <glyph glyph-name="Odieresis" unicode="&#xd6;" horiz-adv-x="341" 
d="M100 668v84h57v-84h-57zM185 668v84h57v-84h-57zM317 365v-100c0 -174 -40 -273 -147 -273s-147 99 -147 273v100c0 174 40 273 147 273s147 -99 147 -273zM93 394v-158c0 -116 18 -188 77 -188c60 0 78 72 78 188v158c0 116 -18 188 -78 188c-59 0 -77 -72 -77 -188z
" />
    <glyph glyph-name="Ograve" unicode="&#xd2;" horiz-adv-x="341" 
d="M194 661h-38l-71 123h74zM317 365v-100c0 -174 -40 -273 -147 -273s-147 99 -147 273v100c0 174 40 273 147 273s147 -99 147 -273zM93 394v-158c0 -116 18 -188 77 -188c60 0 78 72 78 188v158c0 116 -18 188 -78 188c-59 0 -77 -72 -77 -188z" />
    <glyph glyph-name="Otilde" unicode="&#xd5;" horiz-adv-x="341" 
d="M116 666h-37c0 70 12 115 51 115c37 0 58 -62 78 -62c12 0 18 22 18 59h37c0 -70 -12 -115 -51 -115c-37 0 -57 62 -78 62c-12 0 -18 -22 -18 -59zM317 365v-100c0 -174 -40 -273 -147 -273s-147 99 -147 273v100c0 174 40 273 147 273s147 -99 147 -273zM93 394v-158
c0 -116 18 -188 77 -188c60 0 78 72 78 188v158c0 116 -18 188 -78 188c-59 0 -77 -72 -77 -188z" />
    <glyph glyph-name="Scaron" unicode="&#x160;" horiz-adv-x="299" 
d="M12 228h62v-70c0 -72 26 -112 76 -112c47 0 70 37 70 97c0 67 -27 89 -66 123l-49 44c-45 38 -90 78 -90 177c0 86 46 151 130 151c93 0 134 -64 134 -166v-64h-62v65c0 70 -21 111 -71 111c-46 0 -67 -36 -67 -96c0 -67 24 -89 62 -121l50 -43c48 -39 94 -84 94 -179
c0 -90 -49 -153 -134 -153c-92 0 -139 64 -139 168v68zM182 659h-68l-54 123h42l46 -79l47 79h42z" />
    <glyph glyph-name="Uacute" unicode="&#xda;" horiz-adv-x="341" 
d="M188 661h-37l34 123h75zM171 -8c-106 0 -142 76 -142 173v465h68v-463c0 -81 21 -121 74 -121c52 0 73 40 73 121v463h68v-465c0 -97 -35 -173 -141 -173z" />
    <glyph glyph-name="Ucircumflex" unicode="&#xdb;" horiz-adv-x="341" 
d="M171 -8c-106 0 -142 76 -142 173v465h68v-463c0 -81 21 -121 74 -121c52 0 73 40 73 121v463h68v-465c0 -97 -35 -173 -141 -173zM137 778h68l55 -123h-42l-47 79l-46 -79h-42z" />
    <glyph glyph-name="Udieresis" unicode="&#xdc;" horiz-adv-x="341" 
d="M101 668v84h57v-84h-57zM186 668v84h57v-84h-57zM171 -8c-106 0 -142 76 -142 173v465h68v-463c0 -81 21 -121 74 -121c52 0 73 40 73 121v463h68v-465c0 -97 -35 -173 -141 -173z" />
    <glyph glyph-name="Ugrave" unicode="&#xd9;" horiz-adv-x="341" 
d="M194 661h-38l-71 123h74zM171 -8c-106 0 -142 76 -142 173v465h68v-463c0 -81 21 -121 74 -121c52 0 73 40 73 121v463h68v-465c0 -97 -35 -173 -141 -173z" />
    <glyph glyph-name="Yacute" unicode="&#xdd;" horiz-adv-x="329" 
d="M168 317l95 313h66l-132 -402v-228h-65v228l-132 402h69zM182 661h-37l34 123h75z" />
    <glyph glyph-name="Ydieresis" unicode="&#x178;" horiz-adv-x="329" 
d="M168 317l95 313h66l-132 -402v-228h-65v228l-132 402h69zM94 668v84h57v-84h-57zM179 668v84h57v-84h-57z" />
    <glyph glyph-name="Zcaron" unicode="&#x17d;" horiz-adv-x="300" 
d="M191 659h-68l-54 123h42l46 -79l47 79h42zM90 57h195v-57h-270v46l194 527h-189v57h262v-49z" />
    <glyph glyph-name="aacute" unicode="&#xe1;" horiz-adv-x="281" 
d="M178 143v92l-41 -35c-35 -30 -62 -54 -62 -100c0 -37 17 -55 46 -55c35 0 57 47 57 98zM241 306v-240c0 -14 6 -20 17 -20c6 0 12 2 22 6v-44c-12 -9 -25 -14 -43 -14c-29 0 -51 17 -58 58c-10 -34 -39 -58 -81 -58c-53 0 -87 39 -87 97c0 75 56 110 110 154l57 45v25
c0 41 -6 78 -47 78c-40 0 -49 -38 -49 -77v-32h-60v34c0 74 37 126 109 126c85 0 110 -56 110 -138zM154 481h-37l34 124h75z" />
    <glyph glyph-name="acircumflex" unicode="&#xe2;" horiz-adv-x="281" 
d="M178 143v92l-41 -35c-35 -30 -62 -54 -62 -100c0 -37 17 -55 46 -55c35 0 57 47 57 98zM241 306v-240c0 -14 6 -20 17 -20c6 0 12 2 22 6v-44c-12 -9 -25 -14 -43 -14c-29 0 -51 17 -58 58c-10 -34 -39 -58 -81 -58c-53 0 -87 39 -87 97c0 75 56 110 110 154l57 45v25
c0 41 -6 78 -47 78c-40 0 -49 -38 -49 -77v-32h-60v34c0 74 37 126 109 126c85 0 110 -56 110 -138zM104 598h68l55 -122h-42l-47 78l-46 -78h-42z" />
    <glyph glyph-name="adieresis" unicode="&#xe4;" horiz-adv-x="281" 
d="M178 143v92l-41 -35c-35 -30 -62 -54 -62 -100c0 -37 17 -55 46 -55c35 0 57 47 57 98zM241 306v-240c0 -14 6 -20 17 -20c6 0 12 2 22 6v-44c-12 -9 -25 -14 -43 -14c-29 0 -51 17 -58 58c-10 -34 -39 -58 -81 -58c-53 0 -87 39 -87 97c0 75 56 110 110 154l57 45v25
c0 41 -6 78 -47 78c-40 0 -49 -38 -49 -77v-32h-60v34c0 74 37 126 109 126c85 0 110 -56 110 -138zM68 498v84h57v-84h-57zM153 498v84h57v-84h-57z" />
    <glyph glyph-name="agrave" unicode="&#xe0;" horiz-adv-x="281" 
d="M178 143v92l-41 -35c-35 -30 -62 -54 -62 -100c0 -37 17 -55 46 -55c35 0 57 47 57 98zM241 306v-240c0 -14 6 -20 17 -20c6 0 12 2 22 6v-44c-12 -9 -25 -14 -43 -14c-29 0 -51 17 -58 58c-10 -34 -39 -58 -81 -58c-53 0 -87 39 -87 97c0 75 56 110 110 154l57 45v25
c0 41 -6 78 -47 78c-40 0 -49 -38 -49 -77v-32h-60v34c0 74 37 126 109 126c85 0 110 -56 110 -138zM160 481h-38l-71 124h74z" />
    <glyph glyph-name="aring" unicode="&#xe5;" horiz-adv-x="281" 
d="M178 143v92l-41 -35c-35 -30 -62 -54 -62 -100c0 -37 17 -55 46 -55c35 0 57 47 57 98zM241 306v-240c0 -14 6 -20 17 -20c6 0 12 2 22 6v-44c-12 -9 -25 -14 -43 -14c-29 0 -51 17 -58 58c-10 -34 -39 -58 -81 -58c-53 0 -87 39 -87 97c0 75 56 110 110 154l57 45v25
c0 41 -6 78 -47 78c-40 0 -49 -38 -49 -77v-32h-60v34c0 74 37 126 109 126c85 0 110 -56 110 -138zM102 544c0 -23 12 -37 35 -37c22 0 34 14 34 37s-12 37 -34 37c-23 0 -35 -14 -35 -37zM65 544c0 41 28 71 72 71s72 -30 72 -71s-28 -71 -72 -71s-72 30 -72 71z" />
    <glyph glyph-name="atilde" unicode="&#xe3;" horiz-adv-x="281" 
d="M178 143v92l-41 -35c-35 -30 -62 -54 -62 -100c0 -37 17 -55 46 -55c35 0 57 47 57 98zM241 306v-240c0 -14 6 -20 17 -20c6 0 12 2 22 6v-44c-12 -9 -25 -14 -43 -14c-29 0 -51 17 -58 58c-10 -34 -39 -58 -81 -58c-53 0 -87 39 -87 97c0 75 56 110 110 154l57 45v25
c0 41 -6 78 -47 78c-40 0 -49 -38 -49 -77v-32h-60v34c0 74 37 126 109 126c85 0 110 -56 110 -138zM84 487h-37c0 69 12 114 51 114c37 0 58 -61 78 -61c12 0 18 21 18 58h37c0 -70 -12 -114 -51 -114c-37 0 -57 61 -78 61c-12 0 -18 -22 -18 -58z" />
    <glyph glyph-name="ccedilla" unicode="&#xe7;" horiz-adv-x="270" 
d="M214 -104c0 -44 -31 -67 -72 -67c-29 0 -56 13 -73 31l16 36c15 -18 34 -28 55 -28c19 0 30 9 30 26c0 29 -32 38 -69 39l21 61c-72 11 -105 84 -105 214v20c0 142 39 216 126 216c73 0 111 -57 111 -172v-17h-59v17c0 81 -16 120 -53 120c-41 0 -59 -49 -59 -145v-57
c0 -96 18 -146 59 -146c37 0 53 39 53 121v16h59v-17c0 -110 -35 -166 -101 -171l-10 -29c33 -2 71 -21 71 -68z" />
    <glyph glyph-name="eacute" unicode="&#xe9;" horiz-adv-x="273" 
d="M159 481h-37l34 124h75zM195 250c0 85 -13 143 -55 143s-58 -58 -58 -143h113zM17 208v19c0 142 37 217 123 217c85 0 116 -71 116 -211v-28h-174v-13c0 -98 18 -148 60 -148c38 0 55 37 55 114v9h58v-10c0 -108 -40 -165 -113 -165c-87 0 -125 77 -125 216z" />
    <glyph glyph-name="ecircumflex" unicode="&#xea;" horiz-adv-x="273" 
d="M109 598h68l55 -122h-42l-47 78l-46 -78h-42zM195 250c0 85 -13 143 -55 143s-58 -58 -58 -143h113zM17 208v19c0 142 37 217 123 217c85 0 116 -71 116 -211v-28h-174v-13c0 -98 18 -148 60 -148c38 0 55 37 55 114v9h58v-10c0 -108 -40 -165 -113 -165
c-87 0 -125 77 -125 216z" />
    <glyph glyph-name="edieresis" unicode="&#xeb;" horiz-adv-x="273" 
d="M73 498v84h57v-84h-57zM158 498v84h57v-84h-57zM195 250c0 85 -13 143 -55 143s-58 -58 -58 -143h113zM17 208v19c0 142 37 217 123 217c85 0 116 -71 116 -211v-28h-174v-13c0 -98 18 -148 60 -148c38 0 55 37 55 114v9h58v-10c0 -108 -40 -165 -113 -165
c-87 0 -125 77 -125 216z" />
    <glyph glyph-name="egrave" unicode="&#xe8;" horiz-adv-x="273" 
d="M195 250c0 85 -13 143 -55 143s-58 -58 -58 -143h113zM17 208v19c0 142 37 217 123 217c85 0 116 -71 116 -211v-28h-174v-13c0 -98 18 -148 60 -148c38 0 55 37 55 114v9h58v-10c0 -108 -40 -165 -113 -165c-87 0 -125 77 -125 216zM165 481h-38l-71 124h74z" />
    <glyph glyph-name="iacute" unicode="&#xed;" horiz-adv-x="125" 
d="M78 481h-37l34 124h75zM30 436h65v-436h-65v436z" />
    <glyph glyph-name="icircumflex" unicode="&#xee;" horiz-adv-x="125" 
d="M28 598h69l45 -122h-43l-37 78l-35 -78h-44zM30 436h65v-436h-65v436z" />
    <glyph glyph-name="idieresis" unicode="&#xef;" horiz-adv-x="125" 
d="M-5 497v85h55v-85h-55zM76 497v85h54v-85h-54zM30 436h65v-436h-65v436z" />
    <glyph glyph-name="igrave" unicode="&#xec;" horiz-adv-x="125" 
d="M30 436h65v-436h-65v436zM84 481h-38l-71 124h74z" />
    <glyph glyph-name="ntilde" unicode="&#xf1;" horiz-adv-x="305" 
d="M95 289v-289h-65v436h65v-48c12 31 44 56 87 56c71 0 93 -54 93 -111v-333h-65v317c0 45 -15 72 -53 72c-43 0 -62 -44 -62 -100zM101 487h-37c0 69 12 114 51 114c37 0 58 -61 78 -61c12 0 18 21 18 58h37c0 -70 -12 -114 -51 -114c-37 0 -57 61 -78 61
c-12 0 -18 -22 -18 -58z" />
    <glyph glyph-name="oacute" unicode="&#xf3;" horiz-adv-x="285" 
d="M158 481h-37l34 124h75zM83 238v-40c0 -113 18 -154 60 -154c41 0 59 41 59 154v40c0 113 -18 154 -59 154c-42 0 -60 -41 -60 -154zM268 227v-18c0 -142 -38 -217 -125 -217c-88 0 -126 75 -126 217v18c0 142 38 217 126 217c87 0 125 -75 125 -217z" />
    <glyph glyph-name="ocircumflex" unicode="&#xf4;" horiz-adv-x="285" 
d="M108 598h68l55 -122h-42l-47 78l-46 -78h-42zM83 238v-40c0 -113 18 -154 60 -154c41 0 59 41 59 154v40c0 113 -18 154 -59 154c-42 0 -60 -41 -60 -154zM268 227v-18c0 -142 -38 -217 -125 -217c-88 0 -126 75 -126 217v18c0 142 38 217 126 217c87 0 125 -75 125 -217
z" />
    <glyph glyph-name="odieresis" unicode="&#xf6;" horiz-adv-x="285" 
d="M72 498v84h57v-84h-57zM157 498v84h57v-84h-57zM83 238v-40c0 -113 18 -154 60 -154c41 0 59 41 59 154v40c0 113 -18 154 -59 154c-42 0 -60 -41 -60 -154zM268 227v-18c0 -142 -38 -217 -125 -217c-88 0 -126 75 -126 217v18c0 142 38 217 126 217
c87 0 125 -75 125 -217z" />
    <glyph glyph-name="ograve" unicode="&#xf2;" horiz-adv-x="285" 
d="M83 238v-40c0 -113 18 -154 60 -154c41 0 59 41 59 154v40c0 113 -18 154 -59 154c-42 0 -60 -41 -60 -154zM268 227v-18c0 -142 -38 -217 -125 -217c-88 0 -126 75 -126 217v18c0 142 38 217 126 217c87 0 125 -75 125 -217zM164 481h-38l-71 124h74z" />
    <glyph glyph-name="otilde" unicode="&#xf5;" horiz-adv-x="285" 
d="M83 238v-40c0 -113 18 -154 60 -154c41 0 59 41 59 154v40c0 113 -18 154 -59 154c-42 0 -60 -41 -60 -154zM268 227v-18c0 -142 -38 -217 -125 -217c-88 0 -126 75 -126 217v18c0 142 38 217 126 217c87 0 125 -75 125 -217zM88 487h-37c0 69 12 114 51 114
c37 0 58 -61 78 -61c12 0 18 21 18 58h37c0 -70 -12 -114 -51 -114c-37 0 -57 61 -78 61c-12 0 -18 -22 -18 -58z" />
    <glyph glyph-name="scaron" unicode="&#x161;" horiz-adv-x="255" 
d="M162 479h-68l-54 123h42l46 -79l47 79h42zM12 147h57v-25c0 -49 21 -80 60 -80c36 0 53 26 53 64c0 36 -17 53 -43 69l-42 24c-42 24 -79 59 -79 130c0 67 39 115 108 115c74 0 109 -47 109 -119v-35h-56v26c0 45 -11 78 -52 78c-32 0 -49 -24 -49 -62
c0 -36 15 -58 42 -74l45 -26c44 -26 78 -55 78 -121c0 -74 -45 -119 -114 -119c-72 0 -117 45 -117 128v27z" />
    <glyph glyph-name="uacute" unicode="&#xfa;" horiz-adv-x="301" 
d="M166 481h-37l34 124h75zM206 147v289h66v-436h-66v48c-11 -32 -41 -56 -85 -56c-69 0 -91 54 -91 112v332h65v-317c0 -44 14 -72 49 -72c45 0 62 45 62 100z" />
    <glyph glyph-name="ucircumflex" unicode="&#xfb;" horiz-adv-x="301" 
d="M117 598h68l55 -122h-42l-47 78l-46 -78h-42zM206 147v289h66v-436h-66v48c-11 -32 -41 -56 -85 -56c-69 0 -91 54 -91 112v332h65v-317c0 -44 14 -72 49 -72c45 0 62 45 62 100z" />
    <glyph glyph-name="udieresis" unicode="&#xfc;" horiz-adv-x="301" 
d="M81 498v84h57v-84h-57zM166 498v84h57v-84h-57zM206 147v289h66v-436h-66v48c-11 -32 -41 -56 -85 -56c-69 0 -91 54 -91 112v332h65v-317c0 -44 14 -72 49 -72c45 0 62 45 62 100z" />
    <glyph glyph-name="ugrave" unicode="&#xf9;" horiz-adv-x="301" 
d="M206 147v289h66v-436h-66v48c-11 -32 -41 -56 -85 -56c-69 0 -91 54 -91 112v332h65v-317c0 -44 14 -72 49 -72c45 0 62 45 62 100zM172 481h-38l-71 124h74z" />
    <glyph glyph-name="yacute" unicode="&#xfd;" horiz-adv-x="283" 
d="M115 -1l-115 437h65l80 -327h4l74 327h60l-150 -604h-61zM157 481h-37l34 124h75z" />
    <glyph glyph-name="ydieresis" unicode="&#xff;" horiz-adv-x="283" 
d="M115 -1l-115 437h65l80 -327h4l74 327h60l-150 -604h-61zM71 498v84h57v-84h-57zM156 498v84h57v-84h-57z" />
    <glyph glyph-name="zcaron" unicode="&#x17e;" horiz-adv-x="248" 
d="M164 479h-68l-54 123h42l46 -79l47 79h42zM164 385h-144v51h212v-44l-147 -340h147v-52h-216v45z" />
    <glyph glyph-name="Euro" unicode="&#x20ac;" horiz-adv-x="362" 
d="M10 331v45h48c1 168 41 262 146 262c104 0 134 -94 134 -254v-18h-65v28c0 117 -11 188 -70 188s-78 -71 -78 -188v-18h97l-10 -45h-87v-39h77l-10 -45h-67v-11c0 -117 19 -188 78 -188s70 71 70 188v28h65v-18c0 -160 -30 -254 -134 -254s-144 91 -146 255h-48v45h48v39
h-48z" />
    <glyph glyph-name="approxequal" unicode="&#x2248;" horiz-adv-x="374" 
d="M35 311v47c29 21 57 28 81 28c53 0 87 -26 139 -26c25 0 54 7 85 27v-48c-31 -20 -60 -27 -85 -27c-52 0 -86 26 -139 26c-24 0 -52 -8 -81 -27zM35 215v48c29 20 57 28 81 28c53 0 87 -28 139 -28c25 0 54 8 85 29v-49c-31 -19 -60 -27 -85 -27c-52 0 -86 27 -139 27
c-24 0 -52 -8 -81 -28z" />
    <glyph glyph-name="notequal" unicode="&#x2260;" horiz-adv-x="374" 
d="M35 328v47h181l52 72h48l-52 -72h76v-47h-110l-41 -56h151v-45h-183l-52 -72h-47l52 72h-75v45h107l40 56h-147z" />
    <glyph glyph-name="lessequal" unicode="&#x2264;" horiz-adv-x="279" 
d="M23 136v50h233v-50h-233zM23 312v60l233 99v-54l-181 -75l181 -76v-54z" />
    <glyph glyph-name="greaterequal" unicode="&#x2265;" horiz-adv-x="279" 
d="M256 186v-50h-233v50h233zM256 372v-60l-233 -100v54l181 76l-181 75v54z" />
    <glyph glyph-name="uni00A0" unicode="&#xa0;" horiz-adv-x="112" 
 />
    <glyph glyph-name="twosuperior" unicode="&#xb2;" horiz-adv-x="216" 
d="M137 456l-51 -53h108v-42h-172v35l71 75c31 33 50 54 50 82c0 25 -14 40 -36 40c-24 0 -37 -17 -37 -49v-12h-48v15c0 52 30 86 84 86c55 0 86 -29 86 -78c0 -35 -18 -62 -55 -99z" />
    <glyph glyph-name="Tcedilla" unicode="&#x162;" horiz-adv-x="322" 
d="M124 -95v56h69v-46c0 -39 -11 -73 -69 -73v28c24 0 30 11 30 35h-30zM193 0h-68v573h-115v57h301v-57h-118v-573z" />
    <glyph glyph-name="tcedilla" unicode="&#x163;" horiz-adv-x="196" 
d="M72 -95v56h69v-46c0 -39 -11 -73 -69 -73v28c24 0 30 11 30 35h-30zM43 74v315h-43v35l13 2c35 8 40 30 47 70l9 49h37v-109h76v-47h-76v-302c0 -25 7 -35 25 -35c17 0 34 3 56 17v-46c-23 -19 -48 -27 -74 -27c-44 0 -70 23 -70 78z" />
    <glyph glyph-name="i.dot" horiz-adv-x="125" 
d="M30 436h65v-436h-65v436zM31 514v86h65v-86h-65z" />
    <glyph glyph-name="uni0237" unicode="&#x237;" horiz-adv-x="125" 
d="M95 436v-507c0 -69 -25 -105 -86 -105c-18 0 -32 3 -44 9l6 46c7 -3 16 -5 25 -5c26 0 34 15 34 47v515h65z" />
    <glyph glyph-name="space_uni0326" 
d="M103 -95v56h69v-46c0 -39 -11 -73 -69 -73v28c24 0 30 11 30 35h-30z" />
    <glyph glyph-name="space_uni0326.alt" 
d="M173 551v-55h-69v46c0 39 11 73 69 73v-28c-24 0 -30 -11 -30 -36h30z" />
    <glyph glyph-name="space_dotbelowcomb" 
d="M106 -127v86h65v-86h-65z" />
    <glyph glyph-name="uni2117" unicode="&#x2117;" horiz-adv-x="510" 
d="M255 638c140 0 235 -136 235 -323s-95 -323 -235 -323c-141 0 -235 136 -235 323s94 323 235 323zM255 597c-120 0 -193 -124 -193 -282s73 -282 193 -282s193 124 193 282s-73 282 -193 282zM231 310h23c43 0 67 18 67 72c0 55 -24 72 -67 72h-23v-144zM231 264v-137
h-51v373h79c79 0 114 -44 114 -117c0 -76 -35 -119 -114 -119h-28z" />
    <glyph glyph-name="Abreve" unicode="&#x102;" horiz-adv-x="336" 
d="M128 630h80l128 -630h-68l-38 196h-129l-37 -196h-64zM164 521l-52 -269h107l-51 269h-4zM168 657c-58 0 -80 40 -80 122h44c0 -46 5 -77 36 -77s36 31 36 77h45c0 -82 -22 -122 -81 -122z" />
    <glyph glyph-name="Amacron" unicode="&#x100;" horiz-adv-x="336" 
d="M128 630h80l128 -630h-68l-38 196h-129l-37 -196h-64zM164 521l-52 -269h107l-51 269h-4zM93 672v50h150v-50h-150z" />
    <glyph glyph-name="Aogonek" unicode="&#x104;" horiz-adv-x="336" 
d="M128 630h80l128 -630h-26c-33 -38 -43 -63 -43 -90c0 -23 13 -35 30 -35c8 0 16 2 25 5v-41c-11 -7 -25 -10 -39 -10c-37 0 -64 26 -64 70c0 38 19 71 49 101l-38 196h-129l-37 -196h-64zM164 521l-51 -269h106l-51 269h-4z" />
    <glyph glyph-name="Aringacute" unicode="&#x1fa;" horiz-adv-x="336" 
d="M128 630h80l128 -630h-68l-38 196h-129l-37 -196h-64zM94 710c0 37 28 66 73 66c46 0 74 -29 74 -66c0 -36 -28 -66 -74 -66c-45 0 -73 30 -73 66zM164 521l-52 -269h107l-51 269h-4zM148 791l23 85h76l-59 -85h-40zM167 676c24 0 36 14 36 34c0 21 -12 35 -36 35
s-35 -14 -35 -35c0 -20 11 -34 35 -34z" />
    <glyph glyph-name="AEacute" unicode="&#x1fc;" horiz-adv-x="472" 
d="M457 0h-234v198h-104l-55 -198h-64l179 630h272v-57h-162v-218h124v-58h-124v-240h168v-57zM223 555h-4l-84 -301h88v301zM317 661h-37l34 123h75z" />
    <glyph glyph-name="Cacute" unicode="&#x106;" horiz-adv-x="328" 
d="M93 394v-158c0 -117 17 -188 76 -188s69 71 69 188v28h66v-18c0 -160 -31 -254 -134 -254c-108 0 -147 98 -147 273v100c0 175 39 273 147 273c103 0 134 -94 134 -254v-18h-66v28c0 117 -10 188 -69 188s-76 -71 -76 -188zM189 661h-37l34 123h75z" />
    <glyph glyph-name="Ccaron" unicode="&#x10c;" horiz-adv-x="328" 
d="M93 394v-158c0 -117 17 -188 76 -188s69 71 69 188v28h66v-18c0 -160 -31 -254 -134 -254c-108 0 -147 98 -147 273v100c0 175 39 273 147 273c103 0 134 -94 134 -254v-18h-66v28c0 117 -10 188 -69 188s-76 -71 -76 -188zM206 659h-68l-54 123h42l46 -79l47 79h42z" />
    <glyph glyph-name="Ccircumflex" unicode="&#x108;" horiz-adv-x="328" 
d="M93 394v-158c0 -117 17 -188 76 -188s69 71 69 188v28h66v-18c0 -160 -31 -254 -134 -254c-108 0 -147 98 -147 273v100c0 175 39 273 147 273c103 0 134 -94 134 -254v-18h-66v28c0 117 -10 188 -69 188s-76 -71 -76 -188zM138 778h68l55 -123h-42l-47 79l-46 -79h-42z
" />
    <glyph glyph-name="Cdotaccent" unicode="&#x10a;" horiz-adv-x="328" 
d="M140 670v85h65v-85h-65zM93 394v-158c0 -117 17 -188 76 -188s69 71 69 188v28h66v-18c0 -160 -31 -254 -134 -254c-108 0 -147 98 -147 273v100c0 175 39 273 147 273c103 0 134 -94 134 -254v-18h-66v28c0 117 -10 188 -69 188s-76 -71 -76 -188z" />
    <glyph glyph-name="Dcaron" unicode="&#x10e;" horiz-adv-x="336" 
d="M191 659h-68l-54 123h42l46 -79l47 79h42zM245 256v118c0 154 -26 201 -100 201h-45v-520h45c74 0 100 47 100 201zM312 372v-114c0 -182 -43 -258 -162 -258h-118v630h118c119 0 162 -76 162 -258z" />
    <glyph glyph-name="Dcroat" unicode="&#x110;" horiz-adv-x="338" 
d="M4 297v58h30v275h118c119 0 162 -76 162 -258v-114c0 -182 -43 -258 -162 -258h-118v297h-30zM246 256v118c0 154 -25 201 -99 201h-45v-220h52v-58h-52v-242h45c74 0 99 47 99 201z" />
    <glyph glyph-name="Ebreve" unicode="&#x114;" horiz-adv-x="284" 
d="M150 657c-58 0 -80 40 -80 122h44c0 -46 5 -77 36 -77s36 31 36 77h45c0 -82 -22 -122 -81 -122zM269 57v-57h-237v630h230v-57h-164v-218h126v-58h-126v-240h171z" />
    <glyph glyph-name="Ecaron" unicode="&#x11a;" horiz-adv-x="284" 
d="M184 659h-68l-54 123h42l46 -79l47 79h42zM269 57v-57h-237v630h230v-57h-164v-218h126v-58h-126v-240h171z" />
    <glyph glyph-name="Edotaccent" unicode="&#x116;" horiz-adv-x="284" 
d="M118 670v85h65v-85h-65zM269 57v-57h-237v630h230v-57h-164v-218h126v-58h-126v-240h171z" />
    <glyph glyph-name="Emacron" unicode="&#x112;" horiz-adv-x="284" 
d="M75 672v50h150v-50h-150zM269 57v-57h-237v630h230v-57h-164v-218h126v-58h-126v-240h171z" />
    <glyph glyph-name="Eogonek" unicode="&#x118;" horiz-adv-x="284" 
d="M269 57v-57h-29c-33 -38 -43 -62 -43 -90c0 -23 13 -35 30 -35c7 0 16 2 25 5v-41c-11 -7 -25 -10 -40 -10c-37 0 -64 26 -64 70c0 38 20 71 49 101h-165v630h230v-57h-164v-218h126v-58h-126v-240h171z" />
    <glyph glyph-name="Gbreve" unicode="&#x11e;" horiz-adv-x="337" 
d="M174 657c-58 0 -80 40 -80 122h44c0 -46 5 -77 36 -77s36 31 36 77h45c0 -82 -22 -122 -81 -122zM309 0h-46l-8 71c-9 -53 -50 -79 -93 -79c-99 0 -139 98 -139 273v100c0 175 41 273 147 273c104 0 137 -92 137 -252v-8h-67v16c0 117 -11 188 -70 188s-77 -71 -77 -188
v-158c0 -116 18 -187 78 -187c58 0 76 69 76 187v19h-66v55h128v-310z" />
    <glyph glyph-name="Gcircumflex" unicode="&#x11c;" horiz-adv-x="337" 
d="M309 0h-46l-8 71c-9 -53 -50 -79 -93 -79c-99 0 -139 98 -139 273v100c0 175 41 273 147 273c104 0 137 -92 137 -252v-8h-67v16c0 117 -11 188 -70 188s-77 -71 -77 -188v-158c0 -116 18 -187 78 -187c58 0 76 69 76 187v19h-66v55h128v-310zM140 778h68l55 -123h-42
l-47 79l-46 -79h-42z" />
    <glyph glyph-name="Gcommaaccent" unicode="&#x122;" horiz-adv-x="337" 
d="M138 -95v56h69v-46c0 -39 -11 -73 -69 -73v28c24 0 30 11 30 35h-30zM309 0h-46l-8 71c-9 -53 -50 -79 -93 -79c-99 0 -139 98 -139 273v100c0 175 41 273 147 273c104 0 137 -92 137 -252v-8h-67v16c0 117 -11 188 -70 188s-77 -71 -77 -188v-158
c0 -116 18 -187 78 -187c58 0 76 69 76 187v19h-66v55h128v-310z" />
    <glyph glyph-name="Gdotaccent" unicode="&#x120;" horiz-adv-x="337" 
d="M142 670v85h65v-85h-65zM309 0h-46l-8 71c-9 -53 -50 -79 -93 -79c-99 0 -139 98 -139 273v100c0 175 41 273 147 273c104 0 137 -92 137 -252v-8h-67v16c0 117 -11 188 -70 188s-77 -71 -77 -188v-158c0 -116 18 -187 78 -187c58 0 76 69 76 187v19h-66v55h128v-310z
" />
    <glyph glyph-name="Hbar" unicode="&#x126;" horiz-adv-x="365" 
d="M4 458v56h30v116h68v-116h161v116h68v-116h30v-56h-30v-458h-68v293h-161v-293h-68v458h-30zM102 349h161v109h-161v-109z" />
    <glyph glyph-name="Hcircumflex" unicode="&#x124;" horiz-adv-x="361" 
d="M100 0h-68v630h68v-275h162v275h68v-630h-68v297h-162v-297zM146 778h68l55 -123h-42l-47 79l-46 -79h-42z" />
    <glyph glyph-name="Ibreve" unicode="&#x12c;" horiz-adv-x="132" 
d="M32 630h68v-630h-68v630zM66 657c-58 0 -80 40 -80 122h44c0 -46 5 -77 36 -77s36 31 36 77h45c0 -82 -22 -122 -81 -122z" />
    <glyph glyph-name="Idotaccent" unicode="&#x130;" horiz-adv-x="132" 
d="M32 630h68v-630h-68v630zM34 670v85h65v-85h-65z" />
    <glyph glyph-name="Imacron" unicode="&#x12a;" horiz-adv-x="132" 
d="M32 630h68v-630h-68v630zM-9 672v50h150v-50h-150z" />
    <glyph glyph-name="Iogonek" unicode="&#x12e;" horiz-adv-x="132" 
d="M32 630h68v-630c-37 -38 -46 -63 -46 -90c0 -23 13 -35 30 -35c7 0 16 2 25 5v-41c-11 -7 -25 -10 -40 -10c-35 0 -63 26 -63 70c0 40 20 72 46 101h-20v630z" />
    <glyph glyph-name="Itilde" unicode="&#x128;" horiz-adv-x="132" 
d="M32 630h68v-630h-68v630zM11 666h-37c0 70 12 115 51 115c37 0 58 -62 78 -62c12 0 18 22 18 59h37c0 -70 -12 -115 -51 -115c-37 0 -57 62 -78 62c-12 0 -18 -22 -18 -59z" />
    <glyph glyph-name="IJ" unicode="&#x132;" horiz-adv-x="425" 
d="M32 630h68v-630h-68v630zM127 163v90h66v-87c0 -77 17 -119 67 -119c49 0 68 42 68 119v464h68v-468c0 -93 -34 -170 -136 -170c-101 0 -133 77 -133 171z" />
    <glyph glyph-name="Jcircumflex" unicode="&#x134;" horiz-adv-x="312" 
d="M14 163v90h66v-87c0 -77 17 -119 67 -119c49 0 68 42 68 119v464h68v-468c0 -93 -34 -170 -136 -170c-101 0 -133 77 -133 171zM214 778h68l55 -123h-42l-47 79l-46 -79h-42z" />
    <glyph glyph-name="Kcommaaccent" unicode="&#x136;" horiz-adv-x="325" 
d="M131 -95v56h69v-46c0 -39 -11 -73 -69 -73v28c24 0 30 11 30 35h-30zM325 0h-71l-114 281l-40 -87v-194h-68v630h68v-328l147 328h68l-128 -281z" />
    <glyph glyph-name="Lacute" unicode="&#x139;" horiz-adv-x="276" 
d="M84 661h-37l34 123h75zM32 630h68v-573h166v-57h-234v630z" />
    <glyph glyph-name="Lcaron" unicode="&#x13d;" horiz-adv-x="276" 
d="M180 502h-35l13 128h69zM32 630h68v-573h166v-57h-234v630z" />
    <glyph glyph-name="Lcommaaccent" unicode="&#x13b;" horiz-adv-x="276" 
d="M112 -95v56h69v-46c0 -39 -11 -73 -69 -73v28c24 0 30 11 30 35h-30zM32 630h68v-573h166v-57h-234v630z" />
    <glyph glyph-name="Ldot" unicode="&#x13f;" horiz-adv-x="276" 
d="M32 630h68v-573h166v-57h-234v630zM166 249v71h70v-71h-70z" />
    <glyph glyph-name="Nacute" unicode="&#x143;" horiz-adv-x="360" 
d="M197 661h-37l34 123h75zM266 193v437h62v-630h-51l-179 472h-4v-472h-62v630h64l166 -437h4z" />
    <glyph glyph-name="Ncaron" unicode="&#x147;" horiz-adv-x="360" 
d="M214 659h-68l-54 123h42l46 -79l47 79h42zM266 193v437h62v-630h-51l-179 472h-4v-472h-62v630h64l166 -437h4z" />
    <glyph glyph-name="Ncommaaccent" unicode="&#x145;" horiz-adv-x="360" 
d="M144 -95v56h69v-46c0 -39 -11 -73 -69 -73v28c24 0 30 11 30 35h-30zM266 193v437h62v-630h-51l-179 472h-4v-472h-62v630h64l166 -437h4z" />
    <glyph glyph-name="Eng" unicode="&#x14a;" horiz-adv-x="360" 
d="M267 31l-169 441h-4v-472h-62v630h64l166 -437h4v437h62v-642c0 -94 -41 -147 -114 -147c-49 0 -86 25 -109 71l37 37c17 -34 40 -51 69 -51c41 0 56 34 56 85v48z" />
    <glyph glyph-name="Obreve" unicode="&#x14e;" horiz-adv-x="341" 
d="M170 657c-58 0 -80 40 -80 122h44c0 -46 5 -77 36 -77s36 31 36 77h45c0 -82 -22 -122 -81 -122zM317 365v-100c0 -174 -40 -273 -147 -273s-147 99 -147 273v100c0 174 40 273 147 273s147 -99 147 -273zM93 394v-158c0 -116 18 -188 77 -188c60 0 78 72 78 188v158
c0 116 -18 188 -78 188c-59 0 -77 -72 -77 -188z" />
    <glyph glyph-name="Ohungarumlaut" unicode="&#x150;" horiz-adv-x="341" 
d="M317 365v-100c0 -174 -40 -273 -147 -273s-147 99 -147 273v100c0 174 40 273 147 273s147 -99 147 -273zM93 394v-158c0 -116 18 -188 77 -188c60 0 78 72 78 188v158c0 116 -18 188 -78 188c-59 0 -77 -72 -77 -188zM145 661h-32l20 124h68zM227 661h-33l20 124h68z
" />
    <glyph glyph-name="Omacron" unicode="&#x14c;" horiz-adv-x="341" 
d="M95 672v50h150v-50h-150zM317 365v-100c0 -174 -40 -273 -147 -273s-147 99 -147 273v100c0 174 40 273 147 273s147 -99 147 -273zM93 394v-158c0 -116 18 -188 77 -188c60 0 78 72 78 188v158c0 116 -18 188 -78 188c-59 0 -77 -72 -77 -188z" />
    <glyph glyph-name="Oslashacute" unicode="&#x1fe;" horiz-adv-x="341" 
d="M24 6l27 69c-20 46 -28 110 -28 190v100c0 174 40 273 147 273c37 0 67 -13 89 -37l17 42l40 -19l-28 -69c20 -46 29 -111 29 -190v-100c0 -174 -40 -273 -147 -273c-38 0 -67 12 -90 36l-16 -41zM250 394c0 21 -1 41 -2 58l-141 -355c13 -33 33 -49 63 -49
c60 0 80 71 80 188v158zM91 394v-158c0 -21 1 -40 2 -57l140 355c-13 32 -33 48 -63 48c-59 0 -79 -71 -79 -188zM188 661h-37l34 123h75z" />
    <glyph glyph-name="Racute" unicode="&#x154;" horiz-adv-x="333" 
d="M317 0h-70c-12 35 -15 65 -19 149c-4 80 -14 120 -87 120h-42v-269h-67v630h112c125 0 171 -70 171 -179c0 -97 -41 -144 -104 -155c68 -15 80 -69 83 -144s5 -115 23 -152zM99 324h39c84 0 108 43 108 126c0 77 -24 124 -108 124h-39v-250zM176 661h-37l34 123h75z" />
    <glyph glyph-name="Rcaron" unicode="&#x158;" horiz-adv-x="333" 
d="M193 659h-68l-54 123h42l46 -79l47 79h42zM317 0h-70c-12 35 -15 65 -19 149c-4 80 -14 120 -87 120h-42v-269h-67v630h112c125 0 171 -70 171 -179c0 -97 -41 -144 -104 -155c68 -15 80 -69 83 -144s5 -115 23 -152zM99 324h39c84 0 108 43 108 126
c0 77 -24 124 -108 124h-39v-250z" />
    <glyph glyph-name="Rcommaaccent" unicode="&#x156;" horiz-adv-x="333" 
d="M135 -95v56h69v-46c0 -39 -11 -73 -69 -73v28c24 0 30 11 30 35h-30zM317 0h-70c-12 35 -15 65 -19 149c-4 80 -14 120 -87 120h-42v-269h-67v630h112c125 0 171 -70 171 -179c0 -97 -41 -144 -104 -155c68 -15 80 -69 83 -144s5 -115 23 -152zM99 324h39
c84 0 108 43 108 126c0 77 -24 124 -108 124h-39v-250z" />
    <glyph glyph-name="Sacute" unicode="&#x15a;" horiz-adv-x="299" 
d="M12 228h62v-70c0 -72 26 -112 76 -112c47 0 70 37 70 97c0 67 -27 89 -66 123l-49 44c-45 38 -90 78 -90 177c0 86 46 151 130 151c93 0 134 -64 134 -166v-64h-62v65c0 70 -21 111 -71 111c-46 0 -67 -36 -67 -96c0 -67 24 -89 62 -121l50 -43c48 -39 94 -84 94 -179
c0 -90 -49 -153 -134 -153c-92 0 -139 64 -139 168v68zM166 661h-37l34 123h75z" />
    <glyph glyph-name="Scedilla" unicode="&#x15e;" horiz-adv-x="299" 
d="M219 -104c0 -44 -31 -67 -72 -67c-29 0 -56 13 -73 31l16 36c15 -18 34 -28 55 -28c19 0 30 9 30 26c0 29 -32 38 -69 39l21 61c-76 9 -115 71 -115 166v68h62v-70c0 -72 26 -112 76 -112c47 0 70 37 70 97c0 67 -27 89 -66 123l-49 44c-45 38 -90 78 -90 177
c0 86 46 151 130 151c93 0 134 -64 134 -166v-64h-62v65c0 70 -21 111 -71 111c-46 0 -67 -36 -67 -96c0 -67 24 -89 62 -121l50 -43c48 -39 94 -84 94 -179c0 -88 -46 -149 -127 -153l-10 -28c33 -2 71 -21 71 -68z" />
    <glyph glyph-name="Scircumflex" unicode="&#x15c;" horiz-adv-x="299" 
d="M12 228h62v-70c0 -72 26 -112 76 -112c47 0 70 37 70 97c0 67 -27 89 -66 123l-49 44c-45 38 -90 78 -90 177c0 86 46 151 130 151c93 0 134 -64 134 -166v-64h-62v65c0 70 -21 111 -71 111c-46 0 -67 -36 -67 -96c0 -67 24 -89 62 -121l50 -43c48 -39 94 -84 94 -179
c0 -90 -49 -153 -134 -153c-92 0 -139 64 -139 168v68zM114 778h68l55 -123h-42l-47 79l-46 -79h-42z" />
    <glyph glyph-name="Scommaaccent" unicode="&#x218;" horiz-adv-x="299" 
d="M113 -95v56h69v-46c0 -39 -11 -73 -69 -73v28c24 0 30 11 30 35h-30zM12 228h62v-70c0 -72 26 -112 76 -112c47 0 70 37 70 97c0 67 -27 89 -66 123l-49 44c-45 38 -90 78 -90 177c0 86 46 151 130 151c93 0 134 -64 134 -166v-64h-62v65c0 70 -21 111 -71 111
c-46 0 -67 -36 -67 -96c0 -67 24 -89 62 -121l50 -43c48 -39 94 -84 94 -179c0 -90 -49 -153 -134 -153c-92 0 -139 64 -139 168v68z" />
    <glyph glyph-name="Tbar" unicode="&#x166;" horiz-adv-x="322" 
d="M65 294v58h60v221h-115v57h301v-57h-118v-221h60v-58h-60v-294h-68v294h-60z" />
    <glyph glyph-name="Tcaron" unicode="&#x164;" horiz-adv-x="322" 
d="M194 659h-68l-54 123h42l46 -79l47 79h42zM193 0h-68v573h-115v57h301v-57h-118v-573z" />
    <glyph glyph-name="Ubreve" unicode="&#x16c;" horiz-adv-x="341" 
d="M171 657c-58 0 -80 40 -80 122h44c0 -46 5 -77 36 -77s36 31 36 77h45c0 -82 -22 -122 -81 -122zM171 -8c-106 0 -142 76 -142 173v465h68v-463c0 -81 21 -121 74 -121c52 0 73 40 73 121v463h68v-465c0 -97 -35 -173 -141 -173z" />
    <glyph glyph-name="Uhungarumlaut" unicode="&#x170;" horiz-adv-x="341" 
d="M171 -8c-106 0 -142 76 -142 173v465h68v-463c0 -81 21 -121 74 -121c52 0 73 40 73 121v463h68v-465c0 -97 -35 -173 -141 -173zM145 661h-32l20 124h68zM227 661h-33l20 124h68z" />
    <glyph glyph-name="Umacron" unicode="&#x16a;" horiz-adv-x="341" 
d="M96 672v50h150v-50h-150zM171 -8c-106 0 -142 76 -142 173v465h68v-463c0 -81 21 -121 74 -121c52 0 73 40 73 121v463h68v-465c0 -97 -35 -173 -141 -173z" />
    <glyph glyph-name="Uogonek" unicode="&#x172;" horiz-adv-x="341" 
d="M171 -8c-106 0 -142 76 -142 173v465h68v-463c0 -81 21 -121 74 -121c52 0 73 40 73 121v463h68v-465c0 -69 -19 -115 -55 -146c-50 -44 -63 -73 -63 -109c0 -23 13 -35 30 -35c8 0 16 2 25 5v-41c-11 -7 -24 -10 -39 -10c-37 0 -64 26 -64 70c0 35 17 66 42 94
c-5 0 -12 -1 -17 -1z" />
    <glyph glyph-name="Uring" unicode="&#x16e;" horiz-adv-x="341" 
d="M171 -8c-106 0 -142 76 -142 173v465h68v-463c0 -81 21 -121 74 -121c52 0 73 40 73 121v463h68v-465c0 -97 -35 -173 -141 -173zM136 724c0 -23 12 -37 35 -37c22 0 34 14 34 37s-12 37 -34 37c-23 0 -35 -14 -35 -37zM99 724c0 40 28 71 72 71s72 -31 72 -71
c0 -41 -28 -71 -72 -71s-72 30 -72 71z" />
    <glyph glyph-name="Utilde" unicode="&#x168;" horiz-adv-x="341" 
d="M116 666h-37c0 70 12 115 51 115c37 0 58 -62 78 -62c12 0 18 22 18 59h37c0 -70 -12 -115 -51 -115c-37 0 -57 62 -78 62c-12 0 -18 -22 -18 -59zM171 -8c-106 0 -142 76 -142 173v465h68v-463c0 -81 21 -121 74 -121c52 0 73 40 73 121v463h68v-465
c0 -97 -35 -173 -141 -173z" />
    <glyph glyph-name="Wacute" unicode="&#x1e82;" horiz-adv-x="453" 
d="M244 661h-37l34 123h75zM325 166l67 464h61l-98 -630h-62l-64 456h-4l-65 -456h-62l-98 630h64l67 -464h4l65 464h56l65 -464h4z" />
    <glyph glyph-name="Wcircumflex" unicode="&#x174;" horiz-adv-x="453" 
d="M325 166l67 464h61l-98 -630h-62l-64 456h-4l-65 -456h-62l-98 630h64l67 -464h4l65 464h56l65 -464h4zM192 778h68l55 -123h-42l-47 79l-46 -79h-42z" />
    <glyph glyph-name="Wgrave" unicode="&#x1e80;" horiz-adv-x="453" 
d="M250 661h-38l-71 123h74zM325 166l67 464h61l-98 -630h-62l-64 456h-4l-65 -456h-62l-98 630h64l67 -464h4l65 464h56l65 -464h4z" />
    <glyph glyph-name="Wdieresis" unicode="&#x1e84;" horiz-adv-x="453" 
d="M156 668v84h57v-84h-57zM241 668v84h57v-84h-57zM325 166l67 464h61l-98 -630h-62l-64 456h-4l-65 -456h-62l-98 630h64l67 -464h4l65 464h56l65 -464h4z" />
    <glyph glyph-name="Ycircumflex" unicode="&#x176;" horiz-adv-x="329" 
d="M168 317l95 313h66l-132 -402v-228h-65v228l-132 402h69zM130 778h68l55 -123h-42l-47 79l-46 -79h-42z" />
    <glyph glyph-name="Ygrave" unicode="&#x1ef2;" horiz-adv-x="329" 
d="M168 317l95 313h66l-132 -402v-228h-65v228l-132 402h69zM187 661h-38l-71 123h74z" />
    <glyph glyph-name="Zacute" unicode="&#x179;" horiz-adv-x="300" 
d="M90 57h195v-57h-270v46l194 527h-189v57h262v-49zM175 661h-37l34 123h75z" />
    <glyph glyph-name="Zdotaccent" unicode="&#x17b;" horiz-adv-x="300" 
d="M126 670v85h65v-85h-65zM90 57h195v-57h-270v46l194 527h-189v57h262v-49z" />
    <glyph glyph-name="abreve" unicode="&#x103;" horiz-adv-x="281" 
d="M178 143v92l-41 -35c-35 -30 -62 -54 -62 -100c0 -37 17 -55 46 -55c35 0 57 47 57 98zM241 306v-240c0 -14 6 -20 17 -20c6 0 12 2 22 6v-44c-12 -9 -25 -14 -43 -14c-29 0 -51 17 -58 58c-10 -34 -39 -58 -81 -58c-53 0 -87 39 -87 97c0 75 56 110 110 154l57 45v25
c0 41 -6 78 -47 78c-40 0 -49 -38 -49 -77v-32h-60v34c0 74 37 126 109 126c85 0 110 -56 110 -138zM137 477c-58 0 -80 40 -80 123h44c0 -47 5 -78 36 -78s36 31 36 78h45c0 -83 -22 -123 -81 -123z" />
    <glyph glyph-name="amacron" unicode="&#x101;" horiz-adv-x="281" 
d="M178 143v92l-41 -35c-35 -30 -62 -54 -62 -100c0 -37 17 -55 46 -55c35 0 57 47 57 98zM241 306v-240c0 -14 6 -20 17 -20c6 0 12 2 22 6v-44c-12 -9 -25 -14 -43 -14c-29 0 -51 17 -58 58c-10 -34 -39 -58 -81 -58c-53 0 -87 39 -87 97c0 75 56 110 110 154l57 45v25
c0 41 -6 78 -47 78c-40 0 -49 -38 -49 -77v-32h-60v34c0 74 37 126 109 126c85 0 110 -56 110 -138zM62 492v50h150v-50h-150z" />
    <glyph glyph-name="aogonek" unicode="&#x105;" horiz-adv-x="281" 
d="M241 306v-240c0 -14 6 -20 17 -20c6 0 12 2 22 6v-44c-37 -31 -55 -64 -55 -95c0 -26 13 -38 30 -38c7 0 16 2 25 5v-41c-11 -7 -25 -10 -40 -10c-37 0 -64 26 -64 70c0 36 19 68 46 97c-22 5 -38 22 -43 56c-10 -34 -39 -58 -81 -58c-53 0 -87 39 -87 97
c0 75 56 110 110 154l57 45v25c0 41 -6 78 -47 78c-40 0 -49 -38 -49 -77v-32h-60v34c0 74 37 126 109 126c85 0 110 -56 110 -138zM178 143v92l-41 -35c-35 -30 -62 -54 -62 -100c0 -37 17 -55 46 -55c35 0 57 47 57 98z" />
    <glyph glyph-name="aringacute" unicode="&#x1fb;" horiz-adv-x="281" 
d="M153 606h-40l23 86h76zM97 526c0 -21 12 -35 36 -35s35 14 35 35c0 20 -11 34 -35 34s-36 -14 -36 -34zM59 526c0 36 28 66 74 66c45 0 74 -30 74 -66c0 -37 -29 -66 -74 -66c-46 0 -74 29 -74 66zM178 143v92l-41 -35c-35 -30 -62 -54 -62 -100c0 -37 17 -55 46 -55
c35 0 57 47 57 98zM241 306v-240c0 -14 6 -20 17 -20c6 0 12 2 22 6v-44c-12 -9 -25 -14 -43 -14c-29 0 -51 17 -58 58c-10 -34 -39 -58 -81 -58c-53 0 -87 39 -87 97c0 75 56 110 110 154l57 45v25c0 41 -6 78 -47 78c-40 0 -49 -38 -49 -77v-32h-60v34
c0 74 37 126 109 126c85 0 110 -56 110 -138z" />
    <glyph glyph-name="aeacute" unicode="&#x1fd;" horiz-adv-x="432" 
d="M228 481h-37l34 124h75zM206 62c-9 -39 -46 -70 -90 -70c-69 0 -105 44 -105 125c0 78 46 133 141 133h26v65c0 41 -6 78 -47 78c-40 0 -49 -38 -49 -77v-32h-60v34c0 74 37 126 108 126c47 0 71 -23 87 -55c16 32 46 55 82 55c85 0 116 -71 116 -211v-28h-174v-13
c0 -98 18 -148 60 -148c38 0 55 37 55 114v9h58v-10c0 -108 -40 -165 -112 -165c-48 0 -80 24 -96 70zM121 43c35 0 57 40 57 100v62h-22c-61 0 -83 -36 -83 -87c0 -53 19 -75 48 -75zM299 393c-42 0 -58 -58 -58 -143h114c0 85 -14 143 -56 143z" />
    <glyph glyph-name="cacute" unicode="&#x107;" horiz-adv-x="270" 
d="M159 481h-37l34 124h75zM83 247v-57c0 -96 18 -146 59 -146c37 0 53 39 53 121v16h59v-17c0 -115 -38 -172 -111 -172c-87 0 -126 75 -126 216v20c0 142 39 216 126 216c73 0 111 -57 111 -172v-17h-59v17c0 81 -16 120 -53 120c-41 0 -59 -49 -59 -145z" />
    <glyph glyph-name="ccaron" unicode="&#x10d;" horiz-adv-x="270" 
d="M177 479h-68l-54 123h42l46 -79l47 79h42zM83 247v-57c0 -96 18 -146 59 -146c37 0 53 39 53 121v16h59v-17c0 -115 -38 -172 -111 -172c-87 0 -126 75 -126 216v20c0 142 39 216 126 216c73 0 111 -57 111 -172v-17h-59v17c0 81 -16 120 -53 120c-41 0 -59 -49 -59 -145
z" />
    <glyph glyph-name="ccircumflex" unicode="&#x109;" horiz-adv-x="270" 
d="M109 598h68l55 -122h-42l-47 78l-46 -78h-42zM83 247v-57c0 -96 18 -146 59 -146c37 0 53 39 53 121v16h59v-17c0 -115 -38 -172 -111 -172c-87 0 -126 75 -126 216v20c0 142 39 216 126 216c73 0 111 -57 111 -172v-17h-59v17c0 81 -16 120 -53 120
c-41 0 -59 -49 -59 -145z" />
    <glyph glyph-name="cdotaccent" unicode="&#x10b;" horiz-adv-x="270" 
d="M83 247v-57c0 -96 18 -146 59 -146c37 0 53 39 53 121v16h59v-17c0 -115 -38 -172 -111 -172c-87 0 -126 75 -126 216v20c0 142 39 216 126 216c73 0 111 -57 111 -172v-17h-59v17c0 81 -16 120 -53 120c-41 0 -59 -49 -59 -145zM111 514v86h65v-86h-65z" />
    <glyph glyph-name="dcaron" unicode="&#x10f;" horiz-adv-x="299" 
d="M327 502h-35l13 128h69zM203 157v122c0 69 -21 112 -59 112c-44 0 -60 -50 -60 -150v-46c0 -100 16 -150 60 -150c38 0 59 43 59 112zM203 386v244h66v-630h-66v50c-10 -33 -39 -58 -79 -58c-74 0 -107 71 -107 212v28c0 141 33 212 107 212c40 0 69 -25 79 -58z" />
    <glyph glyph-name="dcroat" unicode="&#x111;" horiz-adv-x="300" 
d="M145 505v44h58v81h66v-81h29v-44h-29v-505h-66v50c-10 -33 -39 -58 -79 -58c-74 0 -107 71 -107 212v28c0 141 33 212 107 212c40 0 69 -25 79 -58v119h-58zM203 157v122c0 69 -21 112 -59 112c-44 0 -60 -50 -60 -150v-46c0 -100 16 -150 60 -150c38 0 59 43 59 112z
" />
    <glyph glyph-name="ebreve" unicode="&#x115;" horiz-adv-x="273" 
d="M195 250c0 85 -13 143 -55 143s-58 -58 -58 -143h113zM17 208v19c0 142 37 217 123 217c85 0 116 -71 116 -211v-28h-174v-13c0 -98 18 -148 60 -148c38 0 55 37 55 114v9h58v-10c0 -108 -40 -165 -113 -165c-87 0 -125 77 -125 216zM143 477c-58 0 -80 40 -80 123h44
c0 -47 5 -78 36 -78s36 31 36 78h45c0 -83 -22 -123 -81 -123z" />
    <glyph glyph-name="ecaron" unicode="&#x11b;" horiz-adv-x="273" 
d="M177 479h-68l-54 123h42l46 -79l47 79h42zM195 250c0 85 -13 143 -55 143s-58 -58 -58 -143h113zM17 208v19c0 142 37 217 123 217c85 0 116 -71 116 -211v-28h-174v-13c0 -98 18 -148 60 -148c38 0 55 37 55 114v9h58v-10c0 -108 -40 -165 -113 -165
c-87 0 -125 77 -125 216z" />
    <glyph glyph-name="edotaccent" unicode="&#x117;" horiz-adv-x="273" 
d="M195 250c0 85 -13 143 -55 143s-58 -58 -58 -143h113zM17 208v19c0 142 37 217 123 217c85 0 116 -71 116 -211v-28h-174v-13c0 -98 18 -148 60 -148c38 0 55 37 55 114v9h58v-10c0 -108 -40 -165 -113 -165c-87 0 -125 77 -125 216zM111 514v86h65v-86h-65z" />
    <glyph glyph-name="emacron" unicode="&#x113;" horiz-adv-x="273" 
d="M195 250c0 85 -13 143 -55 143s-58 -58 -58 -143h113zM17 208v19c0 142 37 217 123 217c85 0 116 -71 116 -211v-28h-174v-13c0 -98 18 -148 60 -148c38 0 55 37 55 114v9h58v-10c0 -108 -40 -165 -113 -165c-87 0 -125 77 -125 216zM68 492v50h150v-50h-150z" />
    <glyph glyph-name="eogonek" unicode="&#x119;" horiz-adv-x="273" 
d="M17 208v19c0 142 37 217 123 217c85 0 116 -71 116 -211v-28h-174v-13c0 -98 18 -148 60 -148c38 0 55 37 55 114v9h58v-10c0 -71 -19 -116 -58 -153c-34 -34 -44 -62 -44 -93c0 -23 13 -36 30 -36c7 0 16 2 25 5v-41c-11 -7 -25 -10 -40 -10c-37 0 -64 26 -64 70
c0 35 16 65 37 93c-86 1 -124 78 -124 216zM195 250c0 85 -13 143 -55 143s-58 -58 -58 -143h113z" />
    <glyph glyph-name="gbreve" unicode="&#x11f;" horiz-adv-x="288" 
d="M137 141c-12 0 -23 1 -33 4c-15 -9 -27 -22 -27 -39c0 -20 13 -32 41 -32h56c72 0 120 -40 120 -115c0 -84 -66 -135 -156 -135c-84 0 -147 41 -147 112c0 47 28 76 70 91c-28 10 -39 33 -39 62c0 33 23 56 51 70c-35 24 -56 68 -56 128v11c0 91 50 146 120 146
c33 0 62 -13 83 -36c17 32 45 52 74 52v-63c-18 0 -41 -6 -56 -16c12 -23 19 -51 19 -83v-11c0 -90 -50 -146 -120 -146zM49 -52c0 -49 35 -77 90 -77c57 0 96 30 96 81c0 46 -29 64 -71 64h-43c-41 0 -72 -27 -72 -68zM137 189c38 0 56 40 56 96v15c0 57 -18 96 -56 96
s-56 -39 -56 -96v-15c0 -56 18 -96 56 -96zM144 477c-58 0 -80 40 -80 123h44c0 -47 5 -78 36 -78s36 31 36 78h45c0 -83 -22 -123 -81 -123z" />
    <glyph glyph-name="gcircumflex" unicode="&#x11d;" horiz-adv-x="288" 
d="M137 141c-12 0 -23 1 -33 4c-15 -9 -27 -22 -27 -39c0 -20 13 -32 41 -32h56c72 0 120 -40 120 -115c0 -84 -66 -135 -156 -135c-84 0 -147 41 -147 112c0 47 28 76 70 91c-28 10 -39 33 -39 62c0 33 23 56 51 70c-35 24 -56 68 -56 128v11c0 91 50 146 120 146
c33 0 62 -13 83 -36c17 32 45 52 74 52v-63c-18 0 -41 -6 -56 -16c12 -23 19 -51 19 -83v-11c0 -90 -50 -146 -120 -146zM49 -52c0 -49 35 -77 90 -77c57 0 96 30 96 81c0 46 -29 64 -71 64h-43c-41 0 -72 -27 -72 -68zM137 189c38 0 56 40 56 96v15c0 57 -18 96 -56 96
s-56 -39 -56 -96v-15c0 -56 18 -96 56 -96zM109 598h68l55 -122h-42l-47 78l-46 -78h-42z" />
    <glyph glyph-name="gcommaaccent" unicode="&#x123;" horiz-adv-x="288" 
d="M137 141c-12 0 -23 1 -33 4c-15 -9 -27 -22 -27 -39c0 -20 13 -32 41 -32h56c72 0 120 -40 120 -115c0 -84 -66 -135 -156 -135c-84 0 -147 41 -147 112c0 47 28 76 70 91c-28 10 -39 33 -39 62c0 33 23 56 51 70c-35 24 -56 68 -56 128v11c0 91 50 146 120 146
c33 0 62 -13 83 -36c17 32 45 52 74 52v-63c-18 0 -41 -6 -56 -16c12 -23 19 -51 19 -83v-11c0 -90 -50 -146 -120 -146zM49 -52c0 -49 35 -77 90 -77c57 0 96 30 96 81c0 46 -29 64 -71 64h-43c-41 0 -72 -27 -72 -68zM137 189c38 0 56 40 56 96v15c0 57 -18 96 -56 96
s-56 -39 -56 -96v-15c0 -56 18 -96 56 -96zM178 551v-55h-69v46c0 39 11 73 69 73v-28c-24 0 -30 -11 -30 -36h30z" />
    <glyph glyph-name="gdotaccent" unicode="&#x121;" horiz-adv-x="288" 
d="M137 141c-12 0 -23 1 -33 4c-15 -9 -27 -22 -27 -39c0 -20 13 -32 41 -32h56c72 0 120 -40 120 -115c0 -84 -66 -135 -156 -135c-84 0 -147 41 -147 112c0 47 28 76 70 91c-28 10 -39 33 -39 62c0 33 23 56 51 70c-35 24 -56 68 -56 128v11c0 91 50 146 120 146
c33 0 62 -13 83 -36c17 32 45 52 74 52v-63c-18 0 -41 -6 -56 -16c12 -23 19 -51 19 -83v-11c0 -90 -50 -146 -120 -146zM49 -52c0 -49 35 -77 90 -77c57 0 96 30 96 81c0 46 -29 64 -71 64h-43c-41 0 -72 -27 -72 -68zM137 189c38 0 56 40 56 96v15c0 57 -18 96 -56 96
s-56 -39 -56 -96v-15c0 -56 18 -96 56 -96zM112 514v86h65v-86h-65z" />
    <glyph glyph-name="hbar" unicode="&#x127;" horiz-adv-x="307" 
d="M2 505v44h29v81h65v-81h59v-44h-59v-117c12 31 44 56 87 56c71 0 94 -54 94 -111v-333h-65v317c0 45 -16 72 -53 72c-44 0 -63 -44 -63 -100v-289h-65v505h-29z" />
    <glyph glyph-name="hcircumflex" unicode="&#x125;" horiz-adv-x="305" 
d="M95 289v-289h-65v630h65v-242c12 31 44 56 87 56c71 0 93 -54 93 -111v-333h-65v317c0 45 -15 72 -53 72c-43 0 -62 -44 -62 -100zM119 778h68l55 -123h-42l-47 79l-46 -79h-42z" />
    <glyph glyph-name="ibreve" unicode="&#x12d;" horiz-adv-x="125" 
d="M62 477c-54 0 -74 37 -74 120h45c0 -47 4 -74 29 -74c27 0 31 27 31 74h44c0 -83 -19 -120 -75 -120zM30 436h65v-436h-65v436z" />
    <glyph glyph-name="imacron" unicode="&#x12b;" horiz-adv-x="125" 
d="M30 436h65v-436h-65v436zM-1 492v50h125v-50h-125z" />
    <glyph glyph-name="iogonek" unicode="&#x12f;" horiz-adv-x="125" 
d="M30 514v86h65v-86h-65zM48 0h-18v436h65v-436c-37 -38 -46 -63 -46 -90c0 -23 13 -35 30 -35c7 0 16 2 25 5v-41c-11 -7 -25 -10 -40 -10c-34 0 -63 26 -63 70c0 40 20 72 47 101z" />
    <glyph glyph-name="itilde" unicode="&#x129;" horiz-adv-x="125" 
d="M13 487h-36c0 69 11 114 50 114c35 0 50 -61 69 -61c10 0 15 21 16 58h36c0 -70 -11 -114 -50 -114c-35 0 -49 61 -69 61c-10 0 -15 -22 -16 -58zM30 436h65v-436h-65v436z" />
    <glyph glyph-name="ij" unicode="&#x133;" horiz-adv-x="240" 
d="M30 436h65v-436h-65v436zM30 514v86h65v-86h-65zM210 436v-507c0 -69 -25 -105 -86 -105c-18 0 -32 3 -44 9l6 46c7 -3 16 -5 25 -5c26 0 34 15 34 47v515h65zM145 514v86h65v-86h-65z" />
    <glyph glyph-name="jcircumflex" unicode="&#x135;" horiz-adv-x="125" 
d="M28 598h69l45 -122h-43l-37 78l-35 -78h-44zM95 436v-507c0 -69 -25 -105 -86 -105c-18 0 -32 3 -44 9l6 46c7 -3 16 -5 25 -5c26 0 34 15 34 47v515h65z" />
    <glyph glyph-name="kcommaaccent" unicode="&#x137;" horiz-adv-x="296" 
d="M116 -95v56h69v-46c0 -39 -11 -73 -69 -73v28c24 0 30 11 30 35h-30zM95 140v-140h-65v630h65v-405l126 211h64l-113 -189l123 -247h-70l-98 196z" />
    <glyph glyph-name="kgreenlandic" unicode="&#x138;" horiz-adv-x="296" 
d="M95 140v-140h-65v436h65v-211l126 211h64l-113 -189l123 -247h-70l-98 196z" />
    <glyph glyph-name="lacute" unicode="&#x13a;" horiz-adv-x="125" 
d="M80 661h-37l34 123h75zM30 630h65v-630h-65v630z" />
    <glyph glyph-name="lcaron" unicode="&#x13e;" horiz-adv-x="125" 
d="M152 502h-35l13 128h69zM30 630h65v-630h-65v630z" />
    <glyph glyph-name="lcommaaccent" unicode="&#x13c;" horiz-adv-x="125" 
d="M27 -95v56h69v-46c0 -39 -11 -73 -69 -73v28c24 0 30 11 30 35h-30zM30 630h65v-630h-65v630z" />
    <glyph glyph-name="ldot" unicode="&#x140;" horiz-adv-x="198" 
d="M30 630h65v-630h-65v630zM129 249v71h70v-71h-70z" />
    <glyph glyph-name="nacute" unicode="&#x144;" horiz-adv-x="305" 
d="M171 481h-37l34 124h75zM95 289v-289h-65v436h65v-48c12 31 44 56 87 56c71 0 93 -54 93 -111v-333h-65v317c0 45 -15 72 -53 72c-43 0 -62 -44 -62 -100z" />
    <glyph glyph-name="ncaron" unicode="&#x148;" horiz-adv-x="305" 
d="M190 479h-68l-54 123h42l46 -79l47 79h42zM95 289v-289h-65v436h65v-48c12 31 44 56 87 56c71 0 93 -54 93 -111v-333h-65v317c0 45 -15 72 -53 72c-43 0 -62 -44 -62 -100z" />
    <glyph glyph-name="ncommaaccent" unicode="&#x146;" horiz-adv-x="305" 
d="M120 -95v56h69v-46c0 -39 -11 -73 -69 -73v28c24 0 30 11 30 35h-30zM95 289v-289h-65v436h65v-48c12 31 44 56 87 56c71 0 93 -54 93 -111v-333h-65v317c0 45 -15 72 -53 72c-43 0 -62 -44 -62 -100z" />
    <glyph glyph-name="eng" unicode="&#x14b;" horiz-adv-x="305" 
d="M95 289v-289h-65v436h65v-48c12 31 44 56 87 56c71 0 93 -54 93 -111v-405c0 -69 -25 -105 -86 -105c-17 0 -32 3 -44 9l6 46c8 -3 17 -5 26 -5c26 0 33 15 33 47v397c0 45 -15 72 -53 72c-43 0 -62 -44 -62 -100z" />
    <glyph glyph-name="obreve" unicode="&#x14f;" horiz-adv-x="285" 
d="M83 238v-40c0 -113 18 -154 60 -154c41 0 59 41 59 154v40c0 113 -18 154 -59 154c-42 0 -60 -41 -60 -154zM268 227v-18c0 -142 -38 -217 -125 -217c-88 0 -126 75 -126 217v18c0 142 38 217 126 217c87 0 125 -75 125 -217zM143 477c-58 0 -80 40 -80 123h44
c0 -47 5 -78 36 -78s36 31 36 78h45c0 -83 -22 -123 -81 -123z" />
    <glyph glyph-name="ohungarumlaut" unicode="&#x151;" horiz-adv-x="285" 
d="M114 481h-32l20 125h68zM196 481h-33l20 125h68zM83 238v-40c0 -113 18 -154 60 -154c41 0 59 41 59 154v40c0 113 -18 154 -59 154c-42 0 -60 -41 -60 -154zM268 227v-18c0 -142 -38 -217 -125 -217c-88 0 -126 75 -126 217v18c0 142 38 217 126 217
c87 0 125 -75 125 -217z" />
    <glyph glyph-name="omacron" unicode="&#x14d;" horiz-adv-x="285" 
d="M68 492v50h150v-50h-150zM83 238v-40c0 -113 18 -154 60 -154c41 0 59 41 59 154v40c0 113 -18 154 -59 154c-42 0 -60 -41 -60 -154zM268 227v-18c0 -142 -38 -217 -125 -217c-88 0 -126 75 -126 217v18c0 142 38 217 126 217c87 0 125 -75 125 -217z" />
    <glyph glyph-name="oslashacute" unicode="&#x1ff;" horiz-adv-x="285" 
d="M26 -1l21 48c-21 37 -30 91 -30 162v18c0 142 38 217 126 217c26 0 49 -7 66 -21l14 32l36 -18l-21 -49c20 -36 30 -90 30 -161v-18c0 -142 -38 -217 -125 -217c-27 0 -49 7 -67 21l-14 -32zM204 238c0 25 -1 47 -3 65l-102 -235c10 -19 25 -25 44 -25c41 0 61 42 61 155
v40zM81 238v-40c0 -26 0 -47 2 -66l102 236c-10 18 -24 25 -42 25c-42 0 -62 -41 -62 -155zM158 481h-37l34 124h75z" />
    <glyph glyph-name="racute" unicode="&#x155;" horiz-adv-x="199" 
d="M129 481h-37l34 124h75zM198 437l-4 -60c-10 2 -19 4 -32 4c-53 0 -67 -50 -67 -105v-276h-65v436h65v-58c10 43 39 63 77 63c10 0 19 -2 26 -4z" />
    <glyph glyph-name="rcaron" unicode="&#x159;" horiz-adv-x="199" 
d="M147 479h-68l-54 123h42l46 -79l47 79h42zM198 437l-4 -60c-10 2 -19 4 -32 4c-53 0 -67 -50 -67 -105v-276h-65v436h65v-58c10 43 39 63 77 63c10 0 19 -2 26 -4z" />
    <glyph glyph-name="rcommaaccent" unicode="&#x157;" horiz-adv-x="199" 
d="M29 -95v56h69v-46c0 -39 -11 -73 -69 -73v28c24 0 30 11 30 35h-30zM198 437l-4 -60c-10 2 -19 4 -32 4c-53 0 -67 -50 -67 -105v-276h-65v436h65v-58c10 43 39 63 77 63c10 0 19 -2 26 -4z" />
    <glyph glyph-name="sacute" unicode="&#x15b;" horiz-adv-x="255" 
d="M143 481h-37l34 124h75zM12 147h57v-25c0 -49 21 -80 60 -80c36 0 53 26 53 64c0 36 -17 53 -43 69l-42 24c-42 24 -79 59 -79 130c0 67 39 115 108 115c74 0 109 -47 109 -119v-35h-56v26c0 45 -11 78 -52 78c-32 0 -49 -24 -49 -62c0 -36 15 -58 42 -74l45 -26
c44 -26 78 -55 78 -121c0 -74 -45 -119 -114 -119c-72 0 -117 45 -117 128v27z" />
    <glyph glyph-name="scedilla" unicode="&#x15f;" horiz-adv-x="255" 
d="M198 -104c0 -44 -31 -67 -72 -67c-29 0 -56 13 -73 31l16 36c15 -18 34 -28 55 -28c19 0 30 9 30 26c0 29 -32 38 -69 39l22 61c-59 8 -95 52 -95 126v27h57v-25c0 -49 21 -80 60 -80c36 0 53 26 53 64c0 36 -17 53 -43 69l-42 24c-42 24 -79 59 -79 130
c0 67 39 115 108 115c74 0 109 -47 109 -119v-35h-56v26c0 45 -11 78 -52 78c-32 0 -49 -24 -49 -62c0 -36 15 -58 42 -74l45 -26c44 -26 78 -55 78 -121c0 -71 -42 -115 -106 -118l-10 -29c33 -2 71 -21 71 -68z" />
    <glyph glyph-name="scircumflex" unicode="&#x15d;" horiz-adv-x="255" 
d="M94 598h68l55 -122h-42l-47 78l-46 -78h-42zM12 147h57v-25c0 -49 21 -80 60 -80c36 0 53 26 53 64c0 36 -17 53 -43 69l-42 24c-42 24 -79 59 -79 130c0 67 39 115 108 115c74 0 109 -47 109 -119v-35h-56v26c0 45 -11 78 -52 78c-32 0 -49 -24 -49 -62
c0 -36 15 -58 42 -74l45 -26c44 -26 78 -55 78 -121c0 -74 -45 -119 -114 -119c-72 0 -117 45 -117 128v27z" />
    <glyph glyph-name="scommaaccent" unicode="&#x219;" horiz-adv-x="255" 
d="M92 -95v56h69v-46c0 -39 -11 -73 -69 -73v28c24 0 30 11 30 35h-30zM12 147h57v-25c0 -49 21 -80 60 -80c36 0 53 26 53 64c0 36 -17 53 -43 69l-42 24c-42 24 -79 59 -79 130c0 67 39 115 108 115c74 0 109 -47 109 -119v-35h-56v26c0 45 -11 78 -52 78
c-32 0 -49 -24 -49 -62c0 -36 15 -58 42 -74l45 -26c44 -26 78 -55 78 -121c0 -74 -45 -119 -114 -119c-72 0 -117 45 -117 128v27z" />
    <glyph glyph-name="tbar" unicode="&#x167;" horiz-adv-x="207" 
d="M6 234v47h43v108h-43v35l13 2c34 8 39 30 47 70l8 49h38v-109h76v-47h-76v-108h76v-47h-76v-147c0 -25 7 -35 25 -35c17 0 33 3 56 17v-46c-24 -19 -49 -27 -74 -27c-44 0 -70 23 -70 78v160h-43z" />
    <glyph glyph-name="tcaron" unicode="&#x165;" horiz-adv-x="196" 
d="M173 502h-35l13 128h69zM43 74v315h-43v35l13 2c35 8 40 30 47 70l9 49h37v-109h76v-47h-76v-302c0 -25 7 -35 25 -35c17 0 34 3 56 17v-46c-23 -19 -48 -27 -74 -27c-44 0 -70 23 -70 78z" />
    <glyph glyph-name="ubreve" unicode="&#x16d;" horiz-adv-x="301" 
d="M206 147v289h66v-436h-66v48c-11 -32 -41 -56 -85 -56c-69 0 -91 54 -91 112v332h65v-317c0 -44 14 -72 49 -72c45 0 62 45 62 100zM151 477c-58 0 -80 40 -80 123h44c0 -47 5 -78 36 -78s36 31 36 78h45c0 -83 -22 -123 -81 -123z" />
    <glyph glyph-name="uhungarumlaut" unicode="&#x171;" horiz-adv-x="301" 
d="M206 147v289h66v-436h-66v48c-11 -32 -41 -56 -85 -56c-69 0 -91 54 -91 112v332h65v-317c0 -44 14 -72 49 -72c45 0 62 45 62 100zM122 481h-32l20 125h68zM204 481h-33l20 125h68z" />
    <glyph glyph-name="umacron" unicode="&#x16b;" horiz-adv-x="301" 
d="M206 147v289h66v-436h-66v48c-11 -32 -41 -56 -85 -56c-69 0 -91 54 -91 112v332h65v-317c0 -44 14 -72 49 -72c45 0 62 45 62 100zM76 492v50h150v-50h-150z" />
    <glyph glyph-name="uogonek" unicode="&#x173;" horiz-adv-x="301" 
d="M224 0h-18v48c-11 -32 -41 -56 -85 -56c-69 0 -91 54 -91 112v332h65v-317c0 -44 14 -72 49 -72c45 0 62 45 62 100v289h66v-436c-37 -38 -47 -63 -47 -90c0 -23 13 -35 31 -35c7 0 16 2 24 5v-41c-10 -7 -24 -10 -39 -10c-35 0 -63 26 -63 70c0 40 20 72 46 101z" />
    <glyph glyph-name="uring" unicode="&#x16f;" horiz-adv-x="301" 
d="M116 544c0 -23 12 -37 35 -37c22 0 34 14 34 37s-12 37 -34 37c-23 0 -35 -14 -35 -37zM79 544c0 41 28 71 72 71s72 -30 72 -71s-28 -71 -72 -71s-72 30 -72 71zM206 147v289h66v-436h-66v48c-11 -32 -41 -56 -85 -56c-69 0 -91 54 -91 112v332h65v-317
c0 -44 14 -72 49 -72c45 0 62 45 62 100z" />
    <glyph glyph-name="utilde" unicode="&#x169;" horiz-adv-x="301" 
d="M206 147v289h66v-436h-66v48c-11 -32 -41 -56 -85 -56c-69 0 -91 54 -91 112v332h65v-317c0 -44 14 -72 49 -72c45 0 62 45 62 100zM96 487h-37c0 69 12 114 51 114c37 0 58 -61 78 -61c12 0 18 21 18 58h37c0 -70 -12 -114 -51 -114c-37 0 -57 61 -78 61
c-12 0 -18 -22 -18 -58z" />
    <glyph glyph-name="wacute" unicode="&#x1e83;" horiz-adv-x="414" 
d="M222 481h-37l34 124h75zM236 436l57 -308h4l60 308h57l-90 -436h-56l-59 322h-4l-59 -322h-56l-90 436h61l60 -308h4l57 308h54z" />
    <glyph glyph-name="wcircumflex" unicode="&#x175;" horiz-adv-x="414" 
d="M173 598h68l55 -122h-42l-47 78l-46 -78h-42zM236 436l57 -308h4l60 308h57l-90 -436h-56l-59 322h-4l-59 -322h-56l-90 436h61l60 -308h4l57 308h54z" />
    <glyph glyph-name="wgrave" unicode="&#x1e81;" horiz-adv-x="414" 
d="M236 436l57 -308h4l60 308h57l-90 -436h-56l-59 322h-4l-59 -322h-56l-90 436h61l60 -308h4l57 308h54zM229 481h-38l-71 124h74z" />
    <glyph glyph-name="wdieresis" unicode="&#x1e85;" horiz-adv-x="414" 
d="M137 498v84h57v-84h-57zM222 498v84h57v-84h-57zM236 436l57 -308h4l60 308h57l-90 -436h-56l-59 322h-4l-59 -322h-56l-90 436h61l60 -308h4l57 308h54z" />
    <glyph glyph-name="ycircumflex" unicode="&#x177;" horiz-adv-x="283" 
d="M115 -1l-115 437h65l80 -327h4l74 327h60l-150 -604h-61zM107 598h68l55 -122h-42l-47 78l-46 -78h-42z" />
    <glyph glyph-name="ygrave" unicode="&#x1ef3;" horiz-adv-x="283" 
d="M115 -1l-115 437h65l80 -327h4l74 327h60l-150 -604h-61zM163 481h-38l-71 124h74z" />
    <glyph glyph-name="zacute" unicode="&#x17a;" horiz-adv-x="248" 
d="M145 481h-37l34 124h75zM164 385h-144v51h212v-44l-147 -340h147v-52h-216v45z" />
    <glyph glyph-name="zdotaccent" unicode="&#x17c;" horiz-adv-x="248" 
d="M164 385h-144v51h212v-44l-147 -340h147v-52h-216v45zM98 514v86h65v-86h-65z" />
    <glyph glyph-name="caron.Slovak" 
d="M129 502h-35l13 128h69z" />
    <glyph glyph-name="cedilla.alt" 
d="M206 -104c0 -44 -31 -67 -72 -67c-29 0 -56 13 -73 31l16 36c15 -18 34 -28 55 -28c19 0 30 9 30 26c0 29 -32 38 -69 39l28 78h31l-17 -47c33 -2 71 -21 71 -68z" />
    <glyph glyph-name="grave.cap" 
d="M193 661h-38l-71 123h74z" />
    <glyph glyph-name="acute.cap" 
d="M121 661h-37l34 123h75z" />
    <glyph glyph-name="circumflex.cap" 
d="M104 778h68l55 -123h-42l-47 79l-46 -79h-42z" />
    <glyph glyph-name="caron.cap" 
d="M172 659h-68l-54 123h42l46 -79l47 79h42z" />
    <glyph glyph-name="tilde.cap" 
d="M87 666h-37c0 70 12 115 51 115c37 0 58 -62 78 -62c12 0 18 22 18 59h37c0 -70 -12 -115 -51 -115c-37 0 -57 62 -78 62c-12 0 -18 -22 -18 -59z" />
    <glyph glyph-name="macron.cap" 
d="M64 672v50h150v-50h-150z" />
    <glyph glyph-name="breve.cap" 
d="M138 657c-58 0 -80 40 -80 122h44c0 -46 5 -77 36 -77s36 31 36 77h45c0 -82 -22 -122 -81 -122z" />
    <glyph glyph-name="dotaccent.cap" 
d="M106 670v85h65v-85h-65z" />
    <glyph glyph-name="dieresis.cap" 
d="M68 668v84h57v-84h-57zM153 668v84h57v-84h-57z" />
    <glyph glyph-name="ring.cap" 
d="M104 724c0 -23 12 -37 35 -37c22 0 34 14 34 37s-12 37 -34 37c-23 0 -35 -14 -35 -37zM67 724c0 40 28 71 72 71s72 -31 72 -71c0 -41 -28 -71 -72 -71s-72 30 -72 71z" />
    <glyph glyph-name="hungarumlaut.cap" 
d="M88 661h-32l20 124h68zM170 661h-33l20 124h68z" />
    <glyph glyph-name="exclamdown.cap" horiz-adv-x="120" 
d="M97 555h-75v75h75v-75zM48 475h25l23 -296v-179h-71v179z" />
    <glyph glyph-name="questiondown.cap" horiz-adv-x="293" 
d="M82 357c28 48 36 75 37 115h60c-1 -56 -7 -79 -39 -137c-39 -71 -60 -112 -60 -177c0 -64 15 -110 67 -110c50 0 70 38 70 121v60h64v-57c0 -116 -44 -180 -134 -180c-89 0 -133 60 -133 168c0 80 31 131 68 197zM185 555h-75v75h75v-75z" />
    <glyph glyph-name="guilsinglleft.cap" horiz-adv-x="162" 
d="M16 293v53l130 129v-74l-77 -81l77 -82v-74z" />
    <glyph glyph-name="guilsinglright.cap" horiz-adv-x="162" 
d="M146 346v-53l-130 -129v74l77 82l-77 81v74z" />
    <glyph glyph-name="guillemotleft.cap" horiz-adv-x="285" 
d="M16 293v53l130 129v-74l-77 -81l77 -82v-74zM139 293v53l130 129v-74l-77 -81l77 -82v-74z" />
    <glyph glyph-name="guillemotright.cap" horiz-adv-x="285" 
d="M146 346v-53l-130 -129v74l77 82l-77 81v74zM269 346v-53l-130 -129v74l77 82l-77 81v74z" />
    <glyph glyph-name="slash.cap" horiz-adv-x="175" 
d="M0 0l116 630h59l-116 -630h-59z" />
    <glyph glyph-name="backslash.cap" horiz-adv-x="175" 
d="M59 630l116 -630h-59l-116 630h59z" />
    <glyph glyph-name="bar.cap" horiz-adv-x="122" 
d="M32 0v630h59v-630h-59z" />
    <glyph glyph-name="periodcentered.cap" horiz-adv-x="115" 
d="M18 273v75h75v-75h-75z" />
    <glyph glyph-name="bullet.cap" horiz-adv-x="275" 
d="M257 322c0 -69 -54 -118 -120 -118s-119 49 -119 118c0 70 53 120 119 120s120 -50 120 -120z" />
    <glyph glyph-name="hyphen.cap" horiz-adv-x="170" 
d="M18 290v58h134v-58h-134z" />
    <glyph glyph-name="endash.cap" horiz-adv-x="230" 
d="M18 295v50h194v-50h-194z" />
    <glyph glyph-name="emdash.cap" horiz-adv-x="359" 
d="M18 295v50h323v-50h-323z" />
    <glyph glyph-name="parenleft.cap" horiz-adv-x="165" 
d="M20 304c0 135 30 275 87 372h58c-64 -119 -83 -246 -83 -372s19 -253 83 -372h-58c-57 97 -87 237 -87 372z" />
    <glyph glyph-name="parenright.cap" horiz-adv-x="165" 
d="M145 304c0 -135 -30 -275 -87 -372h-58c64 119 83 246 83 372s-19 253 -83 372h58c57 -97 87 -237 87 -372z" />
    <glyph glyph-name="bracketleft.cap" horiz-adv-x="151" 
d="M90 626v-644h51v-50h-109v744h109v-50h-51z" />
    <glyph glyph-name="bracketright.cap" horiz-adv-x="151" 
d="M61 -18v644h-51v50h109v-744h-109v50h51z" />
    <glyph glyph-name="braceleft.cap" horiz-adv-x="175" 
d="M11 278v52h22c22 0 29 17 29 45v214c0 54 18 87 74 87h29v-50h-21c-18 0 -24 -12 -24 -32v-207c0 -37 -2 -75 -48 -83c46 -8 48 -46 48 -83v-207c0 -20 6 -32 24 -32h21v-50h-29c-56 0 -74 33 -74 87v214c0 27 -7 45 -29 45h-22z" />
    <glyph glyph-name="braceright.cap" horiz-adv-x="175" 
d="M164 330v-52h-22c-22 0 -29 -18 -29 -45v-214c0 -54 -18 -87 -74 -87h-29v50h21c18 0 24 12 24 32v207c0 37 2 75 48 83c-46 8 -48 46 -48 83v207c0 20 -6 32 -24 32h-21v50h29c56 0 74 -33 74 -87v-214c0 -28 7 -45 29 -45h22z" />
    <glyph glyph-name="at.cap" horiz-adv-x="516" 
d="M372 192c40 0 69 60 69 184c0 138 -54 229 -163 229c-129 0 -202 -126 -202 -311c0 -173 75 -267 181 -267c51 0 93 13 138 46l15 -38c-44 -39 -95 -56 -154 -56c-130 0 -232 106 -232 315c0 212 99 362 254 362c134 0 214 -114 214 -280c0 -161 -63 -234 -127 -234
c-35 0 -57 24 -63 62c-16 -42 -48 -62 -80 -62c-57 0 -90 51 -90 135c0 102 51 215 131 215c37 0 60 -26 68 -61l11 53h49l-44 -234c-7 -43 2 -58 25 -58zM305 304l5 25c10 59 0 109 -38 109c-48 0 -84 -74 -84 -162c0 -53 18 -80 46 -80c30 0 57 32 71 108z" />
    <glyph glyph-name="uni2153" unicode="&#x2153;" horiz-adv-x="296" 
d="M78 557v32c31 1 46 10 53 41h37v-269h-50v196h-40zM187 135c25 -8 43 -28 43 -62c0 -47 -32 -78 -86 -78c-57 0 -89 34 -89 89v11h46v-11c0 -31 16 -49 43 -49c25 0 38 15 38 42s-15 39 -40 39c-6 0 -14 0 -21 -1v38c7 -1 15 -1 21 -1c24 0 38 12 38 39
c0 26 -12 41 -38 41s-39 -18 -39 -49v-10h-46v10c0 53 30 89 86 89c55 0 85 -32 85 -78c0 -33 -16 -53 -41 -59zM20 299v32h256v-32h-256z" />
    <glyph glyph-name="uni2154" unicode="&#x2154;" horiz-adv-x="296" 
d="M187 135c25 -8 43 -28 43 -62c0 -47 -32 -78 -86 -78c-57 0 -89 34 -89 89v11h46v-11c0 -31 16 -49 43 -49c25 0 38 15 38 42s-15 39 -40 39c-6 0 -14 0 -21 -1v38c7 -1 15 -1 21 -1c24 0 38 12 38 39c0 26 -12 41 -38 41s-39 -18 -39 -49v-10h-46v10c0 53 30 89 86 89
c55 0 85 -32 85 -78c0 -33 -16 -53 -41 -59zM176 456l-51 -53h108v-42h-172v35l71 75c31 33 50 54 50 82c0 25 -14 40 -36 40c-24 0 -37 -17 -37 -49v-12h-48v15c0 52 30 86 84 86c55 0 86 -29 86 -78c0 -35 -18 -62 -55 -99zM20 299v32h256v-32h-256z" />
    <glyph glyph-name="uni215B" unicode="&#x215b;" horiz-adv-x="296" 
d="M148 153c25 0 40 15 40 40c0 26 -15 40 -40 40c-24 0 -38 -14 -38 -40c0 -25 14 -40 38 -40zM148 34c27 0 43 15 43 41c0 27 -16 42 -43 42s-42 -15 -42 -42c0 -26 15 -41 42 -41zM78 557v32c31 1 46 10 53 41h37v-269h-50v196h-40zM148 -4c-53 0 -90 30 -90 77
c0 33 19 55 44 62c-23 7 -41 30 -41 61c0 46 33 76 87 76c55 0 88 -30 88 -76c0 -31 -17 -54 -41 -61c25 -7 45 -29 45 -62c0 -47 -37 -77 -92 -77zM20 299v32h256v-32h-256z" />
    <glyph glyph-name="uni215C" unicode="&#x215c;" horiz-adv-x="296" 
d="M148 153c25 0 40 15 40 40c0 26 -15 40 -40 40c-24 0 -38 -14 -38 -40c0 -25 14 -40 38 -40zM148 34c27 0 43 15 43 41c0 27 -16 42 -43 42s-42 -15 -42 -42c0 -26 15 -41 42 -41zM148 -4c-53 0 -90 30 -90 77c0 33 19 55 44 62c-23 7 -41 30 -41 61c0 46 33 76 87 76
c55 0 88 -30 88 -76c0 -31 -17 -54 -41 -61c25 -7 45 -29 45 -62c0 -47 -37 -77 -92 -77zM191 497c25 -7 43 -27 43 -61c0 -47 -32 -78 -86 -78c-57 0 -89 33 -89 88v11h47v-10c0 -32 15 -49 42 -49c25 0 38 14 38 41s-15 40 -40 40c-6 0 -13 0 -20 -1v38c7 -1 14 -1 20 -1
c24 0 38 11 38 39c0 25 -12 40 -37 40c-26 0 -40 -18 -40 -49v-9h-46v9c0 53 31 89 86 89s85 -31 85 -78c0 -33 -16 -53 -41 -59zM20 299v32h256v-32h-256z" />
    <glyph glyph-name="uni215D" unicode="&#x215d;" horiz-adv-x="296" 
d="M148 153c25 0 40 15 40 40c0 26 -15 40 -40 40c-24 0 -38 -14 -38 -40c0 -25 14 -40 38 -40zM148 34c27 0 43 15 43 41c0 27 -16 42 -43 42s-42 -15 -42 -42c0 -26 15 -41 42 -41zM148 -4c-53 0 -90 30 -90 77c0 33 19 55 44 62c-23 7 -41 30 -41 61c0 46 33 76 87 76
c55 0 88 -30 88 -76c0 -31 -17 -54 -41 -61c25 -7 45 -29 45 -62c0 -47 -37 -77 -92 -77zM146 504c-21 0 -34 -14 -39 -28l-46 3c5 39 10 107 12 151h145v-45h-108c-1 -15 -3 -52 -5 -65c9 11 27 21 51 21c45 0 78 -29 78 -90c0 -58 -34 -93 -88 -93c-57 0 -88 35 -88 90v8
h46v-8c0 -32 15 -51 42 -51c26 0 41 18 41 53s-15 54 -41 54zM20 299v32h256v-32h-256z" />
    <glyph glyph-name="uni215E" unicode="&#x215e;" horiz-adv-x="296" 
d="M148 153c25 0 40 15 40 40c0 26 -15 40 -40 40c-24 0 -38 -14 -38 -40c0 -25 14 -40 38 -40zM148 34c27 0 43 15 43 41c0 27 -16 42 -43 42s-42 -15 -42 -42c0 -26 15 -41 42 -41zM148 -4c-53 0 -90 30 -90 77c0 33 19 55 44 62c-23 7 -41 30 -41 61c0 46 33 76 87 76
c55 0 88 -30 88 -76c0 -31 -17 -54 -41 -61c25 -7 45 -29 45 -62c0 -47 -37 -77 -92 -77zM189 585h-126v45h176v-37c-51 -66 -70 -140 -70 -231h-54c2 92 29 164 74 223zM20 299v32h256v-32h-256z" />
    </font>
</defs>
</svg>
