<?xml version="1.0" encoding="UTF-8"?>
<svg width="306px" height="306px" viewBox="0 0 306 306" version="1.1" xmlns="http://www.w3.org/2000/svg" xmlns:xlink="http://www.w3.org/1999/xlink">
    <!-- Generator: Sketch 47.1 (45422) - http://www.bohemiancoding.com/sketch -->
    <title>checkout</title>
    <desc>Created with Sketch.</desc>
    <defs></defs>
    <g id="icons" stroke="none" stroke-width="1" fill="none" fill-rule="evenodd">
        <g id="checkout">
            <path d="M120,121 L120,127.4 L126.4,127.4 L137.92,151.688 L133.6,159.528 C133.088,160.424 132.8,161.48 132.8,162.6 C132.8,166.12 135.68,169 139.2,169 L177.6,169 L177.6,162.6 L140.544,162.6 C140.096,162.6 139.744,162.248 139.744,161.8 L139.84,161.416 L142.72,156.2 L166.56,156.2 C168.96,156.2 171.072,154.888 172.16,152.904 L183.616,132.136 C183.872,131.688 184,131.144 184,130.6 C184,128.84 182.56,127.4 180.8,127.4 L133.472,127.4 L130.464,121 L120,121 Z" id="Page-1" fill="#434242"></path>
            <path d="M171.2,172.2 C167.68,172.2 164.832,175.08 164.832,178.6 C164.832,182.12 167.68,185 171.2,185 C174.72,185 177.6,182.12 177.6,178.6 C177.6,175.08 174.72,172.2 171.2,172.2 L171.2,172.2 Z" id="Path" fill="#434242"></path>
            <path d="M139.2,172.2 C135.68,172.2 132.832,175.08 132.832,178.6 C132.832,182.12 135.68,185 139.2,185 C142.72,185 145.6,182.12 145.6,178.6 C145.6,175.08 142.72,172.2 139.2,172.2 L139.2,172.2 Z" id="Path" fill="#434242"></path>
            <circle id="Oval" stroke="#434242" stroke-width="7" cx="153" cy="150" r="86.5"></circle>
            <circle id="Oval" stroke="#434242" stroke-width="2" cx="153" cy="150" r="78"></circle>
        </g>
    </g>
</svg>
