<?xml version="1.0" encoding="utf-8"?>
<!-- Generator: Adobe Illustrator 21.1.0, SVG Export Plug-In . SVG Version: 6.00 Build 0)  -->
<svg version="1.1" id="Layer_1" xmlns="http://www.w3.org/2000/svg" xmlns:xlink="http://www.w3.org/1999/xlink" x="0px" y="0px"
	 viewBox="0 0 130 51.2" style="enable-background:new 0 0 130 51.2;" xml:space="preserve">
<style type="text/css">
	.Arched_x0020_Green{fill:url(#SVGID_1_);stroke:#FFFFFF;stroke-width:0.25;stroke-miterlimit:1;}
	.st0{fill:#F1764B;}
	.st1{fill:#7FA8CB;}
	.st2{fill:#7E2678;}
	.st3{fill:#FFFFFF;}
	.st4{fill:#58595B;}
</style>
<linearGradient id="SVGID_1_" gradientUnits="userSpaceOnUse" x1="-377.8018" y1="326.8979" x2="-377.0946" y2="326.1908">
	<stop  offset="0" style="stop-color:#2AAA4F"/>
	<stop  offset="0.9831" style="stop-color:#1A351C"/>
</linearGradient>
<g>
	<rect x="48" class="st0" width="33.8" height="33.8"/>
	<polygon class="st1" points="45.6,33.8 0,33.8 11.9,0 45.6,0 	"/>
	<polygon class="st2" points="84.4,0 130,0 118.1,33.8 84.4,33.8 	"/>
	<g>
		<path class="st3" d="M35.7,26.4c-2,1-5,1.8-8,1.8c-7.2,0-11.5-4.7-11.5-11c0-6.7,4.8-11.6,12.1-11.6c2.6,0,4.7,0.5,6.4,1.1v3.8
			C32.9,9.6,30.9,9,28.6,9c-5.3,0-8.1,3.3-8.1,8c0,4.8,2.8,7.9,7.5,7.9c1.5,0,2.8-0.3,3.7-0.7v-7h4.1V26.4z"/>
	</g>
	<g>
		<path class="st3" d="M53.7,16.9c0-6.7,4.6-11.3,11.1-11.3c6.5,0,11.1,4.7,11.1,11.3c0,6.8-4.7,11.3-11.1,11.3
			C58.4,28.2,53.7,23.7,53.7,16.9z M71.7,16.9c0-4.9-2.6-7.9-6.8-7.9c-4.1,0-6.8,2.9-6.8,7.9c0,5,2.7,7.9,6.8,7.9
			C68.9,24.8,71.7,21.9,71.7,16.9z"/>
	</g>
	<g>
		<path class="st3" d="M95,23.8c-0.6-1.1-0.8-2.6-0.8-4.3V5.7h4v13.6c0,1.2,0.2,2.2,0.6,3c0.8,1.6,2.3,2.5,4.5,2.5
			c2.2,0,3.8-0.9,4.5-2.5c0.4-0.8,0.6-1.8,0.6-3V5.7h4v13.8c0,1.7-0.3,3.2-0.8,4.3c-1.4,2.8-4.3,4.3-8.3,4.3
			C99.2,28.1,96.4,26.7,95,23.8z"/>
	</g>
	<g>
		<path class="st4" d="M7.7,47.4c-0.7,0.4-1.9,0.7-3.1,0.7c-2.8,0-4.6-1.9-4.6-4.4c0-2.7,1.9-4.7,4.8-4.7c1,0,1.9,0.2,2.5,0.5v1.3
			c-0.7-0.3-1.5-0.6-2.4-0.6c-2.2,0-3.4,1.4-3.4,3.4c0,2,1.2,3.3,3.2,3.3c0.6,0,1.2-0.1,1.6-0.3v-2.9h1.4V47.4z"/>
		<path class="st4" d="M13.1,47.4c-0.5,0.4-1.1,0.8-1.9,0.8c-1.2,0-2.1-0.8-2.1-2c0-0.8,0.4-1.4,1.1-1.7c0.4-0.2,1-0.3,1.6-0.3
			l1.1,0v-0.3c0-0.8-0.5-1.2-1.3-1.2c-0.7,0-1.2,0.2-1.7,0.5l-0.5-0.9c0.8-0.4,1.6-0.6,2.4-0.6c1.6,0,2.5,0.7,2.5,2.3v2.4
			c0,0.9,0,1.5,0.1,1.8h-1.2L13.1,47.4z M12,45c-0.5,0-0.8,0.1-1,0.2c-0.3,0.2-0.4,0.4-0.4,0.8c0,0.6,0.4,1,1,1
			c0.6,0,1.1-0.4,1.4-0.6V45L12,45z"/>
		<path class="st4" d="M15.8,39.6c0-0.5,0.4-0.9,0.9-0.9c0.5,0,0.9,0.4,0.9,0.9c0,0.5-0.4,0.9-0.9,0.9
			C16.2,40.5,15.8,40.1,15.8,39.6z M16,41.6h1.4V48H16V41.6z"/>
		<path class="st4" d="M18.8,44.9c0-2,1.5-3.4,3.4-3.4c0.3,0,0.6,0,0.9,0.1v-3.1h1.4v9.2c-0.6,0.3-1.4,0.5-2.2,0.5
			C20.3,48.1,18.8,47,18.8,44.9z M23.1,46.8v-4.1c-0.3-0.1-0.5-0.1-0.8-0.1c-1.2,0-2.1,0.8-2.1,2.2c0,1.3,0.8,2.1,2.1,2.1
			C22.5,47,22.9,46.9,23.1,46.8z"/>
		<path class="st4" d="M29.8,47.4c-0.5,0.4-1.1,0.8-1.9,0.8c-1.2,0-2.1-0.8-2.1-2c0-0.8,0.4-1.4,1.1-1.7c0.4-0.2,1-0.3,1.6-0.3
			l1.1,0v-0.3c0-0.8-0.5-1.2-1.3-1.2c-0.7,0-1.2,0.2-1.7,0.5l-0.5-0.9c0.8-0.4,1.6-0.6,2.4-0.6c1.6,0,2.5,0.7,2.5,2.3v2.4
			c0,0.9,0,1.5,0.1,1.8H30L29.8,47.4z M28.7,45c-0.5,0-0.8,0.1-1,0.2c-0.3,0.2-0.4,0.4-0.4,0.8c0,0.6,0.4,1,1,1
			c0.6,0,1.1-0.4,1.4-0.6V45L28.7,45z"/>
		<path class="st4" d="M32.6,41.6h1.2l0.2,0.7c0.6-0.6,1.2-0.9,1.8-0.9c0.3,0,0.6,0.1,0.8,0.2l-0.5,1.2c-0.2-0.1-0.5-0.2-0.7-0.2
			c-0.4,0-0.8,0.2-1.4,0.7V48h-1.4V41.6z"/>
		<path class="st4" d="M40.2,43.6c0-2.7,1.8-4.5,4.4-4.5c2.6,0,4.4,1.9,4.4,4.5c0,2.7-1.9,4.5-4.4,4.5C42,48.1,40.2,46.3,40.2,43.6z
			 M47.5,43.6c0-2-1.1-3.3-2.9-3.3c-1.7,0-2.9,1.3-2.9,3.3c0,2.1,1.2,3.3,2.9,3.3C46.3,46.9,47.5,45.7,47.5,43.6z"/>
		<path class="st4" d="M50.5,41.9c0.7-0.2,1.5-0.4,2.3-0.4c2.2,0,3.4,1.3,3.4,3.3c0,2-1.3,3.3-3.3,3.3c-0.4,0-0.7-0.1-1-0.2v3.2
			h-1.4V41.9z M52.8,47c1.3,0,1.9-0.9,1.9-2.2c0-1.5-0.8-2.1-2-2.1c-0.3,0-0.6,0-0.8,0.1v4C52.2,46.9,52.5,47,52.8,47z"/>
		<path class="st4" d="M58.6,45.2c0,1.1,0.7,1.9,1.9,1.9c0.6,0,1.1-0.2,1.6-0.4l0.4,1c-0.6,0.4-1.4,0.6-2.2,0.6
			c-2.2,0-3.2-1.6-3.2-3.3c0-1.9,1.1-3.3,2.8-3.3c1.7,0,2.7,1.3,2.7,3.3v0.3H58.6z M61.3,44.2c0-0.8-0.4-1.6-1.3-1.6
			c-0.8,0-1.3,0.7-1.4,1.6H61.3z"/>
		<path class="st4" d="M64,41.6h1.2l0.1,0.8c0.7-0.6,1.4-0.9,2.2-0.9c1,0,2,0.5,2,2.3V48h-1.4v-3.8c0-0.8-0.2-1.5-1-1.5
			c-0.6,0-1.2,0.3-1.7,0.8V48H64V41.6z"/>
		<path class="st4" d="M74.5,46.4c-0.2-0.4-0.3-1-0.3-1.6v-5.6h1.4v5.5c0,0.5,0.1,0.9,0.2,1.2c0.3,0.7,1,1.1,1.9,1.1
			c1,0,1.6-0.4,1.9-1.1c0.2-0.3,0.2-0.7,0.2-1.2v-5.5h1.4v5.6c0,0.6-0.1,1.2-0.3,1.6c-0.5,1.2-1.6,1.7-3.2,1.7
			C76.1,48.1,75,47.5,74.5,46.4z"/>
		<path class="st4" d="M83.1,41.6h1.2l0.1,0.8c0.7-0.6,1.4-0.9,2.2-0.9c1,0,2,0.5,2,2.3V48h-1.4v-3.8c0-0.8-0.2-1.5-1-1.5
			c-0.6,0-1.2,0.3-1.7,0.8V48h-1.4V41.6z"/>
		<path class="st4" d="M90.1,39.6c0-0.5,0.4-0.9,0.9-0.9c0.5,0,0.9,0.4,0.9,0.9c0,0.5-0.4,0.9-0.9,0.9
			C90.5,40.5,90.1,40.1,90.1,39.6z M90.3,41.6h1.4V48h-1.4V41.6z"/>
		<path class="st4" d="M92.6,41.6h1.4l1.7,4.6h0l1.6-4.6h1.4L96.3,48h-1.1L92.6,41.6z"/>
		<path class="st4" d="M100.7,45.2c0,1.1,0.7,1.9,1.9,1.9c0.6,0,1.1-0.2,1.6-0.4l0.4,1c-0.6,0.4-1.4,0.6-2.2,0.6
			c-2.2,0-3.2-1.6-3.2-3.3c0-1.9,1.1-3.3,2.8-3.3c1.7,0,2.7,1.3,2.7,3.3v0.3H100.7z M103.4,44.2c0-0.8-0.4-1.6-1.3-1.6
			c-0.8,0-1.3,0.7-1.4,1.6H103.4z"/>
		<path class="st4" d="M106.1,41.6h1.2l0.2,0.7c0.6-0.6,1.2-0.9,1.8-0.9c0.3,0,0.6,0.1,0.8,0.2l-0.5,1.2c-0.2-0.1-0.5-0.2-0.7-0.2
			c-0.4,0-0.8,0.2-1.4,0.7V48h-1.4V41.6z"/>
		<path class="st4" d="M110.5,46.5c0.4,0.3,1,0.5,1.7,0.5c0.7,0,1.2-0.2,1.2-0.8c0-1.2-3-0.8-3-2.9c0-1.1,0.9-1.9,2.3-1.9
			c0.7,0,1.3,0.1,1.8,0.3V43c-0.5-0.2-1-0.4-1.7-0.4c-0.6,0-1,0.2-1,0.7c0,1.2,3,0.7,3,2.9c0,1.4-1.2,1.9-2.5,1.9
			c-0.9,0-1.7-0.3-2.2-0.6L110.5,46.5z"/>
		<path class="st4" d="M115.9,39.6c0-0.5,0.4-0.9,0.9-0.9c0.5,0,0.9,0.4,0.9,0.9c0,0.5-0.4,0.9-0.9,0.9
			C116.3,40.5,115.9,40.1,115.9,39.6z M116.1,41.6h1.4V48h-1.4V41.6z"/>
		<path class="st4" d="M119.7,46.5v-3.7h-1.1v-1.1h1.1v-1.5l1.4-0.4v1.9h1.9l-0.3,1.1h-1.6v3.4c0,0.6,0.2,0.8,0.6,0.8
			c0.4,0,0.7-0.1,1-0.3l0.4,1c-0.4,0.3-1.1,0.5-1.8,0.5C120.3,48.1,119.7,47.5,119.7,46.5z"/>
		<path class="st4" d="M127.6,48.3c-0.9,2.6-1.9,2.9-3.1,2.9c-0.5,0-0.9-0.1-1.3-0.3l0.3-1.1c0.3,0.1,0.6,0.2,0.9,0.2
			c0.8,0,1.4-0.5,1.9-2l-2.8-6.3h1.5l2,4.7h0l1.6-4.7h1.5L127.6,48.3z"/>
	</g>
</g>
</svg>
